<svg xmlns="http://www.w3.org/2000/svg" fill="#1578e0" width="433" height="491"><path d="M187.4 248.6c68.9 0 93.7-69 100.2-125.7C295.6 53 262.6.5 187.4.5 112.2.4 79.2 53 87.2 122.8c6.5 56.7 31.3 125.8 100.2 125.8z"/><path d="M338.2 277.3c2.2 0 4.4.1 6.6.2-3.3-4.7-7.1-8.8-11.5-12.1-13.2-9.9-30.4-13.1-45.6-19.1-7.4-2.9-14-5.8-20.2-9.1-20.9 23-48.3 35-80.1 35-31.8 0-59.1-12-80.1-35-6.2 3.3-12.8 6.2-20.2 9.1-15.2 6-32.3 9.2-45.6 19.1C18.6 282.5 12.7 321 8 347.2 4.2 368.9 1.6 391 .8 413c-.6 17 7.8 19.4 22.1 24.6 17.9 6.4 36.3 11.2 54.8 15.1 35.8 7.6 72.8 13.4 109.6 13.6 17.8-.1 35.7-1.6 53.4-3.9-13.1-19-20.9-42.1-20.9-67 .2-65.1 53.2-118.1 118.4-118.1z"/><path d="M379.5 411.7h-25.1v25.1c0 9-7.3 16.2-16.2 16.2-9 0-16.2-7.3-16.2-16.2v-25.1h-25.1c-9 0-16.2-7.3-16.2-16.2 0-9 7.3-16.2 16.2-16.2H322v-25.1c0-9 7.3-16.2 16.2-16.2 9 0 16.2 7.3 16.2 16.2v25.1h25.1c9 0 16.2 7.3 16.2 16.2 0 8.9-7.2 16.2-16.2 16.2zm-41.3-110.8c-52.2 0-94.5 42.3-94.5 94.5s42.3 94.5 94.5 94.5 94.5-42.3 94.5-94.5c0-52.1-42.3-94.5-94.5-94.5z"/></svg>