<svg xmlns="http://www.w3.org/2000/svg" width="371" height="289" fill="#fff"><path d="M134 225.2c-49.6 0-90-40.4-90-90s40.4-90 90-90 90 40.4 90 90-40.4 90-90 90zm0-192c-56.2 0-102 45.8-102 102s45.8 102 102 102 102-45.8 102-102-45.8-102-102-102z"/><path d="M185.1 177.1c-3.2 3.2-7.4 4.8-11.8 4.7-4.5-.1-8.6-2.1-11.5-5.4l-20.7-23.7c4.1-1.7 7.5-4.7 9.5-8.6l34.4 30.1c.6.5.7 1.1.7 1.5 0 .2 0 .8-.6 1.4zm-90.6 9.7c-.5.6-1.1.7-1.5.7-.3 0-1-.1-1.5-.6-3.1-3.2-4.8-7.4-4.7-11.8.1-4.5 2.1-8.5 5.4-11.5l24.3-21.3c1.7 4.1 4.7 7.4 8.6 9.5l-30.6 35zm-13.4-92c0-.3.1-1 .6-1.5 3.2-3.2 7.4-4.8 11.8-4.7 4.5.1 8.6 2.1 11.5 5.4l21.1 24.1c-3.9 1.9-7.2 5-9 9L81.8 96.3c-.6-.5-.7-1.1-.7-1.5zM134 142c-3.8 0-6.8-3.1-6.8-6.8 0-3.8 3.1-6.8 6.8-6.8s6.8 3.1 6.8 6.8c0 3.7-3 6.8-6.8 6.8zm38.3-58.4c.5-.6 1.1-.7 1.5-.7.3 0 1 .1 1.5.6 3.1 3.2 4.8 7.4 4.7 11.8-.1 4.5-2.1 8.5-5.4 11.5l-23.4 20.5c-1.9-4-5.1-7.2-9.1-9.1l30.2-34.6zm20.6 81.5l-33.4-29.2 22.9-20c5.8-5.1 9.3-12.4 9.5-20.1.3-7.7-2.7-15.3-8.2-20.7-2.7-2.7-6.5-4.2-10.4-4.1-3.9.1-7.5 1.9-10.1 4.8L134 109.1l-20-22.9c-5.1-5.8-12.4-9.3-20.1-9.5-7.7-.3-15.3 2.7-20.7 8.2-2.7 2.7-4.2 6.5-4.1 10.4.1 3.9 1.9 7.5 4.8 10.1l33.4 29.2-22.9 20c-5.8 5.1-9.3 12.4-9.5 20.1-.3 7.7 2.7 15.3 8.2 20.7 2.6 2.6 6.2 4.1 9.9 4.1h.5c3.9-.1 7.5-1.9 10.1-4.8l29.2-33.4 20 22.9c5.1 5.8 12.4 9.3 20.1 9.5h.9c7.4 0 14.6-3 19.8-8.2 2.7-2.7 4.2-6.5 4.1-10.4-.1-3.8-1.8-7.5-4.8-10z"/><path d="M358.4 250.4c0 3.8-3.1 6.8-6.8 6.8H18.8c-3.8 0-6.8-3.1-6.8-6.8V20c0-3.7 3.1-6.8 6.8-6.8h332.8c3.7 0 6.8 3.1 6.8 6.8v230.4zM339.2 276c0 .2-.2.4-.4.4h-14.6c-.2 0-.3-.1-.4-.3l-2.3-6.9h17.7v6.8zm-292.6.1c-.1.2-.2.3-.4.3H31.6c-.2 0-.4-.2-.4-.4v-6.8h17.7l-2.3 6.9zm305-274.9H18.8C8.4 1.2 0 9.6 0 20v230.4c0 10.4 8.4 18.8 18.8 18.8h.4v6.8c0 6.8 5.6 12.4 12.4 12.4h14.6c5.3 0 10.1-3.4 11.8-8.5l3.6-10.7H309l3.6 10.7c1.7 5.1 6.4 8.5 11.8 8.5H339c6.8 0 12.4-5.6 12.4-12.4v-6.8h.4c10.4 0 18.8-8.4 18.8-18.8V20c-.2-10.4-8.6-18.8-19-18.8z"/></svg>