<svg xmlns="http://www.w3.org/2000/svg" width="105" height="105"><linearGradient id="a" gradientUnits="userSpaceOnUse" x1="24.019" y1="13.504" x2="90.018" y2="72.504"><stop offset="0" stop-color="#47c7a7"/><stop offset="1" stop-color="#44bfa0"/></linearGradient><path fill="url(#a)" d="M100.5 58.7c-.4-1-1.4-1.7-2.5-1.7h-9V8c0-1.4-1.4-3-3-3H20c-1.6 0-3 1.6-3 3v49H8c-1.2 0-1.9.4-2.6 1.6-.6 1.2-.1 3.1.8 3.8l44.9 37.4c.5.5 1.2.7 1.9.7s1.4-.2 1.9-.7l44.7-37.2c.9-.7 1.6-2.3.9-3.9z"/><path opacity=".5" fill="#7A7A7A" d="M99.7 62.6c.9-.7 1.6-2.3.9-3.9-.4-1-1.4-1.7-2.5-1.7h-9V44.5L66 27.8 37.9 65.9s20.3 14.9 30.5 22.7l31.3-26zM34.9 45.9l11.2 6.4 10.4-16.1-12.5-8-9.9 5.5z"/><path fill="#FFDC2E" d="M40 27.3c5.5 0 10 4.5 10 10s-4.5 10-10 10-10-4.5-10-10c0-5.4 4.5-10 10-10zm0 14.1c2.3 0 4.1-1.8 4.1-4.1s-1.8-4.1-4.1-4.1-4.1 1.8-4.1 4.1c.1 2.4 1.8 4.1 4.1 4.1zm21.4-14.1h4.8L42.4 66h-4.8l23.8-38.7zm2.5 18.6c5.5 0 10 4.5 10 10s-4.5 10-10 10-10-4.5-10-10c-.1-5.4 4.5-10 10-10zm0 14.1c2.3 0 4.1-1.8 4.1-4.1s-1.8-4.1-4.1-4.1-4.1 1.8-4.1 4.1c0 2.4 1.8 4.1 4.1 4.1z"/></svg>