<svg xmlns="http://www.w3.org/2000/svg" fill="#fff" xmlns:xlink="http://www.w3.org/1999/xlink" width="352" height="480"><defs><path id="a" d="M.1 0H352v479.9H.1z"/></defs><clipPath id="b"><use xlink:href="#a" overflow="visible"/></clipPath><path clip-path="url(#b)" d="M48 147v135.3c0 .9.1 1.8.4 2.6L79 374.4 49.8 411c-1.1 1.4-1.8 3.2-1.8 5v56c0 4.4 3.6 8 8 8h208c4.4 0 8-3.6 8-8v-56c0-1.8-.6-3.6-1.8-5L241 374.4l30.6-89.6c.3-.8.4-1.7.4-2.6V264h72c4.4 0 8-3.6 8-8V88c0-4.4-3.6-8-8-8h-72.5c-3.8-27.7-27.6-48.2-55.5-48h-24v-8c0-13.3-10.7-24-24-24h-16c-13.3 0-24 10.7-24 24v8h-24c-27.9-.2-51.7 20.3-55.5 48H8c-4.4 0-8 3.6-8 8 0 1.9.7 3.8 1.9 5.2L48 147m224-19h32v88h-32v-88zm0 104h40c4.4 0 8-3.6 8-8V120c0-4.4-3.6-8-8-8h-40V96h64v152h-64v-16zm-16 186.8V464H64v-45.2L91.8 384h136.3l27.9 34.8zM144 24c0-4.4 3.6-8 8-8h16c4.4 0 8 3.6 8 8v8h-32v-8zM83.8 53.5c.3-.2.7-.4 1-.5 1.6-.9 3.2-1.7 4.9-2.3 1-.4 2-.6 3-.9 1.2-.4 2.5-.7 3.7-1 2.5-.5 5-.7 7.5-.7h112c2.5 0 5 .3 7.5.7 1.3.3 2.5.6 3.7 1 1 .3 2 .5 3 .9 1.7.7 3.3 1.4 4.9 2.3.3.2.7.3 1 .5 9.8 5.7 16.7 15.4 19 26.5H64.8c2.3-11.1 9.2-20.8 19-26.5zM64 144V96h192v160H64V144zm0 128h192v6.7L226.2 368h-46.9l18.3-18.3-11.3-11.3-26.3 26.3-26.3-26.3-11.3 11.3 18.3 18.3H93.8L64 278.7V272zM48 96v26.4L25.4 96H48z"/><path d="M160 400c-13.3 0-24 10.7-24 24s10.7 24 24 24 24-10.7 24-24-10.7-24-24-24m0 32c-4.4 0-8-3.6-8-8s3.6-8 8-8 8 3.6 8 8-3.6 8-8 8zm24-320h-48c-4.4 0-8 3.6-8 8s3.6 8 8 8h48c4.4 0 8-3.6 8-8s-3.6-8-8-8m0 32h-48c-4.4 0-8 3.6-8 8s3.6 8 8 8h48c4.4 0 8-3.6 8-8s-3.6-8-8-8m0 32h-48c-4.4 0-8 3.6-8 8s3.6 8 8 8h48c4.4 0 8-3.6 8-8s-3.6-8-8-8m0 32h-48c-4.4 0-8 3.6-8 8s3.6 8 8 8h48c4.4 0 8-3.6 8-8s-3.6-8-8-8"/></svg>