<svg xmlns="http://www.w3.org/2000/svg" width="300" height="411" fill="#fff"><path d="M264.9 396.3H34c-11.3-.4-20.2-9.8-19.8-21.1l9.9-288.6C25.5 46.1 58.7 14 99.2 14.1h101.2c40.5 0 73.6 32.1 75 72.5l10 288.6v.7c-.1 11.3-9.2 20.5-20.5 20.4zm34.2-21.6l-10-288.6C287.4 38.3 248.2.4 200.4.4H99.2c-47.8 0-87 37.9-88.7 85.7L.5 374.7v1.2c0 18.8 15.3 34.1 34.2 34.1h231.5c18.8-.7 33.5-16.5 32.9-35.3z"/><path d="M190.7 177.9c0 11.3-9.2 20.5-20.5 20.5h-41c-11.3 0-20.5-9.2-20.5-20.5v-6.8h81.9v6.8zm6.9-20.5H102c-3.8 0-6.8 3.1-6.8 6.8v13.7c0 18.9 15.3 34.1 34.1 34.1h41c18.9 0 34.1-15.3 34.1-34.1v-13.7c0-3.7-3.1-6.8-6.8-6.8zm-47.8 109.2c-7.5 0-13.7-6.1-13.7-13.7 0-7.5 6.1-13.7 13.7-13.7 7.5 0 13.7 6.1 13.7 13.7-.1 7.6-6.2 13.7-13.7 13.7zm0-40.9c-15.1 0-27.3 12.2-27.3 27.3 0 15.1 12.2 27.3 27.3 27.3s27.3-12.2 27.3-27.3c0-15.1-12.3-27.3-27.3-27.3zM102 239.3c-3.8 0-6.8 3.1-6.8 6.8v6.8c0 3.8 3.1 6.8 6.8 6.8 3.8 0 6.8-3.1 6.8-6.8v-6.8c0-3.7-3-6.8-6.8-6.8zm95.6 0c-3.8 0-6.8 3.1-6.8 6.8v6.8c0 3.8 3.1 6.8 6.8 6.8 3.8 0 6.8-3.1 6.8-6.8v-6.8c0-3.7-3.1-6.8-6.8-6.8zm47.7 46.7c-3.3-1.8-7.5-.6-9.2 2.8-7 13-18.4 23.1-32.2 28.4-7 2.7-14.5 4.1-22 4.1h-64.2c-7.5 0-15-1.4-22.1-4.1-13.8-5.3-25.2-15.4-32.2-28.4-1.8-3.3-5.9-4.6-9.2-2.8-3.3 1.8-4.6 5.9-2.8 9.2 13.1 24.4 38.5 39.7 66.2 39.7h64.2c27.7 0 53.2-15.2 66.2-39.7 1.9-3.3.6-7.4-2.7-9.2z"/><path d="M226.2 182.1L216 264c-2.1 17.2-16.8 30-34.1 29.9h-64.2c-17.3.1-32-12.7-34.1-29.9l-10.2-81.9c-.2-1.5-.3-3-.3-4.5.1-18.9 15.5-34 34.4-33.9h84.6c1.5 0 3 .1 4.5.3 18.7 2.4 32 19.4 29.6 38.1zm-34.1-52h-84.6c-2 0-4 .1-6 .4-26.2 3.3-44.8 27.2-41.5 53.4l10.2 81.9c3 23.9 23.3 41.9 47.4 41.8h64.2c24.1 0 44.4-17.9 47.4-41.8l10.2-81.9c.2-2 .4-4 .4-6 .1-26.4-21.3-47.8-47.7-47.8zm-58 221.2c-2.4-2.9-6.8-3.2-9.6-.7L104 371c-1.3 1.3-2 3.1-2 4.9 0 3.8 3.1 6.8 6.9 6.8 1.8 0 3.5-.8 4.8-2l20.5-20.5c2.1-2.6 2.1-6.4-.1-8.9zm34.1 0c-2.5-2.9-6.8-3.2-9.6-.7L138.1 371c-1.3 1.3-2 3.1-2 4.9 0 3.8 3.1 6.8 6.9 6.8 1.8 0 3.5-.8 4.8-2l20.5-20.5c2.1-2.6 2.1-6.4-.1-8.9zm34.1 0c-2.5-2.9-6.8-3.2-9.6-.7L172.2 371c-1.3 1.3-2 3.1-2 4.9 0 3.8 3.1 6.8 6.9 6.8 1.8 0 3.5-.8 4.8-2l20.5-20.5c2.1-2.6 2.1-6.4-.1-8.9zm77.2-262.2H20.1c-3.8 0-6.8 3.1-6.8 6.8 0 3.8 3.1 6.8 6.8 6.8h259.4c3.8 0 6.8-3.1 6.8-6.8 0-3.7-3.1-6.8-6.8-6.8z"/><path d="M197.6 89.1H102v-6.8c0-3.8 3.1-6.8 6.8-6.8h81.9c3.8 0 6.8 3.1 6.8 6.8v6.8zm-6.9-27.3h-81.9c-11.3 0-20.5 9.2-20.5 20.5V96c0 3.8 3.1 6.8 6.8 6.8h109.2c3.8 0 6.8-3.1 6.8-6.8V82.3c.1-11.3-9.1-20.5-20.4-20.5zM54.2 89.1c-3.8 0-6.8 3.1-6.8 6.8 0 .5 0 47.8-27.3 47.8-3.8 0-6.8 3.1-6.8 6.8 0 3.8 3.1 6.8 6.8 6.8 40.5 0 41-58.9 41-61.4-.1-3.7-3.1-6.8-6.9-6.8zm225.3 54.7c-26.9 0-27.3-47.3-27.3-47.8 0-3.8-3.1-6.8-6.8-6.8-3.8 0-6.8 3.1-6.8 6.8 0 2.5.5 61.4 41 61.4 3.8 0 6.8-3.1 6.8-6.8-.1-3.8-3.2-6.8-6.9-6.8z"/></svg>