<svg xmlns="http://www.w3.org/2000/svg" xmlns:xlink="http://www.w3.org/1999/xlink" width="410" height="377" fill="#a8d2ff"><defs><path id="a" d="M.1 0H410v376.9H.1z"/></defs><clipPath id="b"><use xlink:href="#a" overflow="visible"/></clipPath><path clip-path="url(#b)" d="M360.1 188.2l-249.2 32.4L80.2 67h308.9l-29 121.2zm47.8-133.1c-1.7-1.7-3.4-3.4-6.8-3.4H76.8L68.3 7.3c0-3.4-5.1-6.8-8.5-6.8H8.5C3.4.5 0 3.9 0 9s3.4 8.5 8.5 8.5h44.4l41 208.2c5.1 27.3 30.7 47.8 58 47.8h196.3c5.1 0 8.5-3.4 8.5-8.5s-3.4-8.5-8.5-8.5H153.6c-13.7 0-27.3-6.8-34.1-18.8l249.2-34.1c3.4 0 6.8-3.4 6.8-6.8l34.1-136.5c0-.1 0-3.5-1.7-5.2z"/><path d="M145.1 358.9c-13.7 0-25.6-11.9-25.6-25.6 0-13.7 11.9-25.6 25.6-25.6 13.7 0 25.6 11.9 25.6 25.6 0 13.6-12 25.6-25.6 25.6zm0-68.3c-23.9 0-42.7 18.8-42.7 42.7 0 23.9 18.8 42.7 42.7 42.7 23.9 0 42.7-18.8 42.7-42.7-.1-23.9-18.8-42.7-42.7-42.7zm170.6 68.3c-13.7 0-25.6-11.9-25.6-25.6 0-13.7 11.9-25.6 25.6-25.6 13.7 0 25.6 11.9 25.6 25.6 0 13.6-11.9 25.6-25.6 25.6zm0-68.3c-23.9 0-42.7 18.8-42.7 42.7 0 23.9 18.8 42.7 42.7 42.7 23.9 0 42.7-18.8 42.7-42.7 0-23.9-18.8-42.7-42.7-42.7z"/></svg>