<svg xmlns="http://www.w3.org/2000/svg" fill="#1578e0" xmlns:xlink="http://www.w3.org/1999/xlink" width="490" height="346"><defs><path id="a" d="M.1 0H490v346H.1z"/></defs><clipPath id="b"><use xlink:href="#a" overflow="visible"/></clipPath><path clip-path="url(#b)" d="M418.7 133.7l-34-48.3c-1.3-1.9-3.4-3-5.7-3h-53c-3.9 0-7 3.1-7 7v48.3c0 3.9 3.1 7 7 7h87c5.7 0 9-6.4 5.7-11zm70.9 131.6v21.2c0 3.9-3.1 7-7 7H426c-4-27.7-27.9-49.1-56.8-49.1-28.8 0-52.7 21.4-56.8 49.1H198.6c-2-14-9.1-26.3-19.3-35.2h108V58.5c0-7.7 6.3-14 14-14h66c18.6 0 35.9 9.2 46.3 24.6l42.5 63c6.2 9.2 9.6 20.1 9.6 31.3v94.9h17c3.8 0 6.9 3.1 6.9 7zM391 301.8c0-12-9.7-21.7-21.7-21.7s-21.7 9.7-21.7 21.7 9.7 21.7 21.7 21.7 21.7-9.7 21.7-21.7zm21.8 0c0 24-19.5 43.5-43.5 43.5s-43.5-19.5-43.5-43.5 19.5-43.5 43.5-43.5 43.5 19.5 43.5 43.5zm-308.4-43.5H7c-3.9 0-7 3.1-7 7v21.2c0 3.9 3.1 7 7 7h78.1c2-14 9.1-26.4 19.3-35.2zm59.2 43.5c0-12-9.7-21.7-21.7-21.7s-21.7 9.7-21.7 21.7 9.7 21.7 21.7 21.7 21.7-9.7 21.7-21.7zm21.7 0c0 24-19.5 43.5-43.5 43.5s-43.5-19.5-43.5-43.5 19.5-43.5 43.5-43.5 43.5 19.5 43.5 43.5zM17.2 230.4V22.1c0-11.6 9.4-21 21-21h208.2c11.6 0 21 9.4 21 21v208.3c0 3.9-3.1 7-7 7H24.2c-3.9 0-7-3.1-7-7z"/></svg>