<svg xmlns="http://www.w3.org/2000/svg" xmlns:xlink="http://www.w3.org/1999/xlink" width="410" height="392" fill="#fff"><defs><path id="a" d="M.1 0H410v392H.1z"/></defs><clipPath id="b"><use xlink:href="#a" overflow="visible"/></clipPath><path clip-path="url(#b)" d="M55.5 225.9c.7 19.9 4.3 38.9 10.8 56.7 8.2 22.2 20.6 42 37 58.8l.1.1c6.9 6.9 16.2 10.8 26 10.8 20.3 0 36.8-16.5 36.8-36.8 0-10.9-3-20.4-6-29.6-3.8-12.1-7.5-23.5-4.1-37.4.8-3.4 1.6-6.6 2.5-9.8 1.1-4.3 2.2-8.5 3.1-12.8H248c.9 4.3 2 8.5 3.1 12.8.8 3.2 1.7 6.4 2.5 9.8 3.3 13.9-.3 25.3-4.2 37.4-2.9 9.2-6 18.7-6 29.6 0 20.3 16.5 36.8 36.8 36.8 9.8 0 19-3.8 26-10.8l.1-.1c16.4-16.9 28.9-36.6 37-58.8 6.5-17.8 10.1-36.7 10.8-56.7h43.5v88c-34.7 2.9-62.5 30.7-65.4 65.4H77.4c-.4-5.1-1.4-10.1-2.9-14.9-1-3.2-4.3-5-7.5-4s-5 4.3-4 7.5c1.1 3.7 1.9 7.6 2.3 11.4H52c-22.1 0-40-18-40-40V326c14.7 1.5 28.4 8.4 38.3 19.5 1.2 1.3 2.8 2 4.5 2 1.4 0 2.9-.5 4-1.5 2.5-2.2 2.7-6 .4-8.5C47 323.9 30 315.5 11.9 314v-88h43.6zm13.7-34.5c2.8-20.9 17.9-42 41.3-42 22.3 0 38.1 16.1 41.3 41.9 2.1 17.2-1.2 29.8-4.9 44.3-.8 3.2-1.7 6.5-2.5 10-4.1 17.1.2 30.7 4.4 43.8 2.8 8.7 5.4 17 5.4 26 0 13.6-11.1 24.8-24.8 24.8-6.6 0-12.8-2.6-17.5-7.2-15.2-15.6-26.8-34-34.3-54.6-9.8-26.3-12.6-55.6-8.4-87zm196.1 54.3c-.8-3.5-1.7-6.8-2.5-10-3.8-14.6-7-27.1-4.9-44.3 3.1-25.9 18.9-41.9 41.3-41.9 23.4 0 38.5 21.1 41.3 42 4.2 31.4 1.4 60.7-8.3 87-7.6 20.6-19.1 38.9-34.3 54.6-4.7 4.7-10.9 7.2-17.5 7.2-13.6 0-24.8-11.1-24.8-24.8 0-9 2.6-17.2 5.4-26 4.1-13.1 8.4-26.7 4.3-43.8zm132.3 93.5c0 22.1-18 40-40 40h-13.3c2.8-28.1 25.2-50.5 53.3-53.3v13.3zm6-220c3.3 0 6-2.7 6-6v-60c0-28.7-23.3-52-52-52H52c-28.7 0-52 23.3-52 52v286c0 28.7 23.3 52 52 52h305.5c28.7 0 52-23.3 52-52V141.4c0-3.3-2.7-6-6-6s-6 2.7-6 6v72.5h-43.4c-.2-7.9-.8-15.9-1.9-24.1-3.5-26-22.9-52.4-53.2-52.4-28.5 0-49.3 20.6-53.2 52.5-1.1 8.9-.9 16.7 0 24h-82.3c.9-7.3 1.1-15.1 0-24-3.8-31.9-24.7-52.5-53.2-52.5-30.3 0-49.7 26.4-53.2 52.4-1.1 8.2-1.7 16.2-1.9 24.1H12V53.2c0-22.1 18-40 40-40h305.5c22.1 0 40 18 40 40v60c.1 3.3 2.8 6 6.1 6z"/><path d="M50.2 100.7c-3.3 0-6-2.7-6-6s2.7-6 6-6 6 2.7 6 6-2.8 6-6 6zm0-23.9c-9.9 0-18 8.1-18 18s8.1 18 18 18 18-8.1 18-18c-.1-10-8.1-18-18-18zm0-17c-3.3 0-6-2.7-6-6s2.7-6 6-6 6 2.7 6 6c-.1 3.3-2.8 6-6 6zm0-23.9c-9.9 0-18 8.1-18 18s8.1 18 18 18 18-8.1 18-18c-.1-10-8.1-18-18-18zm264.6 23.9c-3.3 0-6-2.7-6-6s2.7-6 6-6 6 2.7 6 6-2.7 6-6 6zm0-23.9c-9.9 0-18 8.1-18 18s8.1 18 18 18 18-8.1 18-18c0-10-8.1-18-18-18zm-220 23.9c-3.3 0-6-2.7-6-6s2.7-6 6-6 6 2.7 6 6c-.1 3.3-2.7 6-6 6zm0-23.9c-9.9 0-18 8.1-18 18s8.1 18 18 18 18-8.1 18-18c-.1-10-8.1-18-18-18zM266.4 52v44.1c0 3.1-2.5 5.6-5.6 5.6h-7.2c-1.6-13.3-8.6-25-18.7-32.9 1.3-2.8.3-6.1-2.4-7.7-2.7-1.6-6.1-.9-7.9 1.6-6.1-2.7-12.8-4.2-19.8-4.2-25.1 0-45.9 18.9-48.8 43.2h-7.2c-3.1 0-5.6-2.5-5.6-5.6V52c0-3.1 2.5-5.6 5.6-5.6h112c3.1.1 5.6 2.6 5.6 5.6zm-51 49.7l13.4-22.5c6.7 5.6 11.3 13.5 12.8 22.5h-26.2zm-14 0h-33.3c2.9-17.7 18.2-31.2 36.7-31.2 4.8 0 9.4.9 13.6 2.6l-17 28.6zm-52.6-67.2c-9.7 0-17.6 7.9-17.6 17.6v44.1c0 9.7 7.9 17.6 17.6 17.6h112c9.7 0 17.6-7.9 17.6-17.6V52c0-9.7-7.9-17.6-17.6-17.6h-112zm166 66.2c-3.3 0-6-2.7-6-6s2.7-6 6-6 6 2.7 6 6-2.7 6-6 6zm0-23.9c-9.9 0-18 8.1-18 18s8.1 18 18 18 18-8.1 18-18c0-10-8.1-18-18-18zm44.6-17c-3.3 0-6-2.7-6-6s2.7-6 6-6 6 2.7 6 6-2.7 6-6 6zm0-23.9c-9.9 0-18 8.1-18 18s8.1 18 18 18 18-8.1 18-18c0-10-8-18-18-18zM94.8 100.7c-3.3 0-6-2.7-6-6s2.7-6 6-6 6 2.7 6 6-2.7 6-6 6zm0-23.9c-9.9 0-18 8.1-18 18s8.1 18 18 18 18-8.1 18-18c-.1-10-8.1-18-18-18zm264.6 23.9c-3.3 0-6-2.7-6-6s2.7-6 6-6 6 2.7 6 6-2.7 6-6 6zm0-23.9c-9.9 0-18 8.1-18 18s8.1 18 18 18 18-8.1 18-18c0-10-8-18-18-18z"/></svg>