<svg xmlns="http://www.w3.org/2000/svg" width="371" height="372" fill="#fff"><path d="M354.7 277.1l-29.1 4.2v-12.7h28.5c2.4 0 4.3 1.9 4.3 4.3 0 2.1-1.6 3.9-3.7 4.2zm-41.1 75.1c0 3.7-3.1 6.8-6.8 6.8H63.6c-3.8 0-6.8-3-6.8-6.8v-83.6h256.8v83.6zM15.7 277.1c-2.1-.3-3.7-2.1-3.7-4.2 0-2.4 1.9-4.3 4.3-4.3h28.5v12.7l-29.1-4.2zm56.2-59.7h226.6l-3.6 39.2H75.5l-3.6-39.2zm228.3-19.2l-.7 7.2H70.8l-.7-7.2h230.1zM65.5 147h239.4l-3.6 39.2H69.1L65.5 147zm241.1-19.2l-.6 7.2H64.4l-.7-7.2h242.9zM59.1 76.6h252.2l-3.6 39.2h-245l-3.6-39.2zM313 57.4l-.7 7.2H58l-.7-7.2H313zM178.4 31.8H192v13.6h-13.6V31.8zm-19.2-15.6c0-2 1.6-3.6 3.6-3.6h44.8c2 0 3.6 1.6 3.6 3.6s-1.6 3.6-3.6 3.6h-44.8c-2 0-3.6-1.6-3.6-3.6zm194.9 240.4H307l5.3-58.4H326c3.3 0 6-2.7 6-6s-2.7-6-6-6h-12.6l5.3-58.4h13.7c3.3 0 6-2.7 6-6s-2.7-6-6-6h-12.6l5.3-58.4h13.7c3.3 0 6-2.7 6-6s-2.7-6-6-6H204V31.8h3.6c8.6 0 15.6-7 15.6-15.6S216.2.6 207.6.6h-44.8c-8.6 0-15.6 7-15.6 15.6s7 15.6 15.6 15.6h3.6v13.6H31.6c-3.3 0-6 2.7-6 6s2.7 6 6 6h13.7l5.3 58.4H38c-3.3 0-6 2.7-6 6s2.7 6 6 6h13.7l5.3 58.4H44.4c-3.3 0-6 2.7-6 6s2.7 6 6 6h13.7l5.3 58.4H16.3c-9 0-16.3 7.3-16.3 16.3 0 8.1 6 15 14 16.1l30.8 4.4v58.8c0 10.4 8.4 18.8 18.8 18.8h243.2c10.4 0 18.8-8.4 18.8-18.8v-58.8l30.8-4.4c8-1.1 14-8.1 14-16.1 0-9-7.3-16.3-16.3-16.3z"/><path d="M165.6 313.8c0-3.2.8-6.3 2.2-9l26.4 26.4c-2.7 1.4-5.7 2.2-8.9 2.2-10.9 0-19.7-8.8-19.7-19.6zm39.2 0c0 3.2-.8 6.3-2.2 9l-26.4-26.4c2.7-1.4 5.7-2.2 8.9-2.2 10.9 0 19.7 8.8 19.7 19.6zm-19.6-31.6c-17.4 0-31.6 14.2-31.6 31.6 0 17.4 14.2 31.6 31.6 31.6 17.4 0 31.6-14.2 31.6-31.6 0-17.4-14.2-31.6-31.6-31.6zm-70.4 38.4c-3.8 0-6.8-3.1-6.8-6.8s3.1-6.8 6.8-6.8 6.8 3.1 6.8 6.8-3 6.8-6.8 6.8zm0-25.6c-10.4 0-18.8 8.4-18.8 18.8s8.4 18.8 18.8 18.8 18.8-8.4 18.8-18.8-8.4-18.8-18.8-18.8zm147.2-6.4h-25.6c-3.3 0-6 2.7-6 6s2.7 6 6 6H262c3.3 0 6-2.7 6-6s-2.7-6-6-6zm0 19.2h-25.6c-3.3 0-6 2.7-6 6s2.7 6 6 6H262c3.3 0 6-2.7 6-6s-2.7-6-6-6zm0 19.2h-25.6c-3.3 0-6 2.7-6 6s2.7 6 6 6H262c3.3 0 6-2.7 6-6s-2.7-6-6-6z"/></svg>