<svg xmlns="http://www.w3.org/2000/svg" fill="#fff" xmlns:xlink="http://www.w3.org/1999/xlink" width="410" height="398"><defs><path id="a" d="M.1 0H410v398H.1z"/></defs><clipPath id="b"><use xlink:href="#a" overflow="visible"/></clipPath><path clip-path="url(#b)" d="M13.7 14.9H396v368.6H13.7V14.9zM402.8 1.2H6.8C3.1 1.2 0 4.3 0 8.1v382.3c0 3.8 3.1 6.8 6.8 6.8h395.9c3.8 0 6.8-3.1 6.8-6.8V8.1c.1-3.8-3-6.9-6.7-6.9z"/><path d="M116.1 274.3c-26.4 0-47.8-21.4-47.8-47.8 0-26.3 21.4-47.8 47.8-47.8s47.8 21.4 47.8 47.8c-.1 26.3-21.5 47.8-47.8 47.8zm0-109.2c-33.9 0-61.4 27.6-61.4 61.4 0 33.9 27.6 61.4 61.4 61.4 33.9 0 61.4-27.6 61.4-61.4 0-33.9-27.6-61.4-61.4-61.4z"/><path d="M49.73 276.3l34.153-34.153 9.687 9.687-34.153 34.153zm66.37-43c-3.8 0-6.8-3.1-6.8-6.8 0-3.8 3.1-6.8 6.8-6.8 3.8 0 6.8 3.1 6.8 6.8 0 3.8-3.1 6.8-6.8 6.8zm0-27.3c-11.3 0-20.5 9.2-20.5 20.5s9.2 20.5 20.5 20.5 20.5-9.2 20.5-20.5c-.1-11.3-9.3-20.5-20.5-20.5zm22.402-4.824l34.153-34.153 9.688 9.688-34.153 34.154zm-.005 50.612l9.687-9.687 34.153 34.154-9.687 9.687zm-88.761-75.061l9.686-9.69 34.163 34.148-9.686 9.69zM116.1 137.8c-26.4 0-47.8-21.4-47.8-47.8s21.4-47.8 47.8-47.8 47.8 21.4 47.8 47.8c-.1 26.3-21.5 47.8-47.8 47.8zm0-109.3c-33.9 0-61.4 27.6-61.4 61.4 0 33.9 27.6 61.4 61.4 61.4 33.9 0 61.4-27.6 61.4-61.4s-27.6-61.4-61.4-61.4z"/><path d="M49.737 139.79l34.153-34.15 9.687 9.688-34.153 34.153zM116.1 96.8c-3.8 0-6.8-3.1-6.8-6.8s3.1-6.8 6.8-6.8c3.8 0 6.8 3.1 6.8 6.8s-3.1 6.8-6.8 6.8zm0-27.3c-11.3 0-20.5 9.2-20.5 20.5s9.2 20.5 20.5 20.5 20.5-9.2 20.5-20.5c-.1-11.3-9.3-20.5-20.5-20.5zm22.416-4.835l34.153-34.153 9.686 9.688-34.152 34.153zm.032 50.615l9.69-9.684 34.144 34.163-9.69 9.683zM49.756 40.22l9.687-9.686 34.153 34.153-9.687 9.687zM293.5 274.3c-26.3 0-47.8-21.4-47.8-47.8 0-26.3 21.4-47.8 47.8-47.8s47.8 21.4 47.8 47.8c0 26.3-21.4 47.8-47.8 47.8zm0-109.2c-33.9 0-61.4 27.6-61.4 61.4 0 33.9 27.6 61.4 61.4 61.4 33.9 0 61.4-27.6 61.4-61.4.1-33.9-27.5-61.4-61.4-61.4z"/><path d="M227.218 276.297l34.153-34.153 9.688 9.687-34.153 34.154zM293.5 233.3c-3.8 0-6.8-3.1-6.8-6.8 0-3.8 3.1-6.8 6.8-6.8 3.8 0 6.8 3.1 6.8 6.8.1 3.8-3 6.8-6.8 6.8zm0-27.3c-11.3 0-20.5 9.2-20.5 20.5s9.2 20.5 20.5 20.5 20.5-9.2 20.5-20.5-9.2-20.5-20.5-20.5zm22.505-4.817l34.153-34.153 9.688 9.688-34.153 34.153zm.035 50.604l9.686-9.69 34.163 34.148-9.687 9.69zm-88.828-75.053l9.687-9.687L271.05 201.2l-9.687 9.687zM293.5 137.8c-26.3 0-47.8-21.4-47.8-47.8s21.4-47.8 47.8-47.8 47.8 21.4 47.8 47.8c0 26.3-21.4 47.8-47.8 47.8zm0-109.3c-33.9 0-61.4 27.6-61.4 61.4 0 33.9 27.6 61.4 61.4 61.4 33.9 0 61.4-27.6 61.4-61.4.1-33.8-27.5-61.4-61.4-61.4z"/><path d="M227.247 139.786l34.153-34.153 9.687 9.688-34.153 34.154zM293.5 96.8c-3.8 0-6.8-3.1-6.8-6.8s3.1-6.8 6.8-6.8c3.8 0 6.8 3.1 6.8 6.8s-3 6.8-6.8 6.8zm0-27.3c-11.3 0-20.5 9.2-20.5 20.5s9.2 20.5 20.5 20.5S314 101.3 314 90s-9.2-20.5-20.5-20.5zm22.53-4.843l34.153-34.153 9.688 9.687-34.152 34.154zm.034 50.61l9.69-9.685 34.148 34.162-9.69 9.686zM227.238 40.21l9.688-9.686 34.153 34.153-9.69 9.687zM273.1 356.2c-3.8 0-6.8-3.1-6.8-6.8 0-3.8 3.1-6.8 6.8-6.8 3.8 0 6.8 3.1 6.8 6.8 0 3.8-3.1 6.8-6.8 6.8zm0-27.3c-11.3 0-20.5 9.2-20.5 20.5s9.2 20.5 20.5 20.5 20.5-9.2 20.5-20.5c-.1-11.3-9.2-20.5-20.5-20.5zm-68.3 27.3c-3.8 0-6.8-3.1-6.8-6.8 0-3.8 3.1-6.8 6.8-6.8 3.8 0 6.8 3.1 6.8 6.8 0 3.8-3 6.8-6.8 6.8zm0-27.3c-11.3 0-20.5 9.2-20.5 20.5s9.2 20.5 20.5 20.5 20.5-9.2 20.5-20.5-9.2-20.5-20.5-20.5zm136.5 27.3c-3.8 0-6.8-3.1-6.8-6.8 0-3.8 3.1-6.8 6.8-6.8 3.8 0 6.8 3.1 6.8 6.8.1 3.8-3 6.8-6.8 6.8zm0-27.3c-11.3 0-20.5 9.2-20.5 20.5s9.2 20.5 20.5 20.5 20.5-9.2 20.5-20.5-9.2-20.5-20.5-20.5zm-273 27.3c-3.8 0-6.8-3.1-6.8-6.8 0-3.8 3.1-6.8 6.8-6.8 3.8 0 6.8 3.1 6.8 6.8 0 3.8-3.1 6.8-6.8 6.8zm0-27.3c-11.3 0-20.5 9.2-20.5 20.5s9.2 20.5 20.5 20.5 20.5-9.2 20.5-20.5c-.1-11.3-9.2-20.5-20.5-20.5zm68.2 27.3c-3.8 0-6.8-3.1-6.8-6.8 0-3.8 3.1-6.8 6.8-6.8 3.8 0 6.8 3.1 6.8 6.8.1 3.8-3 6.8-6.8 6.8zm0-27.3c-11.3 0-20.5 9.2-20.5 20.5s9.2 20.5 20.5 20.5 20.5-9.2 20.5-20.5-9.2-20.5-20.5-20.5zM6.8 301.6h395.9v13.7H6.8z"/></svg>