<svg xmlns="http://www.w3.org/2000/svg" xmlns:xlink="http://www.w3.org/1999/xlink" width="334" height="323" fill="#fff"><path d="M83.5 249.2c-9.8 0-17.7-7.9-17.7-17.7 0-9.8 7.9-17.7 17.7-17.7s17.7 7.9 17.7 17.7c0 9.7-7.9 17.7-17.7 17.7zm0-47.4c-16.4 0-29.7 13.3-29.7 29.7s13.3 29.7 29.7 29.7 29.7-13.3 29.7-29.7-13.3-29.7-29.7-29.7z"/><defs><path id="a" d="M.1 0H334v322.9H.1z"/></defs><clipPath id="b"><use xlink:href="#a" overflow="visible"/></clipPath><path clip-path="url(#b)" d="M141.4 249.2c-4.3 0-7.8-3.5-7.8-7.8s3.5-7.8 7.8-7.8 7.8 3.5 7.8 7.8-3.5 7.8-7.8 7.8zm0-27.7c-10.9 0-19.8 8.9-19.8 19.8s8.9 19.8 19.8 19.8 19.8-8.9 19.8-19.8c.1-10.9-8.8-19.8-19.8-19.8z"/><path clip-path="url(#b)" d="M322 241.3h-15.4v-72.7H322v72.7zm-74.5-7.4v-57.8h47.1V234h-47.1zM37.6 274.7V103.6c0-2.3 1.9-4.2 4.2-4.2h116.5c42.5 0 77.1 34.6 77.1 77.1v98.2H37.6zm218.4 19v15.8H17.1v-15.8c0-3.9 3.2-7.1 7.1-7.1h224.7c3.9.1 7.1 3.2 7.1 7.1zM12.6 12.5h129C127 26.6 107.3 34.8 86.7 34.8H40.3c-13.5 0-24.9-9.5-27.7-22.3zm37 34.3h30.2v40.5H49.6V46.8zM328 156.7h-27.4c-3.3 0-6 2.7-6 6v1.4h-48c-6.1-43.3-43.3-76.7-88.3-76.7H91.8V46.7c26.8-1.5 51.9-14.9 67.9-36.6 1.4-1.8 1.6-4.2.5-6.3-1-2-3.1-3.3-5.4-3.3H6c-3.3 0-6 2.7-6 6 0 21.3 16.7 38.8 37.6 40.2v41.2c-6.9 1.9-12 8.2-12 15.7v171.1h-1.4c-10.5 0-19.1 8.6-19.1 19.1v21.8c0 3.3 2.7 6 6 6H262c3.3 0 6-2.7 6-6v-21.8c0-10.5-8.6-19.1-19.1-19.1h-1.4v-28.8h47.1v1.4c0 3.3 2.7 6 6 6H328c3.3 0 6-2.7 6-6v-84.7c0-3.3-2.7-5.9-6-5.9z"/><path d="M96.1 171c3.3 0 6-2.7 6-6s-2.7-6-6-6h-39c-3.3 0-6 2.7-6 6s2.7 6 6 6h39zm-39-21.6h39c3.3 0 6-2.7 6-6s-2.7-6-6-6h-39c-3.3 0-6 2.7-6 6 0 3.4 2.7 6 6 6zm0-21.5h39c3.3 0 6-2.7 6-6s-2.7-6-6-6h-39c-3.3 0-6 2.7-6 6s2.7 6 6 6z"/></svg>