<svg xmlns="http://www.w3.org/2000/svg" xmlns:xlink="http://www.w3.org/1999/xlink" width="410" height="378" fill="#fff"><defs><path id="a" d="M.1 0H410v377.9H.1z"/></defs><clipPath id="b"><use xlink:href="#a" overflow="visible"/></clipPath><path clip-path="url(#b)" d="M369.3 303.3h26.9v26.9h-26.9v-26.9zM355.9 41.5v315.6c0 3.8-2.9 6.7-6.7 6.7h-26.9c-3.7 0-6.7-3-6.7-6.7V21.3c0-3.8 2.9-6.7 6.7-6.7h26.9c3.7 0 6.7 3 6.7 6.7v20.2zM282 48.2h20.1V75H282V48.2zm0 40.3h20.1v201.4H282V88.5zm0 214.8h20.1v26.9H282v-26.9zM268.6 41.5v315.6c0 3.8-2.9 6.7-6.7 6.7H235c-3.7 0-6.7-3-6.7-6.7V21.3c0-3.8 2.9-6.7 6.7-6.7h26.9c3.7 0 6.7 3 6.7 6.7v20.2zm-73.9 6.7h20.1V75h-20.1V48.2zm0 40.3h20.1v201.4h-20.1V88.5zm0 214.8h20.1v26.9h-20.1v-26.9zM181.3 41.5v315.6c0 3.8-2.9 6.7-6.7 6.7h-26.9c-3.7 0-6.7-3-6.7-6.7V21.3c0-3.8 2.9-6.7 6.7-6.7h26.9c3.7 0 6.7 3 6.7 6.7v20.2zm-73.9 6.7h20.1V75h-20.1V48.2zm0 40.3h20.1v201.4h-20.1V88.5zm0 214.8h20.1v26.9h-20.1v-26.9zM94 41.5v315.6c0 3.8-2.9 6.7-6.7 6.7H60.4c-3.7 0-6.7-3-6.7-6.7V21.3c0-3.8 2.9-6.7 6.7-6.7h26.9c3.7 0 6.7 3 6.7 6.7v20.2zm-80.6 6.7h26.9V75H13.4V48.2zm355.9 0h20.1V75h-20.1V48.2zm33.6 241.7h-33.6V88.5h26.9c3.7 0 6.7-3 6.7-6.7V41.5c0-3.7-3-6.7-6.7-6.7h-26.9V21.3c0-11.1-9-20.2-20.1-20.2h-26.9c-11.1 0-20.1 9-20.1 20.2v13.4H282V21.3c0-11.1-9-20.2-20.1-20.2H235c-11.1 0-20.1 9-20.1 20.2v13.4h-20.1V21.3c0-11.1-9-20.2-20.1-20.2h-26.9c-11.1 0-20.1 9-20.1 20.2v13.4h-20.1V21.3c0-11.1-9-20.2-20.1-20.2H60.4c-11.1 0-20.1 9-20.1 20.2v13.4H13.4V14.6H0v94h13.4V88.5h26.9v268.6c0 11.1 9 20.2 20.1 20.2h26.9c11.1 0 20.1-9 20.1-20.2v-13.4h20.1v13.4c0 11.1 9 20.2 20.1 20.2h26.9c11.1 0 20.1-9 20.1-20.2v-13.4h20.1v13.4c0 11.1 9 20.2 20.1 20.2h26.9c11.1 0 20.1-9 20.1-20.2v-13.4h20.1v13.4c0 11.1 9 20.2 20.1 20.2h26.9c11.1 0 20.1-9 20.1-20.2v-13.4h33.6c3.7 0 6.7-3 6.7-6.7v-40.3c.3-3.8-2.7-6.8-6.4-6.8z"/></svg>