<svg xmlns="http://www.w3.org/2000/svg" width="393" height="361"><path fill="#a8d2ff" d="M84.8 92.8H9.1C4.5 92.8.8 89 .8 84.5V8.8C.8 4.2 4.6.5 9.1.5h75.7c4.6 0 8.3 3.8 8.3 8.3v75.7c.1 4.6-3.7 8.3-8.3 8.3zM17.5 76.1h59v-59h-59v59zm367-21.1H124.9c-4.6 0-8.3-3.8-8.3-8.3 0-4.6 3.8-8.3 8.3-8.3h259.6c4.6 0 8.3 3.8 8.3 8.3 0 4.5-3.8 8.3-8.3 8.3zM84.8 226.4H9.1c-4.6 0-8.3-3.8-8.3-8.3v-75.7c0-4.6 3.8-8.3 8.3-8.3h75.7c4.6 0 8.3 3.8 8.3 8.3V218c.1 4.7-3.7 8.4-8.3 8.4zm-67.3-16.7h59v-59h-59v59zm367-21.2H124.9c-4.6 0-8.3-3.8-8.3-8.3 0-4.6 3.8-8.3 8.3-8.3h259.6c4.6 0 8.3 3.8 8.3 8.3 0 4.6-3.8 8.3-8.3 8.3zM84.8 360H9.1c-4.6 0-8.3-3.8-8.3-8.3V276c0-4.6 3.8-8.3 8.3-8.3h75.7c4.6 0 8.3 3.8 8.3 8.3v75.7c.1 4.5-3.7 8.3-8.3 8.3zm-67.3-16.8h59v-59h-59v59zm367-21.1H124.9c-4.6 0-8.3-3.8-8.3-8.3 0-4.6 3.8-8.3 8.3-8.3h259.6c4.6 0 8.3 3.8 8.3 8.3 0 4.6-3.8 8.3-8.3 8.3z"/></svg>