<svg xmlns="http://www.w3.org/2000/svg" xmlns:xlink="http://www.w3.org/1999/xlink" fill="#01579b" width="79" height="80"><path d="M39.4 47.6c4.4 0 8-3.6 8-8 0-1.7-.6-3.3-1.5-4.7-1.5-2-3.8-3.3-6.5-3.3s-5 1.3-6.5 3.3c-.9 1.3-1.5 2.9-1.5 4.7 0 4.5 3.5 8 8 8z"/><defs><path id="a" d="M0 0h79v80H0z"/></defs><clipPath id="b"><use xlink:href="#a" overflow="visible"/></clipPath><path clip-path="url(#b)" d="M56.4 29.8v-7.5h-1l-6.6.1v7.4z"/><path clip-path="url(#b)" d="M61.5 34.8v18.1c0 4.7-3.9 8.5-8.6 8.5H25.5c-4.8 0-8.6-3.8-8.6-8.5V25.8c0-4.7 3.9-8.5 8.6-8.5h27.4c4.8 0 8.6 3.8 8.6 8.5v9zM39.2.5C17.5.5-.1 17.9-.1 39.3s17.6 38.8 39.3 38.8c21.7 0 39.3-17.4 39.3-38.8S60.9.5 39.2.5z"/><path d="M51.1 40c0 6.6-5.3 11.9-11.9 11.9-6.6 0-11.9-5.3-11.9-11.9 0-1.6.3-3.1.9-4.5h-6.5v17.8c0 2.3 1.9 4.2 4.2 4.2h26.7c2.3 0 4.2-1.9 4.2-4.2V35.5h-6.5c.4 1.4.8 2.9.8 4.5z"/></svg>