<svg xmlns="http://www.w3.org/2000/svg" width="384" height="218" fill="#fff"><path d="M371.2 205H13.9c2.7-7.7 10-12.8 18.1-12.8h339.2V205zM46.5 171.2c24.8-50 75.8-81.6 131.6-81.4h95.6l19.2 89.6H42.4l4.1-8.2zM224 70.6h12.8c3.5 0 6.4 2.9 6.4 6.4h-25.6c0-3.5 2.9-6.4 6.4-6.4zm33.5-44.8h-124c-3 0-5.5-2.5-5.5-5.5v-1.8c0-3 2.5-5.5 5.5-5.5h185c9 .1 16.8 6.4 18.8 15.2l32.4 151.2H306L276.3 41c-1.9-8.8-9.7-15.2-18.8-15.2zm126.4 159.3v-.6l-34-159C346.7 10.8 333.7.3 318.6.2h-185c-10.1 0-18.3 8.2-18.3 18.3v1.8c0 10.1 8.2 18.3 18.3 18.3h124c3 0 5.6 2.1 6.3 5.1L271 77h-15c0-10.6-8.6-19.2-19.2-19.2H224c-10.6 0-19.2 8.6-19.2 19.2h-26.7c-60.6-.2-116.1 34.1-143 88.5l-7.2 14.4C12 181.9.1 195.4 0 211.4c0 3.5 2.9 6.4 6.4 6.4h371.2c3.5 0 6.4-2.9 6.4-6.4v-25.6c0-.3-.1-.5-.1-.7z"/><path d="M178.1 102.6c-42.4-.3-82.3 19.7-107.5 53.8-2.1 2.8-1.6 6.8 1.3 9 2.8 2.1 6.8 1.5 9-1.3 22.8-30.8 58.9-48.9 97.3-48.6 3.5 0 6.4-2.9 6.4-6.4s-3-6.5-6.5-6.5z"/></svg>