<svg xmlns="http://www.w3.org/2000/svg" xmlns:xlink="http://www.w3.org/1999/xlink" width="150" height="189.5" fill="#a8d2ff"><defs><path id="a" d="M0-.1h150v189.5H0z"/></defs><clipPath id="b"><use xlink:href="#a" overflow="visible"/></clipPath><path clip-path="url(#b)" d="M6.9 183.4V6.3h91.7v44.3h44.3v132.8H6.9zM105 10.7l33.5 33.5H105V10.7zM103.1-.1H.6v189.8h148.7V46.1L103.1-.1z"/><path d="M114.4 66.4H63.8c-1.7 0-3.2 1.4-3.2 3.2 0 1.7 1.4 3.1 3.2 3.1h50.6c1.7 0 3.2-1.4 3.2-3.1 0-1.8-1.4-3.2-3.2-3.2zm-62-8.8L38.8 68.4l-4.3-4.3c-1.2-1.2-3.2-1.2-4.5 0-1.2 1.2-1.2 3.2 0 4.5l6.3 6.3c.6.6 1.4.9 2.2.9.7 0 1.4-.2 2-.7l15.8-12.6c1.4-1.1 1.6-3.1.5-4.4-1.1-1.4-3.1-1.6-4.4-.5zm62 43.6H63.8c-1.7 0-3.2 1.4-3.2 3.1 0 1.8 1.4 3.2 3.2 3.2h50.6c1.7 0 3.2-1.4 3.2-3.2 0-1.7-1.4-3.1-3.2-3.1zm-62-8.8l-13.6 10.9-4.3-4.3c-1.2-1.2-3.2-1.2-4.5 0-1.2 1.2-1.2 3.2 0 4.5l6.3 6.3c.6.6 1.4.9 2.2.9.7 0 1.4-.2 2-.7l15.8-12.6c1.4-1.1 1.6-3.1.5-4.4-1.1-1.5-3.1-1.7-4.4-.6zm62 43.5H63.8c-1.7 0-3.2 1.4-3.2 3.2 0 1.7 1.4 3.2 3.2 3.2h50.6c1.7 0 3.2-1.4 3.2-3.2 0-1.7-1.4-3.2-3.2-3.2zm-62-8.7L38.8 138l-4.3-4.3c-1.2-1.2-3.2-1.2-4.5 0-1.2 1.2-1.2 3.2 0 4.5l6.3 6.3c.6.6 1.4.9 2.2.9.7 0 1.4-.2 2-.7l15.8-12.6c1.4-1.1 1.6-3.1.5-4.4-1.1-1.4-3.1-1.6-4.4-.5z"/></svg>