<svg xmlns="http://www.w3.org/2000/svg" xmlns:xlink="http://www.w3.org/1999/xlink" width="79" height="80"><defs><path id="a" d="M0 0h79v80H0z"/></defs><clipPath id="b"><use xlink:href="#a" overflow="visible"/></clipPath><path clip-path="url(#b)" fill="#010002" d="M59.6 33.1h-.3l-10.7 6.5c-.1 0-.2.1-.2.2-.1.1 0 .1.1.2l10.7 11.7.2.2h.2c.2-.2.2-.3.2-.3V33.5c.1-.1 0-.2-.2-.4zm-14.2 8.7c-.1-.2-.2-.2-.4-.1l-4.3 2.6c-.5.3-1.1.3-1.7 0l-3.8-2.2c-.2-.1-.3-.1-.4 0L20.4 55.6c-.1.1-.1.2-.1.3 0 .1.1.1.2.2.3.1.5.2.6.2h37c.1 0 .2-.1.3-.2 0-.2 0-.3-.1-.4L45.4 41.8zm-13.7-1.3c.1-.1.1-.1.1-.2 0-.2-.1-.2-.2-.2l-11.3-6.5c-.2-.1-.3-.1-.4 0-.1 0-.2.1-.2.2V51c0 .2.1.3.2.3h.2c.1 0 .2 0 .2-.1l11.4-10.7zm26.8-17H21.1c-.4 0-.7.1-.9.4-.3.2-.4.6-.4 1v4.2c0 .2.1.3.2.3l19.7 11.3.2.1c.1 0 .2 0 .2-.1l19-11.3c.1-.1.2-.1.2-.1.1 0 .1 0 .2-.1.2 0 .3-.1.3-.3v-4.1c0-.4-.1-.8-.4-1-.2-.2-.5-.3-.9-.3zm-19 56.3c-3.6 0-7.1-.5-10.5-1.4-3.4-1-6.5-2.3-9.4-4-2.9-1.7-5.6-3.8-8-6.2-2.4-2.4-4.4-5.1-6.2-8.1-1.7-3-3-6.1-4-9.5-.9-3.5-1.4-7-1.4-10.7 0-3.7.5-7.2 1.4-10.6.9-3.4 2.3-6.6 4-9.5 1.7-3 3.8-5.6 6.2-8.1 2.4-2.4 5.1-4.5 8-6.2 2.9-1.7 6.1-3.1 9.4-4C32.4.5 35.9.1 39.5.1c5.4-.1 10.5 1 15.3 3.1 4.8 2.1 9 4.9 12.6 8.5 3.6 3.6 6.4 7.8 8.4 12.7 2.1 4.9 3.1 10 3.1 15.5 0 3.7-.5 7.2-1.4 10.6-.9 3.4-2.3 6.6-4 9.5-1.7 3-3.8 5.6-6.2 8.1s-5.1 4.5-8 6.2c-2.9 1.7-6.1 3.1-9.4 4-3.3 1-6.8 1.5-10.4 1.5z"/></svg>