<svg xmlns="http://www.w3.org/2000/svg" xmlns:xlink="http://www.w3.org/1999/xlink" width="410" height="411" fill="#fff"><defs><path id="a" d="M.1 0H410v411H.1z"/></defs><clipPath id="b"><use xlink:href="#a" overflow="visible"/></clipPath><circle clip-path="url(#b)" cx="172.8" cy="210" r="8"/><path clip-path="url(#b)" d="M393.6 354c0 4.4-3.6 8-8 8H24c-4.4 0-8-3.6-8-8v-64c0-4.4 3.6-8 8-8h361.6c4.4 0 8 3.6 8 8v64zm-44.9 40h-22.1l-8-16h38.1l-8 16zm-265.6 0H60.9l-8-16H91l-7.9 16zm33.7-144h176v16h-176v-16zm-32-40v-60.8h240V210c0 13.2-10.8 24-24 24h-192c-13.2 0-24-10.8-24-24zm0-161.6h240v84.8h-240V48.4zm80-24c0-4.4 3.6-8 8-8h64c4.4 0 8 3.6 8 8v8h-80v-8zM385.6 266h-76.8v-16.8c18.2-3.7 32-19.9 32-39.2v-60.8h8c4.4 0 8-3.6 8-8s-3.6-8-8-8h-8V48.4h8c4.4 0 8-3.6 8-8s-3.6-8-8-8h-88v-8c0-13.2-10.8-24-24-24h-64c-13.2 0-24 10.8-24 24v8h-88c-4.4 0-8 3.6-8 8s3.6 8 8 8h8v84.8h-8c-4.4 0-8 3.6-8 8s3.6 8 8 8h8V210c0 19.3 13.8 35.5 32 39.2V266H24c-13.2 0-24 10.8-24 24v64c0 13.2 10.8 24 24 24h11.1l13.8 27.6c1.4 2.7 4.1 4.4 7.2 4.4h32c3 0 5.8-1.7 7.2-4.4l13.8-27.6h191.7l13.8 27.6c1.4 2.7 4.1 4.4 7.2 4.4h32c3 0 5.8-1.7 7.2-4.4l13.8-27.6h11.1c13.2 0 24-10.8 24-24v-64c-.3-13.2-11.1-24-24.3-24z"/><path d="M321.6 330c-4.4 0-8-3.6-8-8s3.6-8 8-8 8 3.6 8 8-3.6 8-8 8zm0-32c-13.2 0-24 10.8-24 24s10.8 24 24 24 24-10.8 24-24-10.8-24-24-24zM88 330c-4.4 0-8-3.6-8-8s3.6-8 8-8 8 3.6 8 8-3.6 8-8 8zm0-32c-13.2 0-24 10.8-24 24s10.8 24 24 24 24-10.8 24-24-10.8-24-24-24zm164.8 16h-96c-4.4 0-8 3.6-8 8s3.6 8 8 8h96c4.4 0 8-3.6 8-8s-3.6-8-8-8zm-112-112h-24v-28.8c0-4.4-3.6-8-8-8s-8 3.6-8 8V210c0 4.4 3.6 8 8 8h32c4.4 0 8-3.6 8-8s-3.6-8-8-8z"/></svg>