<svg xmlns="http://www.w3.org/2000/svg" width="342" height="411" fill="#a8d2ff"><path d="M324.4 375.9c0 9.4-7.6 17.1-17.1 17.1h-256c-9.4 0-17.1-7.7-17.1-17.1v-34.1h8.5c4.7 0 8.5-3.8 8.5-8.5s-3.8-8.5-8.5-8.5h-8.5v-68.3h8.5c4.7 0 8.5-3.8 8.5-8.5s-3.8-8.5-8.5-8.5h-8.5v-68.3h8.5c4.7 0 8.5-3.8 8.5-8.5s-3.8-8.5-8.5-8.5h-8.5V85.7h8.5c4.7 0 8.5-3.8 8.5-8.5s-3.8-8.5-8.5-8.5h-8.5V34.5c0-9.4 7.7-17.1 17.1-17.1h256c9.4 0 17.1 7.7 17.1 17.1v341.4zM307.3.4h-256C32.5.4 17.2 15.7 17.2 34.5v34.1H8.7C4 68.6.2 72.4.2 77.1s3.8 8.5 8.5 8.5h8.5V154H8.7c-4.7 0-8.5 3.8-8.5 8.5S4 171 8.7 171h8.5v68.3H8.7c-4.7 0-8.5 3.8-8.5 8.5s3.8 8.5 8.5 8.5h8.5v68.3H8.7c-4.7 0-8.5 3.8-8.5 8.5s3.8 8.5 8.5 8.5h8.5v34.1c0 18.8 15.3 34.1 34.1 34.1h256c18.8 0 34.1-15.3 34.1-34.1V34.5C341.5 15.7 326.2.4 307.3.4z"/><path d="M273.2 271.6c0 1-.9 1.9-1.9 1.9-93.1 0-168.8-75.7-168.8-168.8 0-1 .9-1.9 1.9-1.9h36.5c1 0 1.9.9 1.9 1.9 0 13.7 2.1 27.1 6.3 39.8.2.5.2 1.3-1.3 2.9l-19 25.1c-2 2.6-2.3 6.1-.8 9 15.8 31.1 35 50.3 66.3 66.3 2.9 1.5 6.4 1.2 9-.8l26-19.8c.5-.5 1.2-.7 1.9-.4 12.8 4.2 26.2 6.4 39.9 6.4 1 0 1.9.9 1.9 1.9l.2 36.5zm-1.9-55.4c-11.9 0-23.5-1.9-34.5-5.5-6.8-2.3-14.4-.5-18.6 3.8l-20.8 15.7c-23.8-13-38.9-28.1-51.7-51.7l15-19.9c5.1-5.1 6.9-12.4 4.7-19.3-3.6-11.1-5.5-22.7-5.5-34.6 0-10.5-8.5-19-19-19h-36.5c-10.4 0-19 8.5-19 19 0 102.5 83.4 185.8 185.8 185.8 10.4 0 19-8.5 19-19v-36.4c.1-10.4-8.4-18.9-18.9-18.9z"/></svg>