<svg xmlns="http://www.w3.org/2000/svg" xmlns:xlink="http://www.w3.org/1999/xlink" width="346" height="384" fill="#fff"><defs><path id="a" d="M.1 0H346v383.9H.1z"/></defs><clipPath id="b"><use xlink:href="#a" overflow="visible"/></clipPath><path clip-path="url(#b)" d="M13 134.4h320v12.8H13v-12.8zm70.4 44.8V160h179.2v19.2c0 10.6-8.6 19.2-19.2 19.2H102.6c-10.6 0-19.2-8.6-19.2-19.2zM313.8 320H269v12.8h44.8v12.8h-32v12.8h32v6.4c0 3.5-2.9 6.4-6.4 6.4H38.6c-3.5 0-6.4-2.9-6.4-6.4V160h38.4v19.2c0 17.7 14.3 32 32 32h140.8c17.7 0 32-14.3 32-32V160h38.4v160zM115.4 38.4h115.2c45.9.1 83.1 37.3 83.2 83.2H32.2c.1-45.9 37.3-83.1 83.2-83.2zM173 12.8c3.5 0 6.4 2.9 6.4 6.4s-2.9 6.4-6.4 6.4-6.4-2.9-6.4-6.4 2.9-6.4 6.4-6.4zm166.4 108.8h-12.8c-.1-53-43-95.9-96-96H191c.8-2.1 1.2-4.2 1.2-6.4C192.2 8.6 183.6 0 173 0s-19.2 8.6-19.2 19.2c0 2.2.4 4.4 1.2 6.4h-39.6c-53 .1-95.9 43-96 96H6.6c-3.5 0-6.4 2.9-6.4 6.4v25.6c0 3.5 2.9 6.4 6.4 6.4h12.8v204.8c0 10.6 8.6 19.2 19.2 19.2h268.8c10.6 0 19.2-8.6 19.2-19.2V160h12.8c3.5 0 6.4-2.9 6.4-6.4V128c0-3.5-2.9-6.4-6.4-6.4z"/><path d="M48.2 100.5l12.2 3.8c7.5-24 29.8-40.4 55-40.3V51.2c-30.8-.1-58 19.9-67.2 49.3zM243.4 320h12.8v12.8h-12.8z"/></svg>