<svg xmlns="http://www.w3.org/2000/svg" fill="#fff" xmlns:xlink="http://www.w3.org/1999/xlink" width="44" height="47"><defs><path id="a" d="M.1 0H44v46.9H.1z"/></defs><clipPath id="b"><use xlink:href="#a" overflow="visible"/></clipPath><path clip-path="url(#b)" d="M18.4 5.2c7.5 0 13.6 6.1 13.6 13.6s-6.1 13.6-13.6 13.6S4.8 26.3 4.8 18.8 10.9 5.2 18.4 5.2zm24.9 36.7L32.5 30.7c2.8-3.3 4.3-7.5 4.3-11.8C36.8 8.8 28.5.5 18.4.5 8.3.4 0 8.7 0 18.8 0 29 8.3 37.2 18.4 37.2c3.8 0 7.4-1.1 10.5-3.3l10.9 11.4c.5.5 1.1.7 1.7.7.6 0 1.2-.2 1.7-.7 1-.9 1-2.4.1-3.4z"/></svg>