<svg xmlns="http://www.w3.org/2000/svg" fill="#a5d1ff" width="209" height="183"><path d="M189.8 61h-36.9V42.9h41.6L189.8 61zm-7.9 30.2h-29V73h33.7l-4.7 18.2zm-7.8 30.1h-21.2v-18.1h25.9l-4.7 18.1zm-67.8-78.4h34.6V61h-34.6V42.9zm0 30.1h34.6v18.1h-34.6V73zm0 30.2h34.6v18.1h-34.6v-18.1zM94.3 61H57.4l-4.7-18.1h41.6V61zm0 30.2h-29L60.6 73h33.7v18.2zm0 30.1H73.1l-4.7-18.1h25.9v18.1zM207 33.2c-1.1-1.5-2.9-2.3-4.7-2.3H49.6L42.9 5.3C42.2 2.7 39.8.8 37.1.8H6c-3.3 0-6 2.7-6 6s2.7 6 6 6h26.5l30.2 116c.7 2.6 3.1 4.5 5.8 4.5h110.3c2.7 0 5.1-1.8 5.8-4.5L208 38.4c.5-1.8.1-3.7-1-5.2zM84.4 170c-5.5 0-9.9-4.5-9.9-9.9 0-5.5 4.4-9.9 9.9-9.9s9.9 4.4 9.9 9.9-4.4 9.9-9.9 9.9zm0-31.8c-12.1 0-21.9 9.8-21.9 21.9 0 12.1 9.8 21.9 21.9 21.9 12.1 0 21.9-9.8 21.9-21.9 0-12.1-9.8-21.9-21.9-21.9zm78.4 31.8c-5.5 0-9.9-4.5-9.9-9.9 0-5.5 4.4-9.9 9.9-9.9s9.9 4.4 9.9 9.9-4.4 9.9-9.9 9.9zm0-31.8c-12.1 0-21.9 9.8-21.9 21.9 0 12.1 9.8 21.9 21.9 21.9 12.1 0 21.9-9.8 21.9-21.9 0-12.1-9.8-21.9-21.9-21.9z"/></svg>