<svg xmlns="http://www.w3.org/2000/svg" width="266" height="358" fill="#fff"><path d="M166.6 311.4h-66.4l8.1-48.5c8.1 1.6 16.5 2.4 25.1 2.4 8.6 0 17-.8 25.1-2.4l8.1 48.5zm20.9 24v9.6H79.3v-9.6c0-6.6 5.4-12 12-12h84.2c6.6 0 12 5.4 12 12zM12.9 136.8h20.5c.6 14.1 4.1 27.5 9.9 39.6-.6 2.6-1 5.2-1.1 7.9-.3 10.7 3.6 20.8 11.2 28.4.8.8 1.8 1.2 2.8 1.2 1 0 2-.4 2.8-1.2l6.4-6.4c16.9 15.6 39.2 25.5 63.8 26.5v20.6C66.1 251.2 15 200.1 12.9 136.8zM129.4 12.3v20.5c-14.1.6-27.5 4.1-39.6 9.9-2.6-.6-5.2-1-7.9-1.1-10.7-.4-20.8 3.6-28.4 11.2-.8.8-1.2 1.8-1.2 2.8 0 1.1.4 2.1 1.2 2.8l6.4 6.4C44.3 81.7 34.4 104 33.4 128.6H12.9C15 65.5 66.1 14.3 129.4 12.3zm124.5 116.5h-20.6c-.6-14.1-4.1-27.5-9.9-39.6.6-2.6 1-5.2 1.1-7.9.3-10.7-3.6-20.8-11.2-28.4-.8-.8-1.8-1.2-2.8-1.2-1.1 0-2.1.4-2.8 1.2l-6.4 6.4c-16.9-15.6-39.2-25.5-63.8-26.5V12.3c63.2 2 114.3 53.2 116.4 116.5zM87.3 184.5c11.3 10.1 26 16.5 42.1 17.5v22.7c-22.4-1-42.7-9.9-58.2-24.1l16.1-16.1zm-27.4 16.1l-3.4 3.4c-3.4-4.5-5.5-9.8-6.1-15.4 2.9 4.2 6.1 8.2 9.5 12zm-8-25c1.7-4.9 4.6-9.3 8.7-12.8l7.5-6.6c3 8.5 7.7 16.2 13.5 22.7L65.5 195c-5.2-5.9-9.8-12.4-13.6-19.4zm12.3-38.8c.2 3.7.7 7.3 1.5 10.8l-10.4 9.1a37.8 37.8 0 0 0-7.7 9.3c-3.6-9.1-5.7-19-6.1-29.3l22.7.1zm17.5-50.1c-10.1 11.3-16.5 26-17.5 42.1H41.5c1-22.4 9.9-42.7 24.1-58.1l16.1 16zM65.6 59.3l-3.4-3.4c4.5-3.5 9.8-5.5 15.4-6.1-4.3 2.9-8.3 6-12 9.5zm37.8.7l6.6 7.5c-8.5 3-16.2 7.7-22.7 13.5L71.2 65c5.8-5.3 12.3-9.9 19.4-13.6 4.9 1.6 9.3 4.5 12.8 8.6zm26 3.6c-3.7.2-7.3.7-10.8 1.5l-9.1-10.4a37.8 37.8 0 0 0-9.3-7.7c9.1-3.6 19-5.7 29.3-6.1v22.7zM179.5 81c-11.3-10.1-26-16.5-42.1-17.5V40.8c22.4 1 42.7 9.9 58.2 24.1L179.5 81zm27.4-16l3.4-3.4c3.4 4.5 5.5 9.8 6.1 15.4-2.9-4.3-6.1-8.3-9.5-12zm7.9 25c-1.7 4.9-4.6 9.3-8.7 12.8l-7.5 6.6c-3-8.5-7.7-16.2-13.5-22.7l16.1-16.1c5.3 5.8 9.9 12.3 13.6 19.4zm-12.2 38.8c-.2-3.7-.7-7.3-1.5-10.8l10.4-9.1c3.1-2.7 5.7-5.9 7.7-9.3 3.6 9.1 5.7 19 6.1 29.3h-22.7zm-17.5 50c10.1-11.3 16.5-26 17.5-42.1h22.7c-1 22.4-9.9 42.7-24.1 58.2l-16.1-16.1zm16.1 27.4l3.4 3.4c-4.5 3.4-9.8 5.5-15.4 6.1 4.3-2.8 8.3-6 12-9.5zm-37.8-.6l-6.6-7.5c8.5-3 16.2-7.7 22.7-13.5l16.1 16.1c-5.8 5.3-12.3 9.9-19.4 13.6-4.9-1.8-9.3-4.7-12.8-8.7zm-26-3.6c3.7-.2 7.3-.7 10.8-1.5l9.1 10.4c2.7 3.1 5.9 5.7 9.3 7.7-9.1 3.6-19 5.7-29.3 6.1V202zm-29.3-38.2c4.3 3.5 9.3 6.1 14.6 7.6l6.8 7.7V194c-13.9-.9-26.5-6.4-36.4-15.1l15-15.1zm-14.7-29.9c.2 8.9 3.4 17.4 9 24.2l-15.1 15.1a62.36 62.36 0 0 1-12.7-22.8l18.8-16.5zM78 136.8l-5.3 4.7c-.2-1.5-.4-3.1-.5-4.7H78zm24.4-29.4c-3.5 4.3-6.1 9.3-7.6 14.6l-7.7 6.8H72.2c.9-13.9 6.4-26.5 15.1-36.4l15.1 15zm29.8-14.6c-8.9.2-17.3 3.4-24.2 9L93 86.7c6.5-5.7 14.3-10.1 22.8-12.7l16.4 18.8zm-2.8-15.4l-4.7-5.3c1.5-.2 3.1-.4 4.7-.5v5.8zm29.3 24.4c-4.3-3.5-9.3-6.1-14.6-7.6l-6.8-7.7V71.6c13.9.9 26.5 6.4 36.4 15.1l-15 15.1zm14.7 29.8c-.2-8.6-3.2-17.2-9-24.2l15.1-15.1c5.7 6.5 10.1 14.3 12.7 22.8l-18.8 16.5zm15.4-2.8l5.3-4.7c.2 1.5.4 3.1.5 4.7h-5.8zm-24.4 29.3c3.6-4.4 6.1-9.3 7.5-14.5l7.7-6.8h14.9c-.9 13.9-6.4 26.5-15.1 36.4l-15-15.1zm-29.9 14.7c8.9-.2 17.3-3.4 24.2-9l15.1 15.1a62.36 62.36 0 0 1-22.8 12.7l-16.5-18.8zm7.6 20.6c-1.5.2-3.1.4-4.7.5v-5.8l4.7 5.3zm-40.7-60.6c0-8.6 3.3-16.6 9.4-22.6 6.1-6.1 14.1-9.4 22.6-9.4 8.6 0 16.6 3.3 22.6 9.4 12.5 12.5 12.5 32.8 0 45.3-6 6.1-14.1 9.4-22.6 9.4-8.6 0-16.6-3.3-22.6-9.4-6.1-6.1-9.4-14.2-9.4-22.7zm36 120.5v-20.6c14.1-.6 27.5-4.1 39.6-9.9 2.6.6 5.2 1 7.9 1.1h1.3c10.2 0 19.8-4 27.1-11.2 1.6-1.6 1.6-4.1 0-5.7l-6.4-6.4c15.6-16.9 25.5-39.2 26.5-63.8H254c-2.2 63.3-53.3 114.4-116.6 116.5zM266 132.8C266 59.7 206.5.2 133.4.2S.8 59.7.8 132.8c0 60.3 40.5 111.4 95.8 127.4L88 311.6c-11.7 1.6-20.7 11.7-20.7 23.8V351c0 3.3 2.7 6 6 6h120.1c3.3 0 6-2.7 6-6v-15.6c0-12.1-9-22.1-20.7-23.8l-8.6-51.5c55.3-16 95.9-67 95.9-127.3z"/><path d="M143 289.4c0 5.3-4.3 9.6-9.6 9.6s-9.6-4.3-9.6-9.6 4.3-9.6 9.6-9.6 9.6 4.3 9.6 9.6zm-27.2 0c0 9.7 7.9 17.6 17.6 17.6 9.7 0 17.6-7.9 17.6-17.6 0-9.7-7.9-17.6-17.6-17.6-9.7 0-17.6 7.9-17.6 17.6z"/></svg>