<svg xmlns="http://www.w3.org/2000/svg" xmlns:xlink="http://www.w3.org/1999/xlink" width="410" height="411"><defs><path id="a" d="M.1 0H410v411H.1z"/></defs><clipPath id="b"><use xlink:href="#a" overflow="visible"/></clipPath><circle clip-path="url(#b)" fill="#6F3FAA" cx="204.8" cy="205.2" r="204.8"/><path fill="#512D84" d="M293.6 112.8c-49.8-12-99.8-26.1-150.9-8.2-33.1 12.4-33.1 48.3-31.7 78.6 0 8.3-9.7 19.3-5.5 29 8.3 27.6 15.2 55.2 44.1 69 4.1 2.8 0 8.3 2.8 12.4-1.4 0-4.1 1.4-4.1 2.8 0 6.6 3 16.7 1 23.2l88 88c90.5-14.4 161.2-88.1 171.1-179.9L293.6 112.8z"/><path fill="#FFF" d="M293.3 233c-3.7 14.4-22.4 32.4-37.3 35.7-19.5 3.7-39.1 5.3-58.7 4.7-.4 0-.8.1-1 .4-2.8 2.9-18.3 18.8-18.3 18.8l-19.4 19.9c-1.4 1.5-3.9.5-3.9-1.6V270c0-.7-.5-1.2-1.1-1.4-14.9-3.3-33.6-21.3-37.3-35.7-6.1-27.9-6.1-56.2 0-84.2 3.7-14.4 22.4-32.4 37.3-35.7 34-6.5 68.5-6.5 102.6 0 14.9 3.3 33.6 21.3 37.3 35.7 5.9 28 5.9 56.4-.2 84.3zm19.8-88.7l-.1-.3c-5.5-22.1-30.1-45.9-52.8-50.8l-.3-.1c-36.6-7-73.8-7-110.4 0l-.3.1c-22.6 4.9-47.3 28.7-52.8 50.8l-.1.3c-6.8 30.9-6.8 62.2 0 93.1l.1.3c5.2 21.2 28.1 43.8 49.9 50.1v24.7c0 8.9 10.9 13.3 17.1 6.9l25-26c5.4.3 10.9.5 16.3.5 18.4 0 36.9-1.7 55.2-5.2l.3-.1c22.7-4.9 47.3-28.7 52.8-50.8l.1-.3c6.8-30.9 6.8-62.3 0-93.2z"/><path fill="#FFF" d="M237.2 251.9c-2.3-.7-4.5-1.2-6.5-2-21-8.7-40.3-19.9-55.6-37.2-8.7-9.8-15.5-20.8-21.3-32.5-2.7-5.5-5-11.3-7.4-17-2.1-5.2 1-10.6 4.3-14.6 3.1-3.7 7.1-6.5 11.5-8.6 3.4-1.6 6.7-.7 9.2 2.2 5.3 6.2 10.2 12.7 14.2 19.9 2.4 4.4 1.8 9.8-2.7 12.8-1.1.7-2.1 1.6-3.1 2.4-.9.7-1.7 1.5-2.3 2.4-1.1 1.8-1.2 3.9-.4 5.9 5.5 15 14.7 26.7 29.8 33 2.4 1 4.8 2.2 7.6 1.9 4.7-.5 6.2-5.7 9.4-8.3 3.2-2.6 7.3-2.6 10.7-.5 3.4 2.2 6.8 4.5 10.1 6.9 3.3 2.3 6.5 4.6 9.5 7.2 2.9 2.5 3.9 5.9 2.3 9.3-3 6.3-7.3 11.6-13.6 14.9-1.6.9-3.7 1.2-5.7 1.9-2.3-.7 2-.7 0 0zm-32.3-119.2c27.4.8 50 19 54.8 46.1.8 4.6 1.1 9.4 1.5 14 .2 2-1 3.9-3.1 3.9-2.2 0-3.2-1.8-3.3-3.8-.3-3.9-.5-7.8-1-11.7-2.8-20.4-19.1-37.4-39.5-41-3.1-.5-6.2-.7-9.3-1-2-.2-4.5-.3-5-2.8-.4-2 1.4-3.7 3.3-3.8.5.1 1 .1 1.6.1 27.4.8-.6 0 0 0z"/><path fill="#FFF" d="M246.6 186.8c0 .3-.1 1.1-.3 1.9-.7 2.8-4.9 3.1-5.9.3-.3-.8-.3-1.8-.3-2.6 0-5.8-1.3-11.6-4.2-16.7-3-5.2-7.6-9.6-13-12.2-3.3-1.6-6.8-2.6-10.4-3.2-1.6-.3-3.1-.4-4.7-.6-1.9-.3-2.9-1.5-2.8-3.4.1-1.8 1.4-3 3.3-2.9 6.3.4 12.4 1.7 18 4.7 11.4 6 17.9 15.5 19.8 28.3.1.6.2 1.1.3 1.7 0 1.4.1 2.8.2 4.7-.1.4-.1-1.9 0 0z"/><path fill="#FFF" d="M229.5 186.1c-2.3 0-3.5-1.2-3.8-3.3-.2-1.5-.3-3-.6-4.4-.7-2.8-2.2-5.4-4.6-7.1-1.1-.8-2.4-1.4-3.7-1.8-1.7-.5-3.4-.4-5.1-.8-1.8-.4-2.8-1.9-2.5-3.6.3-1.6 1.8-2.8 3.5-2.6 10.6.8 18.2 6.3 19.3 18.8.1.9.2 1.8 0 2.7-.4 1.4-1.5 2.1-2.5 2.1-2.3.1 1 0 0 0z"/><path fill="#D1D1D1" d="M313.1 144.3l-.1-.3c-3.1-12.4-12.2-25.3-23.6-35.1L274 122.6c9.2 7.3 17 17.4 19.2 26.2 6.1 27.9 6.1 56.2 0 84.2-3.7 14.4-22.4 32.4-37.3 35.7-19.5 3.7-39.1 5.3-58.7 4.7-.4 0-.8.1-1 .4-2.8 2.9-18.3 18.8-18.3 18.8l-19.4 19.9c-1.4 1.5-3.9.5-3.9-1.6V270c0-.7-.5-1.2-1.1-1.4-8.5-1.9-18.2-8.5-25.6-16.5l-15.2 13.5c9.5 10.3 21.8 18.7 33.7 22.1v24.7c0 8.9 10.9 13.3 17.1 6.9l25-26c5.4.3 10.9.5 16.3.5 18.4 0 36.9-1.7 55.2-5.2l.3-.1c22.7-4.9 47.3-28.7 52.8-50.8l.1-.3c6.7-30.8 6.7-62.2-.1-93.1z"/><path fill="#FFF" d="M237.2 251.9c2-.7-2.3-.7 0 0z"/><path fill="#D1D1D1" d="M254.3 225.7c-3-2.6-6.2-4.9-9.5-7.2-3.3-2.4-6.7-4.7-10.1-6.9-3.4-2.2-7.5-2.1-10.7.5-3.3 2.7-4.8 7.8-9.4 8.3-2.8.3-5.2-.8-7.6-1.9-9.3-3.9-16.3-9.8-21.7-17.2l-11.3 10c.4.4.8.9 1.1 1.3 15.3 17.2 34.6 28.4 55.6 37.2 2 .8 4.2 1.3 6.5 2-2.3-.7 2-.6 0 0 2-.6 4.1-.9 5.9-1.9 6.2-3.4 10.6-8.6 13.6-14.9 1.5-3.4.5-6.7-2.4-9.3z"/><path fill="#FFF" d="M204.9 132.7c1.5.1 26.3.8 0 0z"/><path fill="#D1D1D1" d="M244.2 149.1l-4.8 4.3c7.6 7.4 12.8 17.2 14.3 27.9.5 3.9.7 7.8 1 11.7.1 2 1.1 3.8 3.3 3.8 2.1 0 3.2-1.9 3.1-3.9-.4-4.7-.7-9.4-1.5-14-2-11.9-7.5-22.1-15.4-29.8zm1.8 31.3c-1.4-9.3-5.2-16.8-11.6-22.6l-4.8 4.3c2.5 2.2 4.6 4.8 6.3 7.7 2.9 5.1 4.2 10.9 4.2 16.7 0 .9 0 1.8.3 2.7 1 2.8 5.1 2.4 5.9-.3.2-.8.2-1.6.3-1.9 0 .3-.1-1.9 0 0-.1-1.9-.2-3.3-.3-4.7-.1-.8-.2-1.4-.3-1.9z"/><path fill="#FFF" d="M246.6 186.8c-.1-1.9-.1.4 0 0zm-17.1-.7h.1-.4.3zm0 0h-.3c-.5 0-1 .1.3 0zm.1 0h-.1.1z"/><path fill="#D1D1D1" d="M224.7 166.4l-4.9 4.3c.3.2.5.3.8.5 2.4 1.7 3.9 4.3 4.6 7.1.3 1.4.5 2.9.6 4.4.2 2 1.4 3.2 3.5 3.3h.4c1-.1 2-.8 2.3-2.2.2-.8.1-1.8 0-2.7-.6-6.9-3.3-11.7-7.3-14.7z"/></svg>