<svg xmlns="http://www.w3.org/2000/svg" width="385" height="386" fill="#fff"><path d="M339.2 135.4h32v115.2h-32V135.4zM268.8 161h57.6v64h-57.6v-64zM128 148.2h128v89.6H128v-89.6zm32-38.4h64v25.6h-64v-25.6zm-6.4-64c-.4 0-.9 0-1.3.1l-38.9 7.8c-7.9 1.6-15.6-3.6-17.2-11.4-1.6-7.9 3.6-15.6 11.5-17.2 1.9-.4 3.8-.4 5.7 0l38.9 7.8c.4.1.8.1 1.3.1h19.2v12.8h-19.2zm32 12.8h12.8V97h-12.8V58.6zm0-25.6h12.8v12.8h-12.8V33zm0-19.2h12.8v6.4h-12.8v-6.4zm-70.4 204.8h-32c-10.6 0-19.2 8.6-19.2 19.2v32H12.8v-32c0-38.9 31.5-70.4 70.4-70.4h32v51.2zm96-185.6h19.2c.4 0 .9 0 1.3-.1l38.9-7.8c7.9-1.6 15.6 3.6 17.2 11.4 1.6 7.9-3.6 15.6-11.5 17.2-1.9.4-3.8.4-5.7 0l-38.9-7.8c-.4-.1-.8-.1-1.3-.1h-19.2V33zm166.4 89.6h-44.8c-3.5 0-6.4 2.9-6.4 6.4v19.2h-57.6v-6.4c0-3.5-2.9-6.4-6.4-6.4h-25.6v-32c0-3.5-2.9-6.4-6.4-6.4h-19.2V58.6h18.6l38.3 7.7c14.8 3 29.3-6.7 32.2-21.5s-6.7-29.3-21.5-32.2c-3.5-.7-7.2-.7-10.7 0l-38.3 7.6h-18.6V7.4c0-3.5-2.9-6.4-6.4-6.4h-25.6c-3.5 0-6.4 2.9-6.4 6.4v12.8h-18.6L116 12.5c-14.8-3-29.3 6.6-32.3 21.5-3 14.8 6.6 29.3 21.5 32.3 1.8.4 3.6.5 5.4.5 1.8 0 3.6-.2 5.4-.5l38.3-7.6h18.6V97h-19.2c-3.5 0-6.4 2.9-6.4 6.4v32h-25.6c-3.5 0-6.4 2.9-6.4 6.4v12.8h-32C37.4 154.6.2 191.9.1 237.8v38.4c0 3.5 2.9 6.4 6.4 6.4h64c3.5 0 6.4-2.9 6.4-6.4v-38.4c0-3.5 2.9-6.4 6.4-6.4h32v12.8c0 3.5 2.9 6.4 6.4 6.4h140.8c3.5 0 6.4-2.9 6.4-6.4v-6.4h57.6V257c0 3.5 2.9 6.4 6.4 6.4h44.8c3.5 0 6.4-2.9 6.4-6.4V129c-.1-3.5-3-6.4-6.5-6.4zM55.3 363.1c-3.6 5.8-10 9.3-16.9 9.1-6.8.2-13.3-3.3-16.9-9.1-3-4.8-3.1-10.8-.3-15.8l17.2-32 17.2 32c2.8 4.9 2.6 11-.3 15.8zm11.6-21.9L44 298.8c-2-3.1-6.1-4-9.2-2.1-.8.5-1.5 1.2-2.1 2.1L9.9 341.2c-4.9 8.9-4.6 19.7.6 28.4 5.9 9.7 16.5 15.5 27.9 15.4 11.4.2 22-5.7 27.9-15.4 5.2-8.7 5.5-19.5.6-28.4z"/></svg>