<svg xmlns="http://www.w3.org/2000/svg" xmlns:xlink="http://www.w3.org/1999/xlink" fill="#fff" width="410" height="411" viewBox="0 0 410 411"><defs><path id="a" d="M.1 0H410v411H.1z"/></defs><clipPath id="b"><use xlink:href="#a" overflow="visible"/></clipPath><path clip-path="url(#b)" d="M352.1 347.5c-.2.1 37.1-38.4 0 0z"/><path clip-path="url(#b)" d="M372.3 214.9c2.5-5.9 2.6-12.7.1-18.6h25c.1 3 .2 5.9.2 8.9 0 3.3-.1 6.5-.2 9.7h-25.1zm21.1 30.7h-49.6c3.5-4.6 5.2-10.4 4.8-16.1 4.3.3 8.7-.6 12.5-2.5h35.4c-.8 6.2-1.8 12.4-3.1 18.6zm-9.3 30.6H210.8v-18.6h179.6c-1.8 6.3-3.9 12.5-6.3 18.6zm-15.4 30.7h-123c-6.9-5.7-16.5-7-24.7-3.6l-10.2-10.2v-4.8h168.1c-3.1 6.3-6.5 12.5-10.2 18.6zM345 337.5h-93.8c3.3-5.7 4.1-12.4 2.3-18.6h107c-4.7 6.5-9.9 12.7-15.5 18.6zm-37.1 30.7h-86.2c5-5 7.5-11.8 7.1-18.6h103.8c-7.8 6.8-16 13.1-24.7 18.6zm-97.1 29.7v-17.7H286c-23.4 10.8-48.8 16.9-75.2 17.7zm-13.5-37.4c-4.9-4-6-10.9-2.5-16.1 1.6-2.4 1.3-5.6-.7-7.6l-17.3-17.3 21.7-21.7 2.1 2.1 15.2 15.2c2.1 2.1 5.4 2.3 7.8.6 5.1-3.7 12.3-2.7 16.3 2.2 3.7 4.5 3.5 11.2-.3 15.5-3.2 3.7-8.3 5-13 3.4-2.9-1-6.2-.2-8.4 1.9-2.2 2.2-3 5.5-1.9 8.4 1.6 4.6.2 9.7-3.4 12.9-4.5 3.9-11.1 4.1-15.6.5zm1.5 37.4c-26.4-.8-51.8-6.9-75.1-17.7h75.1v17.7zM77 349.5h103.8c-.4 6.8 2 13.6 7.1 18.6h-86.2c-8.7-5.4-16.9-11.7-24.7-18.6zm-27.9-30.6h109.8c1.8 1.5 3.5 3.1 5.2 4.8l13.8 13.8H64.6c-5.6-5.9-10.8-12.1-15.5-18.6zm-18.4-30.7h40.9c10.6 6.9 23 10.8 35.9 11 11.4.2 22.4 2.8 32.7 7.6H40.9c-3.7-6-7.1-12.2-10.2-18.6zm-11.5-30.6h26.9c2.8 6.8 6.7 13.1 11.7 18.6H25.5c-2.4-6.1-4.5-12.3-6.3-18.6zm-6-30.7H41c-.1 2-.2 4-.1 6 .1 4.3.6 8.5 1.5 12.7H16.2c-1.3-6.2-2.3-12.4-3-18.7zM12 205.2c0-3 .1-5.9.2-8.9h38.2c-3.5 5.8-6 12.1-7.7 18.6H12.3c-.2-3.2-.3-6.4-.3-9.7zm4.1-39.6H91c-11.8 3.2-22.6 9.5-31.3 18.6H13.1c.7-6.2 1.7-12.4 3-18.6zm9-30.6h139.6c2.5 6.7 6 13 10.5 18.6H18.9c1.8-6.3 3.9-12.5 6.2-18.6zm15.3-30.6h120.5c-.3 2.8-.4 5.7-.3 8.6.1 3.4.4 6.7 1 10H30.3c3-6.4 6.4-12.6 10.1-18.6zm23.4-30.7h108c-3.8 5.8-6.7 12-8.6 18.6H48.5c4.7-6.4 9.8-12.7 15.3-18.6zm37.8-31.4c.9.5 1.9.8 3 .8h94.2v7.1c-6.1 2.9-11.7 6.8-16.8 11.5H76.1c8-7.2 16.5-13.7 25.5-19.4zm97.2-29.8V31h-76.9c23.8-11.3 49.9-17.7 76.9-18.5zm-19.7 233.1c-1.5-5.5-2.3-11.2-2.5-16.9 0-.6-.1-1.2-.1-1.7h22.3v18.6h-19.7zm4.3 12h15.4v18.6h-4c-4.7-5.8-8.5-12-11.4-18.6zm-35.1-65.9c10 10 15.8 23.3 16.3 37.4.3 8.2 1.8 16.3 4.3 24 0 .2.1.4.2.5 4.2 12.9 11.4 25 21 35.5L168.2 311c-17-15.1-38.2-23.5-60.4-23.9-14.1-.2-27.4-5.7-37.6-15.4-6.5-6.2-11.3-13.7-14.2-22-.1-.2-.1-.4-.2-.6-1.8-5.3-2.8-10.9-2.9-16.7-.1-3.7.2-7.4.8-11v-.1c1.9-10.8 6.8-20.8 14.5-28.9 10.5-11 24.7-17.2 39.9-17.4h.7c14.9.3 28.9 6.1 39.5 16.7zm50.5 4.6v18.6h-24.1c-1.6-6.6-4.2-12.8-7.7-18.6h31.8zm0-23.8v11.8h-41c-.3-.4-.7-.7-1-1.1-8.6-8.6-19-14.5-30.3-17.6h61.1c3.5 2.7 7.2 5 11.2 6.9zM207 59.7c.1 0 .2-.1.3-.1 6.4-2.6 13.3-4.1 20.5-4.1h.7c14.9 0 29 5.8 39.6 16.4 10 10 15.8 23.3 16.3 37.4.3 7.1 1.4 14.2 3.3 21 .1.3.1.5.2.7 4.1 14 11.5 27.1 21.9 38.3l-21.9 21.9c-17-15.1-38.2-23.5-60.4-23.9-6.7-.1-13.2-1.4-19.3-3.8-.7-.4-1.4-.8-2.2-.9-5.9-2.6-11.3-6.2-16.1-10.7-7.2-6.8-12.3-15.3-15-24.6 0-.1 0-.1-.1-.2-1.3-4.6-2.1-9.5-2.2-14.4-.1-4.4.3-8.8 1.2-13 0-.1 0-.2.1-.3 2.1-10 6.9-19.1 14.1-26.6 5.4-5.8 11.9-10.2 19-13.1zm3.8-16.6H305c1.1 0 2.1-.3 3-.8 9 5.7 17.5 12.2 25.6 19.4h-58.8c-12.8-12-29.5-18.5-47.2-18.3-5.8.1-11.4.8-16.8 2.3v-2.6zm0-30.6c27 .8 53.1 7.2 76.9 18.5h-76.9V12.5zm150.3 79.8h-67.5c-1.9-6.6-4.8-12.9-8.7-18.6h60.8c5.6 5.9 10.7 12.2 15.4 18.6zm18.2 30.7h-81.1c-1.1-4.7-1.7-9.4-1.9-14.2-.1-1.5-.2-2.9-.3-4.4h73.2c3.7 6 7.1 12.2 10.1 18.6zm11.4 30.6h-78.2c-4.3-5.8-7.8-12.1-10.4-18.6h82.5c2.2 6.1 4.3 12.3 6.1 18.6zm-89.9 73.3c-1.2 6.5.4 13.2 4.4 18.6h-94.5v-18.6h90.1zm-90-42.6V177c5.3 1.4 10.8 2.2 16.4 2.3 9.1.2 17.9 1.9 26.4 5h-42.8zm64.4 12c3 2.3 5.8 4.8 8.5 7.5l11.2 11.2h-84.1v-18.6h64.4zm60.7 30.9c1.6 4.6.2 9.7-3.4 13-4.3 3.8-11 4-15.4.4-4.9-4-6-10.9-2.5-16.1.6-1 1-2.1 1-3.1v-.4c0-2.1-1.1-3.9-2.7-5l-16.4-16.4 21.7-21.7 17.3 17.3c2.1 2.1 5.4 2.3 7.7.6 5.1-3.7 12.3-2.7 16.3 2.2 3.7 4.5 3.6 11.2-.3 15.5-3.2 3.7-8.3 5-12.9 3.4-2.9-1-6.3-.2-8.4 1.9-2.3 2.2-3 5.5-2 8.4zm60.6-42.9h-35c-6.4-3.4-14-3.8-20.7-.9L323 165.6h70.5c1.3 6.2 2.3 12.4 3 18.7zM352.7 63.5c-1-1.1-2-2.1-3.1-3.2-38.7-38.7-90.1-60-144.8-60S98.7 21.7 60 60.4c-1 1-2.1 2.1-3.1 3.2C24.2 97.7 4.6 141.2.7 187.9c-.3.8-.7 12.8-.7 17.3C0 259.9 21.3 311.3 60 350c38.7 38.7 90.1 60 144.8 60s106.1-21.3 144.8-60l2.1-2.1.4-.4c37.1-38.4 57.5-88.8 57.5-142.3 0-53.2-20.2-103.4-56.9-141.7z"/></svg>