<svg version="1.1" xmlns="http://www.w3.org/2000/svg" x="0" y="0" width="300" height="400" fill="#fff" viewBox="0 0 300 400" xml:space="preserve"><path d="M106 158.2H78.2c-3.8 0-6.9 3.1-6.9 6.9 0 3.8 3.1 6.9 6.9 6.9H106c3.8 0 6.9-3.1 6.9-6.9 0-3.8-3.1-6.9-6.9-6.9zM78.2 199.8h13.9c3.8 0 6.9-3.1 6.9-6.9 0-3.8-3.1-6.9-6.9-6.9H78.2c-3.8 0-6.9 3.1-6.9 6.9 0 3.8 3.1 6.9 6.9 6.9zM106 269.2H78.2c-3.8 0-6.9 3.1-6.9 6.9 0 3.8 3.1 6.9 6.9 6.9H106c3.8 0 6.9-3.1 6.9-6.9 0-3.8-3.1-6.9-6.9-6.9zM106 213.7H78.2c-3.8 0-6.9 3.1-6.9 6.9 0 3.8 3.1 6.9 6.9 6.9H106c3.8 0 6.9-3.1 6.9-6.9 0-3.8-3.1-6.9-6.9-6.9zM78.2 255.3h13.9c3.8 0 6.9-3.1 6.9-6.9 0-3.8-3.1-6.9-6.9-6.9H78.2c-3.8 0-6.9 3.1-6.9 6.9 0 3.8 3.1 6.9 6.9 6.9z"/><path d="M286.3 255.3c0 3.8-3.1 6.9-6.9 6.9h-46l22.2-145.6h23.8c3.8 0 6.9 3.1 6.9 6.9v131.8zm-67.1 8l-2 12.8h.1l-1.3 8.8c-.8 14.5-12.9 25.9-27.4 25.9H80.3c-9.9 0-18.6-7.1-20.4-16.2L43.3 135l-28-42.2c-2.1-3.1-1-6.1-.3-7.2.6-1.1 2.4-3.7 6.2-3.7h206.4c4.4 0 8.5 1.8 11.5 4.9 3 3.2 4.5 7.4 4.4 11.2l-24.3 165.3zm11.6 61.4c3.8 0 6.9 3.1 6.9 6.9v55.5h-208v-55.5c0-3.8 3.1-6.9 6.9-6.9h194.2zM50.5 54.1c0-3.8 3.1-6.9 6.9-6.9H210c3.8 0 6.9 3.1 6.9 6.9V68H50.5V54.1zm34.7-34.7c0-3.8 3.1-6.9 6.9-6.9h83.3c3.8 0 6.9 3.1 6.9 6.9v13.9H85.2V19.4zm194.2 83.3h-22.7l.5-3.3c.5-8.3-2.4-16.1-8.1-22.1-4.9-5.2-11.3-8.2-18.3-9V54.1c0-11.4-9.3-20.8-20.8-20.8h-13.9V19.4c0-11.4-9.3-20.8-20.8-20.8H92.1C80.6-1.4 71.3 8 71.3 19.4v13.9H57.4c-11.5 0-20.8 9.3-20.8 20.8V68H21.1c-7.7 0-14.8 4.2-18.4 11-3.7 6.8-3.3 15.1 1 21.5l26.2 39.2 16.3 156.9c1 5.3 3.4 10 6.5 14.1h-16c-11.5 0-20.8 9.3-20.8 20.8V401h235.8v-69.4c0-11.4-9.3-20.8-20.8-20.8h-11.2c5.9-6.6 9.7-15.1 10.2-24.5l1.5-10.2h48.1c11.4 0 20.8-9.3 20.8-20.8V123.5c-.1-11.5-9.4-20.8-20.9-20.8z"/><path d="M67.8 366.3c-5.7 0-10.4-4.6-10.4-10.4 0-5.7 4.7-10.4 10.4-10.4 5.8 0 10.4 4.7 10.4 10.4s-4.6 10.4-10.4 10.4zm0-34.7c-13.4 0-24.3 10.9-24.3 24.3s10.9 24.3 24.3 24.3 24.3-10.9 24.3-24.3-10.9-24.3-24.3-24.3zM199.6 345.5c5.8 0 10.4 4.7 10.4 10.4 0 5.8-4.7 10.4-10.4 10.4s-10.4-4.6-10.4-10.4c0-5.8 4.7-10.4 10.4-10.4zm-24.2 10.4c0 13.4 10.9 24.3 24.2 24.3 13.4 0 24.3-10.9 24.3-24.3s-10.9-24.3-24.3-24.3-24.2 10.9-24.2 24.3zM119.8 331.6c-3.8 0-6.9 3.1-6.9 6.9v34.7c0 3.8 3.1 6.9 6.9 6.9 3.8 0 6.9-3.1 6.9-6.9v-34.7c.1-3.8-3-6.9-6.9-6.9zM147.6 331.6c-3.8 0-6.9 3.1-6.9 6.9v34.7c0 3.8 3.1 6.9 6.9 6.9 3.9 0 6.9-3.1 6.9-6.9v-34.7c0-3.8-3.1-6.9-6.9-6.9z"/></svg>