<svg xmlns="http://www.w3.org/2000/svg" fill="#fff" width="376" height="411" viewBox="0 0 376 411"><path d="M355.1 150.6h-88.7c-4.1 0-6.8-2.7-6.8-6.8s2.7-6.8 6.8-6.8h88.7c4.1 0 6.8 2.7 6.8 6.8s-2.8 6.8-6.8 6.8zm-47.8 191.1h-92.9c8.2-5.4 15.7-12.4 22.3-20.5h2.3c21.8 0 54.6-29.4 54.6-54.6 0-10.6-4.6-23.6-27.5-26.7.1-2.5.2-4.9.2-7.4 0-4.1-2.7-6.8-6.8-6.8H82c-4.1 0-6.8 2.7-6.8 6.8 0 47.4 21.2 88.8 51.9 109.2H34.2V109.6h68.3v34.8c0 13.8 8.5 25.7 20.5 30.8v12.9c0 9.6 7.5 17.1 17.1 17.1h6.8c9.6 0 17.1-7.5 17.1-17.1v-10.2h13.7v10.2c0 9.6 7.5 17.1 17.1 17.1h6.8c9.6 0 17.1-7.5 17.1-17.1v-12.9c10.2-4.3 17.8-13.5 19.9-24.7h8.5c2.7 8.1 10.2 13.7 19.4 13.7h41v177.5zm-54.9-98.2c-.3.6-.4 1.3-.4 2-2.1 24.6-10.2 47.1-23.2 64.2-.2.2-.3.5-.4.7-14.8 19.4-35.1 31.4-57.6 31.4-43.7 0-79.2-45.1-81.9-102.4h163.8c-.1 1.3-.2 2.7-.3 4.1zm12.5 10.2c15 2.7 15 9.6 15 13 0 14.3-17.8 32.8-32.1 38.9 9-15.8 14.4-32.8 17.1-51.9zM280 396.3H61.5c-23.9 0-43.7-17.8-47.1-41h312.7c-3.4 23.3-23.2 41-47.1 41zM102.5 14.1H239c46.4 0 84.7 36.2 88.7 81.9h-314c4.1-45.8 42.3-81.9 88.8-81.9zm34.1 163.8h13.7v10.2c0 2-1.4 3.4-3.4 3.4H140c-2 0-3.4-1.4-3.4-3.4v-10.2zm68.3-13.7H136c-10.9 0-19.8-8.9-19.8-19.8v-34.8h108.5v34.8c0 11-8.9 19.8-19.8 19.8zm-13.7 13.7h13.7v10.2c0 2-1.4 3.4-3.4 3.4h-6.8c-2.1 0-3.4-1.4-3.4-3.4v-10.2zm116.1-54.6h-41c-9.2 0-16.7 5.6-19.4 13.7H239v-27.3h68.3v13.6zm47.8 0H321v-13.7h13.7c4.1 0 6.8-2.7 6.8-6.8C341.4 46.1 295.7.4 239 .4H102.5C45.8.4.1 46.1.1 102.8c0 4.1 2.7 6.8 6.8 6.8h13.7v232.1H6.9c-4.1 0-6.8 2.7-6.8 6.8 0 34.1 27.3 61.4 61.4 61.4H280c34.1 0 61.4-27.3 61.4-61.4 0-4.1-2.7-6.8-6.8-6.8h-13.7V164.2H355c11.6 0 20.5-8.9 20.5-20.5 0-11.5-8.8-20.4-20.4-20.4z"/><path d="M266.3 369H75.2c-4.1 0-6.8 2.7-6.8 6.8s2.7 6.8 6.8 6.8h191.1c4.1 0 6.8-2.7 6.8-6.8 0-4-2.7-6.8-6.8-6.8zM116.1 41.4h109.2v27.3H116.1V41.4zm-6.8 40.9h122.9c4.1 0 6.8-2.7 6.8-6.8v-41c0-4.1-2.7-6.8-6.8-6.8H109.3c-4.1 0-6.8 2.7-6.8 6.8v41c0 4.1 2.7 6.8 6.8 6.8z"/></svg>