<svg xmlns="http://www.w3.org/2000/svg" fill="#fff" xmlns:xlink="http://www.w3.org/1999/xlink" width="410" height="377" viewBox="0 0 410 377"><path d="M198.1 341c.1-7.2 4-14.4 11.5-21.6 10.5-9.7 15.8-20.4 16-31.6.1-11.4-5.2-22.5-15.9-32.9-2.7-2.6-7-2.6-9.7.1-2.6 2.7-2.6 7 .1 9.7 7.9 7.7 11.8 15.5 11.8 23-.1 7.3-4 14.6-11.7 21.8-10.3 9.8-15.6 20.3-15.8 31.3-.2 11.2 5.1 22.4 15.6 33.1 1.3 1.4 3.1 2 4.9 2 1.7 0 3.5-.7 4.8-2 2.7-2.6 2.7-7 .1-9.7-7.9-7.9-11.8-15.7-11.7-23.2zM273.1 341c.1-7.2 4-14.4 11.5-21.6 10.5-9.8 15.9-20.5 16.1-31.7.1-11.4-5.2-22.4-15.8-32.8-2.7-2.6-7-2.6-9.7.1-2.6 2.7-2.6 7 .1 9.7 7.8 7.7 11.8 15.4 11.7 22.9-.1 7.3-4 14.7-11.8 21.9-10.3 9.8-15.6 20.3-15.8 31.3-.2 11.2 5.1 22.4 15.6 33.1 1.3 1.4 3.1 2 4.9 2 1.7 0 3.5-.7 4.8-2 2.7-2.7 2.7-7 .1-9.7-7.9-7.9-11.9-15.7-11.7-23.2zM122.9 341c.1-7.2 4-14.4 11.5-21.6 10.5-9.8 15.9-20.5 16.1-31.7.1-11.4-5.2-22.4-15.8-32.8-2.7-2.6-7-2.6-9.7.1-2.6 2.7-2.6 7 .1 9.7 7.8 7.7 11.8 15.4 11.7 22.9-.1 7.3-4 14.7-11.8 21.9-10.3 9.8-15.6 20.3-15.8 31.3-.2 11.2 5.1 22.4 15.6 33.1 1.3 1.4 3.1 2 4.9 2 1.7 0 3.5-.7 4.8-2 2.7-2.7 2.7-7 .1-9.7-7.9-7.9-11.8-15.7-11.7-23.2zM54.6 41.4h41v13.7h-41V41.4zm47.8-13.6H47.8c-3.8 0-6.8 3.1-6.8 6.8v27.3c0 3.8 3.1 6.8 6.8 6.8h54.6c3.8 0 6.8-3.1 6.8-6.8V34.6c0-3.8-3-6.8-6.8-6.8zM368.6 41.4h-6.8c-3.8 0-6.8 3.1-6.8 6.8 0 3.8 3.1 6.8 6.8 6.8h6.8c3.8 0 6.8-3.1 6.8-6.8.1-3.7-3-6.8-6.8-6.8zM334.5 41.4h-6.8c-3.8 0-6.8 3.1-6.8 6.8 0 3.8 3.1 6.8 6.8 6.8h6.8c3.8 0 6.8-3.1 6.8-6.8 0-3.7-3-6.8-6.8-6.8z"/><defs><path id="a" d="M.1 0H410v376.9H.1z"/></defs><clipPath id="b"><use xlink:href="#a" overflow="visible"/></clipPath><path clip-path="url(#b)" d="M300.4 41.4h-6.8c-3.8 0-6.8 3.1-6.8 6.8 0 3.8 3.1 6.8 6.8 6.8h6.8c3.8 0 6.8-3.1 6.8-6.8 0-3.7-3.1-6.8-6.8-6.8z"/><path clip-path="url(#b)" d="M395.9 82.4H13.7V34.6c0-11.3 9.2-20.5 20.5-20.5h341.3c11.3 0 20.5 9.2 20.5 20.5v47.8zM375.5.5H34.1C15.3.5 0 15.8 0 34.6v54.6C0 93 3.1 96 6.8 96h395.9c3.8 0 6.8-3.1 6.8-6.8V34.6c.1-18.8-15.2-34.1-34-34.1zM361.5 175.6l-9 33.3c-1.6 5.9-7 10-13.1 10H70.2c-6.1 0-11.5-4.1-13.1-10l-9-33.1c-.8-3.2-.1-6.6 1.7-9 .7-.9 2.3-2.5 4.6-2.5h300.7c2.3 0 3.9 1.6 4.6 2.5 1.9 2.3 2.6 5.8 1.8 8.8zm9-17.2c-3.8-4.9-9.4-7.7-15.3-7.7H54.4c-5.9 0-11.5 2.8-15.3 7.7-4.4 5.7-6 13.4-4.2 20.8l9 33.3c3.2 11.8 14 20.1 26.3 20.1h269.1c12.3 0 23.1-8.3 26.3-20.1l9.1-33.4c1.8-7.3.2-15.1-4.2-20.7z"/><path clip-path="url(#b)" d="M395.9 184.8c0 11.3-9.2 20.5-20.5 20.5h-7.8l7.1-26.3c1.8-7.2.2-15-4.2-20.6-3.8-4.9-9.4-7.7-15.3-7.7H54.4c-5.9 0-11.5 2.8-15.3 7.7-4.4 5.7-6 13.4-4.2 20.8l7.1 26.1h-7.9c-11.3 0-20.5-9.2-20.5-20.5V34.6c0-11.3 9.2-20.5 20.5-20.5h341.3c11.3 0 20.5 9.2 20.5 20.5v150.2zM375.5.5H34.1C15.3.5 0 15.8 0 34.6v150.2c0 18.8 15.3 34.1 34.1 34.1H51c2.2 0 4.3-1.1 5.6-2.9 1.3-1.8 1.6-4.1.9-6.2 0-.1-.3-.9-.4-.9l-9-33.1c-.8-3.2-.1-6.6 1.7-9 .7-.9 2.3-2.5 4.6-2.5h300.8c2.3 0 3.9 1.6 4.6 2.5 1.9 2.4 2.5 5.8 1.8 8.8l-9.1 33.5c0 .1-.2.6-.3.7-.8 2.1-.4 4.4.8 6.2 1.3 1.8 3.4 2.9 5.6 2.9h16.9c18.8 0 34.1-15.3 34.1-34.1V34.6c0-18.8-15.3-34.1-34.1-34.1z"/><path d="M364.2 184.8H45.3c-3.8 0-6.8 3.1-6.8 6.8 0 3.8 3.1 6.8 6.8 6.8h318.9c3.8 0 6.8-3.1 6.8-6.8.1-3.8-3-6.8-6.8-6.8zM157 27.8c-3.8 0-6.8 3.1-6.8 6.8v27.3c0 3.8 3.1 6.8 6.8 6.8 3.8 0 6.8-3.1 6.8-6.8V34.6c0-3.8-3-6.8-6.8-6.8zM184.3 27.8c-3.8 0-6.8 3.1-6.8 6.8v27.3c0 3.8 3.1 6.8 6.8 6.8 3.8 0 6.8-3.1 6.8-6.8V34.6c0-3.8-3-6.8-6.8-6.8zM211.6 27.8c-3.8 0-6.8 3.1-6.8 6.8v27.3c0 3.8 3.1 6.8 6.8 6.8 3.8 0 6.8-3.1 6.8-6.8V34.6c.1-3.8-3-6.8-6.8-6.8zM238.9 27.8c-3.8 0-6.8 3.1-6.8 6.8v27.3c0 3.8 3.1 6.8 6.8 6.8 3.8 0 6.8-3.1 6.8-6.8V34.6c.1-3.8-3-6.8-6.8-6.8z"/><path d="M252.6 41.4H143.4c-3.8 0-6.8 3.1-6.8 6.8 0 3.8 3.1 6.8 6.8 6.8h109.2c3.8 0 6.8-3.1 6.8-6.8 0-3.7-3-6.8-6.8-6.8z"/></svg>