<svg xmlns="http://www.w3.org/2000/svg" xmlns:xlink="http://www.w3.org/1999/xlink" width="496" height="496" viewBox="0 0 496 496"><defs><path id="a" d="M.1 0H496v496H.1z"/></defs><clipPath id="b"><use xlink:href="#a" overflow="visible"/></clipPath><path clip-path="url(#b)" fill="#000B10" d="M56 320h144v-64H56v64zm16-48h112v32H72v-32z"/><path clip-path="url(#b)" fill="#000B10" d="M472 368h-16.4c-4-36-34.6-64-71.6-64h-48c-37 0-67.6 28-71.6 64H256v-8c0-13.2-10.8-24-24-24v-96c13.2 0 24-10.8 24-24V104c0-13.2-10.8-24-24-24h-56V24c0-13.2-10.8-24-24-24h-48C90.8 0 80 10.8 80 24v56H24C10.8 80 0 90.8 0 104v112c0 13.2 10.8 24 24 24v96c-13.2 0-24 10.8-24 24v112c0 13.2 10.8 24 24 24h472V392c0-13.2-10.8-24-24-24M96 24c0-4.4 3.6-8 8-8h48c4.4 0 8 3.6 8 8v24H96V24zm0 40h64v16H96V64zM16 216V104c0-4.4 3.6-8 8-8h208c4.4 0 8 3.6 8 8v112c0 4.4-3.6 8-8 8H24c-4.4 0-8-3.6-8-8zm24 24h176v96H40v-96zm184 152v88H24c-4.4 0-8-3.6-8-8V360c0-4.4 3.6-8 8-8h208c4.4 0 8 3.6 8 8v9.5c-9.3 3.3-16 12.1-16 22.5zm16 40h16v48h-16v-48zm32 0h16v48h-16v-48zm32 0h16v48h-16v-48zm32 0h16v48h-16v-48zm32 0h16v48h-16v-48zm80 48h-16v-16h-16v16h-16v-48h16v16h16v-16h16v48zm16-48h16v48h-16v-48zm16-16H240v-24c0-4.4 3.6-8 8-8h32v-8c0-30.9 25.1-56 56-56h48c30.9 0 56 25.1 56 56v8h32c4.4 0 8 3.6 8 8v24z"/><path fill="#000B10" d="M384 336h-48c-22.1 0-40 17.9-40 40v8h128v-8c0-22.1-17.9-40-40-40m-70.6 32c3.3-9.3 12.2-16 22.6-16h48c10.4 0 19.3 6.7 22.6 16h-93.2zM32 184h16v16H32zM32 112h16v56H32z"/></svg>