<svg xmlns="http://www.w3.org/2000/svg" width="427" height="512" viewBox="0 0 427 512"><path fill="#080D0D" d="M416 0H10.7C4.8 0 0 4.8 0 10.7v480c0 5.9 4.8 10.7 10.7 10.7h10.7c0 5.9 4.8 10.7 10.7 10.7s10.7-4.8 10.7-10.7H384c0 5.9 4.8 10.7 10.7 10.7s10.7-4.8 10.7-10.7H416c5.9 0 10.7-4.8 10.7-10.7v-480C426.7 4.8 421.9 0 416 0m-53.3 21.3h42.7v64h-384v-64h341.3zm-224 96H288c5.9 0 10.7-4.8 10.7-10.7h106.7v330.7h-384V106.7H128c0 5.9 4.8 10.6 10.7 10.6zM21.3 458.7h384V480h-384v-21.3z"/><path fill="#080D0D" d="M330.7 53.3c0 17.7 14.3 32 32 32s32-14.3 32-32-14.3-32-32-32-32 14.4-32 32m22.8-5.3c1.8 3.2 5.3 5.3 9.2 5.3s7.4-2.1 9.2-5.3c.9 1.6 1.4 3.4 1.4 5.3 0 5.9-4.8 10.7-10.7 10.7S352 59.2 352 53.3c0-1.9.5-3.7 1.5-5.3zM53.3 64C59.2 64 64 59.2 64 53.3s-4.8-10.7-10.7-10.7c-5.9 0-10.7 4.8-10.7 10.7S47.5 64 53.3 64M96 64c5.9 0 10.7-4.8 10.7-10.7S101.9 42.7 96 42.7s-10.7 4.8-10.7 10.7S90.1 64 96 64M138.7 64c5.9 0 10.7-4.8 10.7-10.7s-4.8-10.7-10.7-10.7S128 47.4 128 53.3 132.8 64 138.7 64M149.3 416c58.9 0 106.7-47.8 106.7-106.7v-64c0-58.9-47.8-106.7-106.7-106.7-58.9 0-106.7 47.8-106.7 106.7v64C42.7 368.2 90.4 416 149.3 416m60.4-46.3c-16.1 16.1-37.5 25-60.3 25-22.8 0-44.2-8.9-60.3-25-16.1-16.1-25-37.5-25-60.3 0-22.8 8.9-44.2 25-60.4 16.1-16.1 37.5-25 60.3-25 22.8 0 44.2 8.9 60.3 25 16.1 16.1 25 37.5 25 60.4 0 22.7-8.9 44.2-25 60.3zm-131-140.3c3-4.4 6.4-8.5 10.3-12.4 16.1-16.1 37.5-25 60.3-25 22.8 0 44.2 8.9 60.3 25 3.8 3.9 7.3 8 10.3 12.4-18.8-16.6-43.5-26.7-70.6-26.7-27 0-51.8 10.1-70.6 26.7zm70.6-69.4c22.8 0 44.2 8.9 60.3 25 3.8 3.9 7.3 8 10.3 12.4-18.8-16.6-43.5-26.7-70.6-26.7-27.1 0-51.8 10.1-70.6 26.7 3-4.4 6.4-8.6 10.3-12.4 16.1-16.1 37.5-25 60.3-25z"/><path fill="#080D0D" d="M149.3 256c-29.4 0-53.3 23.9-53.3 53.3s23.9 53.3 53.3 53.3c29.5 0 53.3-23.9 53.3-53.3.1-29.4-23.8-53.3-53.3-53.3m0 85.3c-17.6 0-32-14.4-32-32 0-17.7 14.4-32 32-32 17.7 0 32 14.3 32 32s-14.3 32-32 32zM288 416h85.3L384 309.3h-5.3L384 256h-5.3l5.3-53.3h-5.3l5.3-53.3H277.3l5.3 53.3h-5.3l5.3 53.3h-5.3l5.3 53.3h-5.3L288 416m16.1-106.7l-3.2-32h59.5l-3.2 32h-53.1zm56.3-85.3l-3.2 32h-53.1l-3.2-32h59.5zM354 394.7h-46.7l-6.4-64h59.5l-6.4 64zm-53.1-224h59.5l-3.2 32h-53.1l-3.2-32z"/></svg>