<svg xmlns="http://www.w3.org/2000/svg" fill="#fff" xmlns:xlink="http://www.w3.org/1999/xlink" width="595" height="598" viewBox="0 0 595 598"><defs><path id="a" d="M0 1.5h595v594.9H0z"/></defs><clipPath id="b"><use xlink:href="#a" overflow="visible"/></clipPath><path clip-path="url(#b)" d="M357 21.3h218.2v99.2H357V21.3zm-337.2 119h555.3v436.3H19.8V140.3zm0-119h317.3v99.2H19.8V21.3zM585.1 1.5H9.9C4.4 1.5 0 5.9 0 11.4v575.2c0 5.5 4.4 9.9 9.9 9.9h575.2c5.5 0 9.9-4.4 9.9-9.9V11.4c0-5.5-4.4-9.9-9.9-9.9z"/><g><defs><path id="c" d="M0 1.5h595v595H0z"/></defs><clipPath id="d"><use xlink:href="#c" overflow="visible"/></clipPath><path clip-path="url(#d)" d="M99.2 61h158.7v19.8H99.2V61zm168.6-19.8H89.3c-5.5 0-9.9 4.4-9.9 9.9v39.7c0 5.5 4.4 9.9 9.9 9.9h178.5c5.5 0 9.9-4.4 9.9-9.9V51.1c0-5.5-4.5-9.9-9.9-9.9zM297.5 61h19.8v19.8h-19.8zM39.7 61h19.8v19.8H39.7zM535.5 299h-49.6v-29.7c0-16.4-13.3-29.7-29.8-29.7v-19.8H476V200h-59.5v19.8h19.8v19.8c-16.4 0-29.8 13.3-29.8 29.7V299h-19.8v-29.7c0-16.4-13.3-29.7-29.8-29.7v-19.8h19.8V200h-59.5v19.8H337v19.8c-16.4 0-29.8 13.3-29.8 29.7V299h-19.8v-29.7c0-16.4-13.3-29.7-29.8-29.7H238c-16.4 0-29.8 13.3-29.8 29.7V299h-19.8v-29.7c0-16.4-13.3-29.7-29.8-29.7h-19.8c-16.4 0-29.8 13.3-29.8 29.7V299H59.5V180h476v119zm-109.1 0v-29.7c0-5.5 4.4-9.9 9.9-9.9h19.8c5.5 0 9.9 4.4 9.9 9.9V299h-39.6zm-99.2 0v-29.7c0-5.5 4.4-9.9 9.9-9.9H357c5.5 0 9.9 4.4 9.9 9.9V299h-39.7zm-99.1 0v-29.7c0-5.5 4.4-9.9 9.9-9.9h19.8c5.5 0 9.9 4.4 9.9 9.9V299h-39.6zm-99.2 0v-29.7c0-5.5 4.4-9.9 9.9-9.9h19.8c5.5 0 9.9 4.4 9.9 9.9V299h-39.6zm-69.4 19.8h476V537h-476V318.8zm485.9-158.6H49.6c-5.5 0-9.9 4.4-9.9 9.9v376.8c0 5.5 4.4 9.9 9.9 9.9h495.8c5.5 0 9.9-4.4 9.9-9.9V170.1c0-5.5-4.4-9.9-9.9-9.9z"/><path clip-path="url(#d)" d="M178.5 457.7c-16.4 0-29.7-13.3-29.7-29.7s13.3-29.7 29.7-29.7 29.7 13.3 29.7 29.7c0 16.3-13.3 29.7-29.7 29.7zm0-79.4c-27.4 0-49.6 22.2-49.6 49.6s22.2 49.6 49.6 49.6c27.4 0 49.6-22.2 49.6-49.6 0-27.4-22.2-49.5-49.6-49.6z"/><path clip-path="url(#d)" d="M386.8 427.9c0-16.4 13.3-29.7 29.7-29.7s29.7 13.3 29.7 29.7-13.3 29.7-29.7 29.7c-16.4.1-29.7-13.3-29.7-29.7zm76.1 51.6a69.358 69.358 0 0 1-46.4 17.8c-17.1 0-33.6-6.3-46.3-17.8 4-5.6 7.4-11.7 10-18.1 18.5 20.2 49.9 21.6 70.1 3.1 20.2-18.5 21.6-49.9 3.1-70.1-18.5-20.2-49.9-21.6-70.1-3.1-1.1 1-2.1 2-3.1 3.1-2.6-6.4-6-12.5-10-18.1 28.5-25.6 72.4-23.3 98 5.2 25.6 28.5 23.3 72.4-5.3 98zm-195.1-51.6c0-16.4 13.3-29.7 29.7-29.7s29.7 13.3 29.7 29.7-13.3 29.7-29.7 29.7-29.7-13.3-29.7-29.7zm76.1 51.6a69.358 69.358 0 0 1-46.4 17.8c-17.1 0-33.6-6.3-46.3-17.8 4-5.6 7.4-11.7 10-18.1 18.5 20.2 49.9 21.6 70.1 3.1 20.2-18.5 21.6-49.9 3.1-70.1-18.5-20.2-49.9-21.6-70.1-3.1-1.1 1-2.1 2-3.1 3.1-2.6-6.4-6-12.5-10-18.1 28.5-25.6 72.4-23.3 98 5.2 25.6 28.5 23.3 72.4-5.3 98zm-165.4 17.8c-38.3 0-69.4-31.1-69.4-69.4s31.1-69.4 69.4-69.4c38.3 0 69.4 31.1 69.4 69.4 0 38.3-31.1 69.4-69.4 69.4zm297.8-135.7c-16.4-14.8-37.7-22.9-59.8-22.9-22 0-43.2 8.1-59.6 22.8-33.8-30.5-85.2-30.5-119 0-36.7-32.9-93.1-29.9-126 6.8-32.9 36.7-29.9 93.1 6.8 126 33.9 30.5 85.3 30.5 119.3 0 33.8 30.5 85.2 30.5 119 0 36.6 33 93.1 30 126-6.7 32.9-36.7 29.9-93.1-6.7-126zM386.8 61h158.7v19.8H386.8z"/></g></svg>