<svg xmlns="http://www.w3.org/2000/svg" width="256" height="372" viewBox="0 0 256 372"><path d="M243.4 359H13c-.2 0-.4-.2-.4-.4v-26h231.2v26c0 .2-.2.4-.4.4zM13 12.6h230.4c.2 0 .4.2.4.4v38.8H12.6V13c0-.2.2-.4.4-.4zm-.4 51.2h231.2v256.8H12.6V63.8zM243.4.6H13C6.2.6.6 6.2.6 13v345.6C.6 365.4 6.2 371 13 371h230.4c6.8 0 12.4-5.6 12.4-12.4V13c0-6.8-5.6-12.4-12.4-12.4z"/><path d="M211.4 77.4H45c-3.3 0-6 2.7-6 6s2.7 6 6 6h166.4c3.3 0 6-2.7 6-6s-2.7-6-6-6zM89.8 38.2h76.8c3.3 0 6-2.7 6-6s-2.7-6-6-6H89.8c-3.3 0-6 2.7-6 6s2.7 6 6 6zM192.2 38.2h6.4c3.3 0 6-2.7 6-6s-2.7-6-6-6h-6.4c-3.3 0-6 2.7-6 6s2.7 6 6 6zM57.8 38.2h6.4c3.3 0 6-2.7 6-6s-2.7-6-6-6h-6.4c-3.3 0-6 2.7-6 6s2.7 6 6 6z"/></svg>