<svg xmlns="http://www.w3.org/2000/svg" xmlns:xlink="http://www.w3.org/1999/xlink" width="237" height="260" fill="#fff" viewBox="0 0 237 260"><path d="M141.5 152.7h-6c-2.2 0-4 1.8-4 4s1.8 4 4 4h6c2.2 0 4-1.8 4-4 0-2.3-1.8-4-4-4zM141.5 187.9h-6c-2.2 0-4 1.8-4 4s1.8 4 4 4h6c2.2 0 4-1.8 4-4 0-2.3-1.8-4-4-4zM141.5 82.3h-6c-2.2 0-4 1.8-4 4s1.8 4 4 4h6c2.2 0 4-1.8 4-4s-1.8-4-4-4z"/><defs><path id="a" d="M.1 0H237v260H.1z"/></defs><clipPath id="b"><use xlink:href="#a" overflow="visible"/></clipPath><path clip-path="url(#b)" d="M141.5 117.5h-6c-2.2 0-4 1.8-4 4s1.8 4 4 4h6c2.2 0 4-1.8 4-4 0-2.3-1.8-4-4-4z"/><path clip-path="url(#b)" d="M228.1 171.1c0 3.1-2.5 5.6-5.6 5.6s-5.6-2.5-5.6-5.6V36.7c0-8.8-7.2-16-16-16h-13.6c-2.2 0-4 1.8-4 4v192.6c0 3.5-2.9 6.4-6.4 6.4H42.3c-3.5 0-6.4-2.9-6.4-6.4V8.9h166.6c14.1 0 25.6 11.5 25.6 25.6v136.6zM183.3 251H35.9v-13.5c0-3.1 2.5-5.6 5.6-5.6h136.2c3.1 0 5.6 2.5 5.6 5.6V251zM27.9 42.4L10.6 8.9h17.2v33.5zM202.4.9H4.1C2.7.9 1.4 1.6.7 2.8-.1 4-.1 5.5.5 6.7l26.6 51.8c.2.4.5.7.7 1v157.7c0 4 1.7 7.7 4.3 10.3-2.7 2.5-4.3 6-4.3 9.9V255c0 2.2 1.8 4 4 4h155.4c2.2 0 4-1.8 4-4v-17.5c0-3.9-1.7-7.5-4.3-9.9 2.7-2.6 4.3-6.3 4.3-10.3V28.7h9.6c4.4 0 8 3.6 8 8v134.4c0 7.5 6.1 13.6 13.6 13.6s13.6-6.1 13.6-13.6V34.5C236.1 16 221 .9 202.4.9z"/><path d="M149.7 194.3c0 3.1-2.5 5.6-5.6 5.6h-11.2c-3.1 0-5.6-2.5-5.6-5.6V48.7c0-3.1 2.5-5.6 5.6-5.6h11.2c3.1 0 5.6 2.5 5.6 5.6v145.6zm-5.6-159.2h-11.2c-7.5 0-13.6 6.1-13.6 13.6v145.6c0 7.5 6.1 13.6 13.6 13.6h11.2c7.5 0 13.6-6.1 13.6-13.6V48.7c0-7.5-6.1-13.6-13.6-13.6z"/><path d="M141.5 47.1h-6c-2.2 0-4 1.8-4 4s1.8 4 4 4h6c2.2 0 4-1.8 4-4 0-2.3-1.8-4-4-4z"/></svg>