<svg xmlns="http://www.w3.org/2000/svg" fill="#fff" xmlns:xlink="http://www.w3.org/1999/xlink" width="384" height="384" viewBox="0 0 384 384"><defs><path id="a" d="M0 0h384v383.9H0z"/></defs><clipPath id="b"><use xlink:href="#a" overflow="visible"/></clipPath><path clip-path="url(#b)" d="M12.8 12.8h358.4v76.8H12.8V12.8zm0 89.6h358.4v243.2H12.8V102.4zm12.8 256h332.8v12.8H25.6v-12.8zM0 0v358.4h12.8V384h358.4v-25.6H384V0H0z"/><path d="M51.2 64c-7.1 0-12.8-5.7-12.8-12.8 0-7.1 5.7-12.8 12.8-12.8 7.1 0 12.8 5.7 12.8 12.8C64 58.3 58.3 64 51.2 64zm0-38.4c-14.1 0-25.6 11.5-25.6 25.6 0 14.1 11.5 25.6 25.6 25.6 14.1 0 25.6-11.5 25.6-25.6 0-14.1-11.5-25.6-25.6-25.6zM128 64c-7.1 0-12.8-5.7-12.8-12.8 0-7.1 5.7-12.8 12.8-12.8 7.1 0 12.8 5.7 12.8 12.8 0 7.1-5.7 12.8-12.8 12.8zm0-38.4c-14.1 0-25.6 11.5-25.6 25.6 0 14.1 11.5 25.6 25.6 25.6s25.6-11.5 25.6-25.6c0-14.1-11.5-25.6-25.6-25.6zM204.8 64c-7.1 0-12.8-5.7-12.8-12.8 0-7.1 5.7-12.8 12.8-12.8 7.1 0 12.8 5.7 12.8 12.8 0 7.1-5.7 12.8-12.8 12.8zm0-38.4c-14.1 0-25.6 11.5-25.6 25.6 0 14.1 11.5 25.6 25.6 25.6 14.1 0 25.6-11.5 25.6-25.6 0-14.1-11.5-25.6-25.6-25.6zM268.8 32h64v12.8h-64zM268.8 57.6h64v12.8h-64zM44.8 147.2h294.4v32H44.8v-32zm0 44.8h294.4v83.2H44.8V192zM32 288h320V134.4H32V288z"/><path d="M193.6 221.8l9.9-13.2-10.2-7.6-15.7 20.8 12.8 17.1-9.9 13.3 10.2 7.6 15.7-20.9zM251.2 221.8l9.9-13.2-10.2-7.6-15.7 20.8 12.8 17.1-9.9 13.3 10.2 7.6 15.7-20.9zM136 221.8l9.9-13.2-10.2-7.6-15.7 20.8 12.8 17.1-9.9 13.3 10.2 7.6 15.7-20.9zM339.2 320H352v12.8h-12.8zM339.2 300.8H352v12.8h-12.8zM320 320h12.8v12.8H320z"/></svg>