<svg xmlns="http://www.w3.org/2000/svg" xmlns:xlink="http://www.w3.org/1999/xlink" width="512" height="512" viewBox="0 0 512 512"><path fill="#000B10" d="M328.6 323.1c1.9-1.9 2.9-4.4 2.9-7.1 0-2.6-1.1-5.2-2.9-7.1-1.9-1.9-4.4-2.9-7.1-2.9-2.6 0-5.2 1.1-7.1 2.9-1.9 1.9-2.9 4.4-2.9 7.1 0 2.6 1.1 5.2 2.9 7.1 1.9 1.9 4.4 2.9 7.1 2.9 2.6 0 5.2-1.1 7.1-2.9M126.1 279.9c-1.9 1.9-2.9 4.4-2.9 7.1 0 2.6 1.1 5.2 2.9 7.1 1.9 1.9 4.4 2.9 7.1 2.9s5.2-1.1 7.1-2.9c1.9-1.9 2.9-4.4 2.9-7.1 0-2.6-1.1-5.2-2.9-7.1-1.9-1.9-4.4-2.9-7.1-2.9s-5.2 1.1-7.1 2.9M164.7 279.9c-1.9 1.9-2.9 4.4-2.9 7.1 0 2.6 1.1 5.2 2.9 7.1 1.9 1.9 4.4 2.9 7.1 2.9 2.6 0 5.2-1.1 7.1-2.9 1.9-1.9 2.9-4.4 2.9-7.1 0-2.6-1.1-5.2-2.9-7.1-1.9-1.9-4.4-2.9-7.1-2.9-2.7 0-5.2 1.1-7.1 2.9"/><defs><path id="a" d="M.1 0H512v512H.1z"/></defs><clipPath id="b"><use xlink:href="#a" overflow="visible"/></clipPath><path clip-path="url(#b)" fill="#000B10" d="M203.3 279.9c-1.9 1.9-2.9 4.4-2.9 7.1 0 2.6 1.1 5.2 2.9 7.1 1.9 1.9 4.4 2.9 7.1 2.9s5.2-1.1 7.1-2.9c1.9-1.9 2.9-4.4 2.9-7.1 0-2.6-1.1-5.2-2.9-7.1-1.9-1.9-4.4-2.9-7.1-2.9-2.7 0-5.3 1.1-7.1 2.9"/><path clip-path="url(#b)" fill="#000B10" d="M512 138V10c0-5.5-4.5-10-10-10H10C4.5 0 0 4.5 0 10v248c0 5.5 4.5 10 10 10h76v48c0 5.5 4.5 10 10 10h182.5c5.5 0 10-4.5 10-10s-4.5-10-10-10H106v-38h300v38h-42.7c-5.5 0-10 4.5-10 10s4.5 10 10 10H416c5.5 0 10-4.5 10-10v-48h76c5.5 0 10-4.5 10-10V138.2v-.2M318 20h174v108H318V20zm-104 0h84v138h-84V20zM20 20h174v108H86.5c-5.5 0-10 4.5-10 10s4.5 10 10 10H194v15.3L92.3 248H20V20zm103.6 228l84-70h96.8l84 70H123.6zm296 0L318 163.3V148h174v100h-72.4z"/><path fill="#000B10" d="M50.8 128c-2.6 0-5.2 1.1-7.1 2.9-1.9 1.9-2.9 4.4-2.9 7.1 0 2.6 1.1 5.2 2.9 7.1 1.9 1.9 4.4 2.9 7.1 2.9 2.6 0 5.2-1.1 7.1-2.9 1.9-1.9 2.9-4.4 2.9-7.1 0-2.6-1.1-5.2-2.9-7.1-1.9-1.8-4.5-2.9-7.1-2.9M385.7 82h38.7c5.5 0 10-4.5 10-10s-4.5-10-10-10h-38.7c-5.5 0-10 4.5-10 10s4.4 10 10 10M87.7 82h38.7c5.5 0 10-4.5 10-10s-4.5-10-10-10H87.7c-5.5 0-10 4.5-10 10s4.5 10 10 10M424.3 188h-38.7c-5.5 0-10 4.5-10 10s4.5 10 10 10h38.7c5.5 0 10-4.5 10-10s-4.4-10-10-10M136.3 198c0-5.5-4.5-10-10-10H87.7c-5.5 0-10 4.5-10 10s4.5 10 10 10h38.7c5.5 0 9.9-4.5 9.9-10M448 492h-62.9c2.8-6.4 4.3-13.4 4.3-20.6 0-13.7-5.3-26.6-15-36.3-10.7-10.7-12-27.4-3.9-39.6 3.4 1 7.2.1 9.8-2.5a9.96 9.96 0 0 0 0-14.1l-9.9-9.9a9.96 9.96 0 0 0-14.1 0l-9.9 9.9a9.96 9.96 0 0 0 0 14.1c.7.7 1.5 1.3 2.3 1.7-6.9 18.3-3 39.8 11.7 54.5 5.9 5.9 9.2 13.8 9.2 22.2 0 7.6-2.7 14.9-7.7 20.6h-82.8c8.2-18.8 4.6-41.5-10.7-56.9-10.7-10.7-12-27.4-3.9-39.6 3.4 1 7.2.1 9.8-2.5a9.96 9.96 0 0 0 0-14.1l-9.9-9.9a9.96 9.96 0 0 0-14.1 0l-9.9 9.9a9.96 9.96 0 0 0 0 14.1c.7.7 1.5 1.3 2.3 1.7-6.9 18.3-3 39.8 11.7 54.5 11.7 11.7 12.2 30.4 1.5 42.7h-82.8c8.2-18.8 4.6-41.5-10.7-56.9-5.9-5.9-9.2-13.8-9.2-22.2 0-6.3 1.8-12.3 5.3-17.4.9.3 1.8.4 2.8.4 2.6 0 5.1-1 7.1-2.9a9.96 9.96 0 0 0 0-14.1l-9.9-9.9a9.96 9.96 0 0 0-14.1 0l-9.9 9.9a9.96 9.96 0 0 0 0 14.1c.7.7 1.5 1.2 2.3 1.7-2.2 5.8-3.3 11.9-3.3 18.2 0 13.7 5.3 26.6 15 36.3 11.7 11.7 12.2 30.4 1.5 42.7H64c-5.5 0-10 4.5-10 10s4.5 10 10 10h384c5.5 0 10-4.5 10-10s-4.5-9.8-10-9.8"/></svg>