<svg version="1.1" xmlns="http://www.w3.org/2000/svg" xmlns:xlink="http://www.w3.org/1999/xlink" x="0" y="0" width="386" height="347" fill="#1578e0" viewBox="0 0 386 347" xml:space="preserve"><defs><path id="a" d="M.1.9H386v346H.1z"/></defs><clipPath id="b"><use xlink:href="#a" overflow="visible"/></clipPath><path clip-path="url(#b)" d="M281.3 327.3H18.7V19.5h262.6c5.1 0 9.3-4.2 9.3-9.3 0-5.2-4.2-9.3-9.3-9.3H9.3C4.2.9 0 5.1 0 10.2v326.5c0 5.2 4.2 9.3 9.3 9.3h271.9c5.1 0 9.3-4.2 9.3-9.3.1-5.2-4.1-9.4-9.2-9.4z"/><path clip-path="url(#b)" d="M382.7 161.1l-57.5-57.5c-3.6-3.6-9.5-3.6-13.2 0-3.6 3.6-3.6 9.5 0 13.2l41.6 41.6H179.3c-5.1 0-9.3 4.2-9.3 9.3 0 5.1 4.2 9.3 9.3 9.3h174.3L312 218.6c-3.6 3.6-3.6 9.5 0 13.2 1.8 1.8 4.2 2.7 6.6 2.7s4.8-.9 6.6-2.7l57.5-57.5c3.6-3.6 3.6-9.5 0-13.2z"/></svg>