<svg xmlns="http://www.w3.org/2000/svg" fill="#fff" xmlns:xlink="http://www.w3.org/1999/xlink" width="276" height="331.2" viewBox="0 0 276 331.2"><path d="M209.7 38.6h-11c-3.1 0-5.5 2.5-5.5 5.5 0 3.1 2.5 5.5 5.5 5.5h11c3.1 0 5.5-2.5 5.5-5.5s-2.5-5.5-5.5-5.5zM88.1 132.6v55.3H43.8v-55.3h5.5v27.6h33.2v-27.6h5.6zm-27.7 0h11v16.6h-11v-16.6zm-11-11H32.8V199h66.3v-77.4H49.4zM115.7 110.5c-3.1 0-5.5 2.5-5.5 5.5v88.5c0 3 2.5 5.5 5.5 5.5s5.5-2.5 5.5-5.5V116c.1-3-2.4-5.5-5.5-5.5zM159.9 110.5c-3 0-5.5 2.5-5.5 5.5v88.5c0 3 2.5 5.5 5.5 5.5 3.1 0 5.5-2.5 5.5-5.5V116c.1-3-2.4-5.5-5.5-5.5z"/><defs><path id="a" d="M0-.1h276v331.3H0z"/></defs><clipPath id="b"><use xlink:href="#a" overflow="visible"/></clipPath><path clip-path="url(#b)" d="M88.1 248.7c0 3 2.5 5.5 5.5 5.5H182c3.1 0 5.5-2.5 5.5-5.5s-2.5-5.5-5.5-5.5H93.6c-3 0-5.5 2.5-5.5 5.5z"/><path clip-path="url(#b)" d="M143.4 221.1V11h115.2c.5 0 .9.4.9.9V221H143.4zm116.1 94.3c0 2.8-2.3 5.1-5.2 5.1h-233c-2.8 0-5.2-2.3-5.2-5.1v-83.3h243.3v83.3zM16.2 11.9c0-.5.4-.9.9-.9h115.2v210.1H16.2V11.9zm242.3-12H17.1c-6.6 0-12 5.4-12 12v303.5c0 8.9 7.3 16.2 16.2 16.2h232.9c8.9 0 16.2-7.3 16.2-16.2V11.9c.1-6.6-5.3-12-11.9-12z"/></svg>