<svg xmlns="http://www.w3.org/2000/svg" xmlns:xlink="http://www.w3.org/1999/xlink" width="360" height="386" fill="#fff" viewBox="0 0 360 386"><defs><path id="a" d="M0 0h360v386H0z"/></defs><clipPath id="b"><use xlink:href="#a" overflow="visible"/></clipPath><path clip-path="url(#b)" d="M288.9 199.4h32v38.4h-32v-38.4zM65.4 333.8l1.1-12.8h30.3c3.5 0 6.4-2.9 6.4-6.4 0-3.5-2.9-6.4-6.4-6.4H67.7l1.1-12.8h28.1c3.5 0 6.4-2.9 6.4-6.4s-2.9-6.4-6.4-6.4h-27l1.1-12.8h25.9c3.5 0 6.4-2.9 6.4-6.4 0-3.5-2.9-6.4-6.4-6.4H72.1l1.1-12.8h23.6c3.5 0 6.4-2.9 6.4-6.4 0-3.5-2.9-6.4-6.4-6.4H74.3l1.1-12.8h21.4c3.5 0 6.4-2.9 6.4-6.4s-2.9-6.4-6.4-6.4H76.6l1.1-12.2c.2-2.8-1.4-5.5-4.1-6.5-38.8-14.9-71.6-58.2-56-109.3 12.7-38.4 48.7-64.3 89.1-64l162.9 4.6v75.2L199 97c-3.4.2-6.1 3-6.1 6.4-.9 37.5-24.6 70.7-59.9 83.6-2.6 1-4.2 3.5-4.1 6.2l6.1 140.5H65.4zm217.1-315l38.6 1.1c3.5.1 6.2 2.9 6.2 6.4v58.6c0 3.4-2.7 6.2-6.1 6.4L282.5 93V18.8zM352.9 225h-19.2v-12.8h19.2c3.5 0 6.4-2.9 6.4-6.4 0-3.5-2.9-6.4-6.4-6.4h-19.2V193c0-3.5-2.9-6.4-6.4-6.4h-44.8c-3.5 0-6.4 2.9-6.4 6.4v19.7c-23.2 3-38.4 22.6-38.4 50.7v92.8c0 5.3-4.3 9.6-9.6 9.6s-9.6-4.3-9.6-9.6V234.6c0-12.4-10-22.4-22.4-22.4s-22.4 10-22.4 22.4v105.6c0 17.7-14.3 32-32 32h-6.4c-15.2 0-28.3-10.7-31.4-25.6h37.8c3.5 0 6.4-2.9 6.4-6.4v-.3l-6.2-142.7c35.9-15.1 60.4-48.9 63.6-87.7l116.3-5.5c10.2-.5 18.3-8.9 18.3-19.2V26.2c.1-10.4-8.2-19-18.7-19.2L107 1h-.2C60.7.6 19.7 30.2 5.3 74-12 130.5 22.2 178.7 64.4 197.1l-5.6 64.1c-.3.7-.4 1.4-.4 2.2 0 .3.1.6.2.9L52 339.7c-.3 3.5 2.3 6.6 5.8 6.9H91c3.2 22 22 38.4 44.3 38.4h6.4c24.7 0 44.8-20.1 44.8-44.8V234.6c0-5.3 4.3-9.6 9.6-9.6s9.6 4.3 9.6 9.6v121.6c0 12.4 10 22.4 22.4 22.4s22.4-10 22.4-22.4v-92.8c0-16 6.9-34.4 25.6-37.8v18.6c0 3.5 2.9 6.4 6.4 6.4h44.8c3.5 0 6.4-2.9 6.4-6.4v-6.4h19.2c3.5 0 6.4-2.9 6.4-6.4s-2.9-6.4-6.4-6.4z"/><path d="M103.2 148.2c-24.7 0-44.8-20.1-44.8-44.8 0-24.7 20.1-44.8 44.8-44.8S148 78.7 148 103.4c0 24.7-20 44.8-44.8 44.8zm0-102.4c-31.8 0-57.6 25.8-57.6 57.6S71.4 161 103.2 161s57.6-25.8 57.6-57.6-25.8-57.6-57.6-57.6z"/></svg>