<svg xmlns="http://www.w3.org/2000/svg" fill="#fff" xmlns:xlink="http://www.w3.org/1999/xlink" width="410" height="410" viewBox="0 0 410 410"><defs><path id="a" d="M0 .2h410v409.5H0z"/></defs><clipPath id="b"><use xlink:href="#a" overflow="visible"/></clipPath><path clip-path="url(#b)" d="M13.7 13.9h382.6v382.6H13.7V13.9zM403.2.2H6.8C3.1.2 0 3.3 0 7.1v396.3c0 3.8 3.1 6.8 6.8 6.8h396.3c3.8 0 6.8-3.1 6.8-6.8V7.1c.1-3.8-3-6.9-6.7-6.9z"/><path d="M109.3 369.2c-7.5 0-13.7-6.1-13.7-13.6s6.1-13.7 13.7-13.7c7.5 0 13.6 6.1 13.6 13.7.1 7.5-6 13.6-13.6 13.6zm0-41c-15.1 0-27.3 12.3-27.3 27.4 0 15 12.2 27.3 27.3 27.3 15.1 0 27.3-12.3 27.3-27.3.1-15.1-12.2-27.4-27.3-27.4zM170.8 369.2c-7.5 0-13.7-6.1-13.7-13.6s6.1-13.7 13.7-13.7c7.5 0 13.7 6.1 13.7 13.7 0 7.5-6.1 13.6-13.7 13.6zm0-41c-15.1 0-27.3 12.3-27.3 27.4 0 15 12.2 27.3 27.3 27.3 15.1 0 27.3-12.3 27.3-27.3.1-15.1-12.2-27.4-27.3-27.4zM239.2 341.9c7.5 0 13.7 6.1 13.7 13.7 0 7.5-6.1 13.6-13.7 13.6-7.5 0-13.7-6.1-13.7-13.6 0-7.6 6.1-13.7 13.7-13.7zm0 41c15.1 0 27.3-12.3 27.3-27.3 0-15.1-12.2-27.4-27.3-27.4-15.1 0-27.3 12.3-27.3 27.4-.1 15 12.2 27.3 27.3 27.3zM300.7 369.2c-7.5 0-13.6-6.1-13.6-13.6s6.1-13.7 13.6-13.7 13.7 6.1 13.7 13.7c-.1 7.5-6.2 13.6-13.7 13.6zm0-41c-15.1 0-27.3 12.3-27.3 27.4 0 15 12.2 27.3 27.3 27.3 15.1 0 27.3-12.3 27.3-27.3 0-15.1-12.3-27.4-27.3-27.4zM109.4 41.6c.2 3.6 3.1 6.5 6.8 6.5 3.6 0 6.5-2.9 6.7-6.5 28.5 3.1 51.2 25.9 54.4 54.4-3.6.2-6.4 3.1-6.4 6.8 0 3.6 2.9 6.5 6.4 6.8-3.1 28.5-25.8 51.2-54.4 54.4-.2-3.6-3.1-6.5-6.7-6.5s-6.5 2.9-6.8 6.5c-28.5-3.1-51.2-25.9-54.4-54.4 3.6-.2 6.4-3.1 6.4-6.8 0-3.6-2.9-6.5-6.4-6.8 3.2-28.5 25.9-51.3 54.4-54.4zm6.8 136.3c41.4 0 75.1-33.7 75.1-75.2s-33.7-75.2-75.1-75.2C74.7 27.6 41 61.3 41 102.7s33.7 75.2 75.2 75.2zM293.8 294c-26.4 0-47.8-21.4-47.8-47.8s21.4-47.9 47.8-47.9 47.9 21.5 47.9 47.9-21.5 47.8-47.9 47.8zm0-109.3c-33.9 0-61.5 27.6-61.5 61.5s27.6 61.5 61.5 61.5 61.5-27.6 61.5-61.5c.1-33.9-27.5-61.5-61.5-61.5z"/><path d="M82 82.2c0 3.8-3.1 6.8-6.8 6.8-3.8 0-6.8-3-6.8-6.8s3.1-6.8 6.8-6.8c3.7 0 6.8 3 6.8 6.8zM123 82.2c0 3.8-3 6.8-6.8 6.8s-6.8-3-6.8-6.8 3-6.8 6.8-6.8 6.8 3 6.8 6.8z"/><ellipse transform="rotate(-63.435 95.66 61.72)" cx="95.7" cy="61.7" rx="6.8" ry="6.8"/><ellipse transform="rotate(-52.02 136.666 61.72)" cx="136.7" cy="61.7" rx="6.8" ry="6.8"/><circle cx="95.7" cy="102.7" r="6.8"/><circle cx="136.7" cy="102.7" r="6.8"/><path d="M164 82.2c0 3.8-3 6.8-6.8 6.8s-6.8-3-6.8-6.8 3-6.8 6.8-6.8 6.8 3 6.8 6.8zM280.2 225.7c0 3.8-3.1 6.8-6.8 6.8s-6.8-3-6.8-6.8 3.1-6.8 6.8-6.8 6.8 3 6.8 6.8zM300.7 205.2c0 3.8-3 6.8-6.8 6.8s-6.8-3.1-6.8-6.8 3-6.8 6.8-6.8c3.7 0 6.8 3.1 6.8 6.8zM259.6 246.2c0 3.8-3 6.8-6.8 6.8s-6.8-3.1-6.8-6.8c0-3.8 3-6.8 6.8-6.8s6.8 3.1 6.8 6.8zM300.7 246.2c0 3.8-3 6.8-6.8 6.8s-6.8-3.1-6.8-6.8c0-3.8 3-6.8 6.8-6.8 3.7 0 6.8 3.1 6.8 6.8zM321.2 225.7c0 3.8-3.1 6.8-6.8 6.8-3.8 0-6.8-3-6.8-6.8s3.1-6.8 6.8-6.8c3.7 0 6.8 3 6.8 6.8z"/><ellipse transform="matrix(.09854 -.9951 .9951 .09854 56.795 555.167)" cx="334.8" cy="246.2" rx="6.8" ry="6.8"/><path d="M82 123.2c0 3.8-3.1 6.8-6.8 6.8-3.8 0-6.8-3-6.8-6.8s3.1-6.8 6.8-6.8c3.7 0 6.8 3 6.8 6.8zM123 123.2c0 3.8-3 6.8-6.8 6.8s-6.8-3-6.8-6.8 3-6.8 6.8-6.8 6.8 3 6.8 6.8z"/><ellipse transform="rotate(-79.1 95.652 143.728)" cx="95.7" cy="143.7" rx="6.8" ry="6.8"/><circle cx="136.7" cy="143.7" r="6.8"/><path d="M164 123.2c0 3.8-3 6.8-6.8 6.8s-6.8-3-6.8-6.8 3-6.8 6.8-6.8 6.8 3 6.8 6.8zM287.1 41.6c.2 3.6 3.1 6.5 6.7 6.5s6.5-2.9 6.8-6.5c28.5 3.1 51.2 25.9 54.4 54.4-3.6.2-6.4 3.1-6.4 6.8 0 3.6 2.9 6.5 6.4 6.8-3.1 28.5-25.8 51.2-54.4 54.4-.2-3.6-3.1-6.5-6.8-6.5-3.6 0-6.5 2.9-6.7 6.5-28.5-3.1-51.2-25.9-54.4-54.4 3.6-.2 6.4-3.1 6.4-6.8 0-3.6-2.9-6.5-6.4-6.8 3.2-28.5 25.9-51.3 54.4-54.4zm6.7 136.3c41.5 0 75.2-33.7 75.2-75.2s-33.7-75.2-75.2-75.2c-41.4 0-75.1 33.7-75.1 75.2s33.7 75.2 75.1 75.2z"/><path d="M259.6 82.2c0 3.8-3 6.8-6.8 6.8s-6.8-3-6.8-6.8 3-6.8 6.8-6.8 6.8 3 6.8 6.8zM300.7 82.2c0 3.8-3 6.8-6.8 6.8s-6.8-3-6.8-6.8 3-6.8 6.8-6.8c3.7 0 6.8 3 6.8 6.8z"/><ellipse transform="rotate(-58.286 273.312 61.72)" cx="273.3" cy="61.7" rx="6.8" ry="6.8"/><ellipse transform="rotate(-45 314.343 61.722)" cx="314.3" cy="61.7" rx="6.8" ry="6.8"/><circle cx="273.3" cy="102.7" r="6.8"/><circle cx="314.3" cy="102.7" r="6.8"/><path d="M341.7 82.2c0 3.8-3.1 6.8-6.8 6.8-3.8 0-6.8-3-6.8-6.8s3.1-6.8 6.8-6.8c3.7 0 6.8 3 6.8 6.8zM259.6 123.2c0 3.8-3 6.8-6.8 6.8s-6.8-3-6.8-6.8 3-6.8 6.8-6.8 6.8 3 6.8 6.8zM300.7 123.2c0 3.8-3 6.8-6.8 6.8s-6.8-3-6.8-6.8 3-6.8 6.8-6.8c3.7 0 6.8 3 6.8 6.8z"/><ellipse transform="rotate(-76.714 273.357 143.737)" cx="273.3" cy="143.7" rx="6.8" ry="6.8"/><circle cx="314.3" cy="143.7" r="6.8"/><path d="M341.7 123.2c0 3.8-3.1 6.8-6.8 6.8-3.8 0-6.8-3-6.8-6.8s3.1-6.8 6.8-6.8c3.7 0 6.8 3 6.8 6.8z"/><circle cx="273.3" cy="266.7" r="6.8"/><path d="M300.7 287.2c0 3.8-3 6.8-6.8 6.8s-6.8-3-6.8-6.8 3-6.8 6.8-6.8c3.7 0 6.8 3 6.8 6.8z"/><circle cx="314.3" cy="266.7" r="6.8"/><path d="M68.3 246.2c0-26.4 21.5-47.9 47.9-47.9s47.8 21.5 47.8 47.9-21.4 47.8-47.8 47.8-47.9-21.4-47.9-47.8zm109.4 0c0-33.9-27.6-61.5-61.5-61.5s-61.5 27.6-61.5 61.5 27.6 61.5 61.5 61.5 61.5-27.6 61.5-61.5z"/><path d="M102.5 225.7c0 3.8-3.1 6.8-6.8 6.8-3.8 0-6.8-3-6.8-6.8s3.1-6.8 6.8-6.8c3.7 0 6.8 3 6.8 6.8zM123 205.2c0 3.8-3 6.8-6.8 6.8s-6.8-3.1-6.8-6.8 3-6.8 6.8-6.8 6.8 3.1 6.8 6.8z"/><circle cx="75.2" cy="246.2" r="6.8"/><path d="M123 246.2c0 3.8-3 6.8-6.8 6.8s-6.8-3.1-6.8-6.8c0-3.8 3-6.8 6.8-6.8s6.8 3.1 6.8 6.8zM143.5 225.7c0 3.8-3.1 6.8-6.8 6.8s-6.8-3-6.8-6.8 3.1-6.8 6.8-6.8 6.8 3 6.8 6.8zM164 246.2c0 3.8-3 6.8-6.8 6.8s-6.8-3.1-6.8-6.8c0-3.8 3-6.8 6.8-6.8s6.8 3.1 6.8 6.8z"/><circle cx="95.7" cy="266.7" r="6.8"/><path d="M123 287.2c0 3.8-3 6.8-6.8 6.8s-6.8-3-6.8-6.8 3-6.8 6.8-6.8 6.8 3 6.8 6.8z"/><circle cx="136.7" cy="266.7" r="6.8"/></svg>