<svg xmlns="http://www.w3.org/2000/svg" width="288" height="411" fill="#fff" viewBox="0 0 288 411"><path d="M240.9 396.3H46.7c-3.5 0-6.4-2.6-6.7-6l-3.7-35h214.9l-3.7 34.9c-.3 3.6-3.2 6.1-6.6 6.1zm-49.3-81.9h-6.8v-20.5c0-11.3-9.2-20.5-20.5-20.5H137c-11.3 0-20.5 9.2-20.5 20.5v20.5h-6.8c-7.5 0-13.7 6.1-13.7 13.7v13.7H82.4v-54.6c0-37.6 30.6-68.3 68.3-68.3s68.3 30.6 68.3 68.3v54.6h-13.7v-13.7c-.1-7.5-6.2-13.7-13.7-13.7zm-20.5 0h-41v-20.5c0-3.8 3.1-6.8 6.8-6.8h27.3c3.8 0 6.8 3.1 6.8 6.8l.1 20.5zm-61.4 13.7h81.9v13.7h-81.9v-13.7zm34.1-177.5h129l-20.1 191.1h-20.2v-54.6c0-45.2-36.7-81.9-81.9-81.9s-81.9 36.7-81.9 81.9v54.6H34.9L14.8 150.6h129zm0-136.5c69.2 0 126 54.5 129.5 122.9h-259C17.8 68.6 74.6 14.1 143.8 14.1zM265.9 347l21.2-202.5v-.8C287.1 64.7 222.8.3 143.7.3 64.8.4.5 64.7.4 143.7v.8L21.7 347c-.1.5-.2 1-.2 1.6 0 1 .2 2 .7 2.9l4.2 40.4c1.2 10.3 9.9 18.1 20.3 18.1h194.1c10.4 0 19.1-7.8 20.3-18.2l4.2-40.3c.4-.9.7-1.9.7-2.9.1-.6 0-1.1-.1-1.6z"/><path d="M97.6 75.5H190C184.5 87.1 165.6 96 143.8 96s-40.7-8.9-46.2-20.5zm46.2-34.1c21.8 0 40.7 8.9 46.2 20.5H97.6c5.5-11.7 24.4-20.5 46.2-20.5zm61.4 27.3c0-23-27-41-61.4-41s-61.4 18-61.4 41 27 41 61.4 41 61.4-18.1 61.4-41z"/></svg>