<svg xmlns="http://www.w3.org/2000/svg" xmlns:xlink="http://www.w3.org/1999/xlink" width="384" height="384" fill="#fff" viewBox="0 0 384 384"><defs><path id="a" d="M0 0h384v383.9H0z"/></defs><clipPath id="b"><use xlink:href="#a" overflow="visible"/></clipPath><path clip-path="url(#b)" d="M371.2 352c0 10.6-8.6 19.2-19.2 19.2H32c-10.6 0-19.2-8.6-19.2-19.2v-38.4c0-10.6 8.6-19.2 19.2-19.2h320c10.6 0 19.2 8.6 19.2 19.2V352zM55.7 140.8h277.1c3.5 0 6.4 2.9 6.4 6.4v89.6c0 3.5-2.9 6.4-6.4 6.4h-6.4c-3.5 0-6.4-2.9-6.4-6.4v-70.4c0-3.5-2.9-6.4-6.4-6.4h-32c-3.5 0-6.4 2.9-6.4 6.4v115.2H89.6V172.8c0-1.9-.8-3.6-2.2-4.9l-31.7-27.1zM161.4 19.1c-13 23.6-20 66-20.6 108.9h-31.9c1.7-50.9 23.2-93.5 52.5-108.9zm24.2-6.3c13 0 30.9 43.6 32 115.2h-63.9c1-71.6 18.9-115.2 31.9-115.2zM262.3 128h-31.9c-.6-42.9-7.6-85.3-20.6-108.9 29.3 15.4 50.8 58 52.5 108.9zM352 281.6h-64V172.8h19.2v64c0 10.6 8.6 19.2 19.2 19.2h6.4c10.6 0 19.2-8.6 19.2-19.2v-89.6c0-10.6-8.6-19.2-19.2-19.2H275C272.8 58.3 235.1 2.4 188.4.2c-.9-.1-1.8-.2-2.8-.2-1 0-1.9.1-2.8.2C136.1 2.4 98.4 58.3 96.2 128H55.7c-5.4 0-10.1 3.3-12 8.4-1.9 5.1-.4 10.6 3.7 14.2l29.4 25.2v105.9H32c-17.6 0-32 14.4-32 32V352c0 17.6 14.4 32 32 32h320c17.6 0 32-14.4 32-32v-38.4c0-17.6-14.4-32-32-32z"/><path d="M320 345.6c-7.1 0-12.8-5.7-12.8-12.8 0-7.1 5.7-12.8 12.8-12.8s12.8 5.7 12.8 12.8c0 7.1-5.7 12.8-12.8 12.8zm0-38.4c-14.1 0-25.6 11.5-25.6 25.6 0 14.1 11.5 25.6 25.6 25.6s25.6-11.5 25.6-25.6c0-14.1-11.5-25.6-25.6-25.6zM243.2 326.4h25.6v12.8h-25.6v-12.8zm32-12.8h-38.4c-3.5 0-6.4 2.9-6.4 6.4v25.6c0 3.5 2.9 6.4 6.4 6.4h38.4c3.5 0 6.4-2.9 6.4-6.4V320c0-3.5-2.9-6.4-6.4-6.4zM179.2 326.4h25.6v12.8h-25.6v-12.8zm32-12.8h-38.4c-3.5 0-6.4 2.9-6.4 6.4v25.6c0 3.5 2.9 6.4 6.4 6.4h38.4c3.5 0 6.4-2.9 6.4-6.4V320c0-3.5-2.9-6.4-6.4-6.4zM236.8 166.4h25.6v12.8h-25.6zM236.8 204.8h25.6v12.8h-25.6zM236.8 243.2h25.6V256h-25.6z"/></svg>