<svg xmlns="http://www.w3.org/2000/svg" xmlns:xlink="http://www.w3.org/1999/xlink" width="410" height="395" viewBox="0 0 410 395"><defs><path id="a" d="M.1 0H410v394.9H.1z"/></defs><clipPath id="b"><use xlink:href="#a" overflow="visible"/></clipPath><path clip-path="url(#b)" d="M66.9 126.2H13.4c-7.4 0-13.4 6-13.4 13.4v240.7c0 7.4 6 13.4 13.4 13.4h53.5c7.4 0 13.4-6 13.4-13.4V139.6c-.1-7.4-6.1-13.4-13.4-13.4zM376.2 126.2c-2.2-.4-103 0-103 0l14.1-38.4c9.7-26.5 3.4-67.1-23.5-81.5-8.8-4.7-21-7-30.9-4.6-5.7 1.4-10.7 5.2-13.6 10.2-3.4 5.8-3.1 12.5-4.3 19-3.1 16.3-10.8 31.7-22.7 43.4C171.5 94.5 107 153 107 153v214h222.9c30.1 0 49.8-33.6 34.9-59.8 17.7-11.3 23.7-35.2 13.4-53.5 17.7-11.3 23.7-35.2 13.4-53.5 30.5-19.6 20.3-68-15.4-74z"/></svg>