<svg xmlns="http://www.w3.org/2000/svg" width="304" height="304" viewBox="0 0 304 304"><path fill-rule="evenodd" clip-rule="evenodd" fill="#1DB7E9" d="M97.2 290.3c18.6 7.3 37.8 10.6 56.6 10.4 8.5-.1 16.9-1 25.1-2.5-3.3-1.1-6.6-2.2-9.9-3.5-28.3-11.1-51.8-29.1-69.4-51.2-18.3-22.9-30.2-50.4-34.6-79.4-2.2-15.2-.4-30.8 5.2-45.1 5.5-13.8 14.5-26.5 27-36.4 2.9-2.3 6-4.4 9.1-6.4-2.2.2-4.3.5-6.5.9-38.5 6-73.3 27.1-96.6 58.1-4.2 39 7.2 78.4 31.8 109.2 15.8 19.9 36.9 36 62.2 45.9z"/><path fill-rule="evenodd" clip-rule="evenodd" fill="#CCC" d="M97.4 289.8c9.2 3.6 18.5 6.2 27.8 8 9.6 1.8 19.1 2.5 28.6 2.4 4.2-.1 8.4-.3 12.6-.7 3.4-.3 6.8-.8 10.2-1.4-1-.3-1.9-.6-2.8-1-1.6-.6-3.3-1.2-4.9-1.8-13.9-5.5-26.7-12.6-38.3-21.1-11.9-8.8-22.4-19-31.4-30.3-9.2-11.5-16.7-24.2-22.6-37.5-5.8-13.4-9.9-27.6-12.1-42.1-1.1-7.6-1.2-15.4-.4-23 .9-7.6 2.7-15.2 5.6-22.4 2.8-7.1 6.5-13.8 11.1-20.1 4.5-6 9.8-11.6 16-16.5 1.5-1.2 3-2.3 4.5-3.3.8-.6 1.7-1.1 2.5-1.7-.2 0-.5.1-.7.1-1.1.1-2.2.3-3.2.5-19.2 3-37.4 9.7-53.7 19.5-16.4 9.8-30.8 22.8-42.4 38.3-2.1 19.4-.3 38.8 5.1 57.3 5.4 18.5 14.4 36 26.6 51.4 8 10 17.3 19.1 27.9 26.9 10.2 7.3 21.6 13.6 34 18.5zm27.6 9.1c-9.4-1.7-18.8-4.4-28-8-12.5-4.9-24-11.3-34.3-18.9-10.6-7.8-20.1-17-28.1-27.1-12.3-15.5-21.4-33.1-26.8-51.8-5.4-18.7-7.2-38.3-5.1-57.9v-.2l.1-.1c11.7-15.6 26.3-28.8 42.8-38.7 16.5-9.9 34.8-16.7 54.1-19.7 1.1-.2 2.2-.3 3.2-.5 1.1-.2 2.2-.3 3.2-.4l2.6-.3-2.2 1.4c-1.6 1-3.1 2-4.6 3-1.5 1-3 2.1-4.4 3.3-6.1 4.9-11.4 10.4-15.8 16.3-4.6 6.2-8.2 12.8-11 19.8-2.8 7.1-4.6 14.5-5.5 22.1-.9 7.5-.8 15.2.4 22.7 2.2 14.4 6.2 28.5 12 41.8C83.4 219 90.9 231.6 100 243c8.9 11.2 19.4 21.4 31.2 30.1 11.4 8.4 24.1 15.5 38 21 1.6.6 3.2 1.2 4.9 1.8 1.7.6 3.3 1.2 5 1.7l2.2.7-2.2.4c-4.2.8-8.3 1.4-12.6 1.8-4.2.4-8.4.6-12.6.7-9.6.2-19.3-.6-28.9-2.3z"/><path fill-rule="evenodd" clip-rule="evenodd" fill="#0B56A6" d="M58.6 34.5C43 46.9 30.5 61.9 21.4 78.3c-4.1 7.4-7.6 15.1-10.4 23 2.6-2.3 5.2-4.6 8-6.8C42.7 75.6 70 64.2 98 60c29-4.3 58.7-1 86 9.7 14.3 5.7 26.9 15 36.5 27.1 11.9 15 18.5 33.4 19 52.5 16.5-37.6 16.6-80.9.4-118.7-31.6-23.1-71.4-32.9-110.5-27-25.1 3.7-49.5 13.9-70.8 30.9z"/><path fill-rule="evenodd" clip-rule="evenodd" fill="#CCC" d="M59 34.9C51.3 41 44.4 47.8 38.3 55 32 62.4 26.5 70.3 21.9 78.5c-2 3.7-3.9 7.4-5.7 11.2-1.4 3.1-2.7 6.3-3.9 9.6.8-.7 1.5-1.3 2.2-1.9 1.3-1.1 2.7-2.2 4.1-3.3C30.3 84.7 42.9 77.2 56 71.5c13.5-5.9 27.6-9.9 41.9-12 14.5-2.2 29.3-2.4 43.8-.8 14.5 1.6 28.7 5.2 42.4 10.5h.1c7.2 2.8 14 6.6 20.1 11.2 6.2 4.6 11.8 10 16.6 16 6 7.5 10.6 15.9 13.9 24.8 3 8.1 4.7 16.7 5.2 25.5 7.5-18.1 11.3-37.4 11.4-56.7.1-20.1-3.9-40.3-11.9-59.1-15.8-11.4-33.5-19.6-52.2-24.2-18.7-4.6-38.3-5.5-57.8-2.6-12.7 1.9-25.2 5.5-37.2 10.7C80.6 19.9 69.4 26.6 59 34.9zM37.4 54.2c6.2-7.2 13.1-14 20.9-20.2 10.5-8.4 21.8-15.1 33.5-20.2 12.1-5.3 24.7-8.9 37.5-10.8 19.6-2.9 39.4-2 58.2 2.6 18.9 4.6 36.8 12.9 52.7 24.5l.1.1.1.2c8.1 19 12.2 39.3 12.1 59.7-.1 20.3-4.2 40.6-12.5 59.5l-1 2.4-.1-2.6c-.2-9.5-2-18.8-5.2-27.7-3.2-8.8-7.8-17.1-13.7-24.5-4.8-6-10.3-11.3-16.4-15.8-6.1-4.5-12.7-8.2-19.8-11h-.1c-13.6-5.3-27.8-8.8-42.2-10.5-14.4-1.6-29-1.4-43.5.8-14.2 2.1-28.2 6.1-41.6 12-13 5.7-25.5 13.1-37.2 22.4-1.4 1.1-2.7 2.2-4 3.3-1.4 1.2-2.7 2.3-3.9 3.4l-1.7 1.5.8-2.1c1.4-4 3-7.9 4.7-11.8 1.7-3.8 3.6-7.6 5.7-11.3 4.7-8.5 10.2-16.4 16.6-23.9z"/><path fill-rule="evenodd" clip-rule="evenodd" fill="#4DC8B1" d="M299.5 129c-3-19.8-9.7-38.1-19.3-54.2-4.3-7.3-9.3-14.1-14.7-20.5.7 3.4 1.4 6.9 1.9 10.3 4.5 30 .7 59.3-9.6 85.7-10.7 27.3-28.5 51.4-51.5 69.6-12.1 9.6-26.5 15.8-41.7 18.1-14.7 2.2-30.1.7-44.9-5.2-3.5-1.4-6.8-2.9-10.1-4.7 1.3 1.7 2.6 3.5 4 5.1 24.5 30.4 60.1 50 98.7 54.6 35.9-15.9 64.2-45.3 78.6-82.2 9.3-23.4 12.7-49.7 8.6-76.6z"/><path fill-rule="evenodd" clip-rule="evenodd" fill="#CCC" d="M298.9 129.1c-1.5-9.8-3.8-19.1-7-28.1-3.3-9.2-7.4-17.8-12.2-26-2.2-3.6-4.4-7.1-6.9-10.5-2-2.8-4.1-5.5-6.3-8.2.2 1 .4 2 .6 2.9.3 1.8.6 3.5.9 5.2 2.2 14.8 2.4 29.5.8 43.7-1.7 14.7-5.2 28.9-10.5 42.3-5.4 13.7-12.5 26.6-21.2 38.3-8.7 11.8-18.9 22.4-30.4 31.5-6.1 4.8-12.7 8.8-19.8 11.9-7.1 3.1-14.5 5.2-22.2 6.4-7.5 1.1-15.2 1.3-22.9.4-7.5-.9-15-2.7-22.3-5.6-1.7-.7-3.5-1.4-5.1-2.2-.9-.4-1.8-.9-2.7-1.3.1.2.3.4.4.5.7.9 1.3 1.7 2 2.6 12.2 15.1 27.1 27.5 43.8 36.8 16.7 9.2 35.2 15.3 54.4 17.6 17.8-7.9 33.8-19.2 47.1-33.1 13.3-13.9 23.9-30.4 31.1-48.7 4.7-11.9 7.9-24.6 9.3-37.6 1.3-12.6 1.1-25.6-.9-38.8zm-5.9-28.4c3.2 9 5.6 18.4 7.1 28.3 2 13.3 2.2 26.4.8 39.1-1.5 13.1-4.7 25.9-9.4 37.9-7.2 18.5-18 35.1-31.4 49.1-13.4 14-29.6 25.4-47.6 33.4l-.1.1h-.2c-19.4-2.3-38.1-8.4-54.9-17.7-16.8-9.3-31.9-21.8-44.1-37.1-.7-.8-1.4-1.7-2-2.6-.7-.9-1.3-1.7-2-2.6l-1.5-2.1 2.3 1.2c1.6.9 3.2 1.7 4.9 2.5 1.7.8 3.3 1.5 5.1 2.2 7.2 2.8 14.6 4.7 22 5.5 7.6.9 15.2.7 22.6-.4 7.6-1.1 14.9-3.2 21.9-6.3 7-3 13.5-6.9 19.5-11.7 11.4-9.1 21.6-19.7 30.2-31.3 8.6-11.7 15.7-24.5 21.1-38.1 5.2-13.3 8.8-27.5 10.4-42 1.6-14.1 1.4-28.7-.8-43.4-.3-1.7-.6-3.5-.9-5.2-.3-1.7-.7-3.4-1-5.1l-.5-2.2 1.5 1.7c2.7 3.2 5.4 6.6 7.8 10 2.5 3.4 4.8 7 6.9 10.6 4.9 8.2 9.1 17 12.3 26.2z"/></svg>