<svg xmlns="http://www.w3.org/2000/svg" xmlns:xlink="http://www.w3.org/1999/xlink" width="40.5" height="34" viewBox="0 0 40.5 34"><defs><path id="a" d="M0 0h42.5v34H0z"/></defs><clipPath id="b"><use xlink:href="#a" overflow="visible"/></clipPath><path clip-path="url(#b)" d="M40.8 1.6c0-1-.7-1.7-1.7-1.7H1.6C.6-.1-.1.6-.1 1.6V5c0 1 .7 1.7 1.7 1.7h37.5c1 0 1.7-.7 1.7-1.7V1.6zM40.8 15.3c0-1-.7-1.7-1.7-1.7H1.6c-1 0-1.7.7-1.7 1.7v3.4c0 1 .7 1.7 1.7 1.7h37.5c1 0 1.7-.7 1.7-1.7v-3.4zM40.8 28.9c0-1-.7-1.7-1.7-1.7H1.6c-1 0-1.7.7-1.7 1.7v3.4c0 1 .7 1.7 1.7 1.7h37.5c1 0 1.7-.7 1.7-1.7v-3.4z"/></svg>