<svg xmlns="http://www.w3.org/2000/svg" fill="#fff" width="384" height="270" viewBox="0 0 384 270"><path d="M51.2 51.8h179.2v166.4H51.2V51.8zM236.8 39h-192c-3.5 0-6.4 2.9-6.4 6.4v179.2c0 3.5 2.9 6.4 6.4 6.4h192c3.5 0 6.4-2.9 6.4-6.4V45.4c0-3.5-2.9-6.4-6.4-6.4z"/><path d="M371.2 250.2c0 3.5-2.9 6.4-6.4 6.4h-83.2V13.4h83.2c3.5 0 6.4 2.9 6.4 6.4v230.4zm-102.4 6.4H19.2c-3.5 0-6.4-2.9-6.4-6.4V19.8c0-3.5 2.9-6.4 6.4-6.4h249.6v243.2zm96-256H19.2C8.6.6 0 9.2 0 19.8v230.4c0 10.6 8.6 19.2 19.2 19.2h345.6c10.6 0 19.2-8.6 19.2-19.2V19.8C384 9.2 375.4.6 364.8.6z"/><path d="M307.2 192.6h38.4v12.8h-38.4v-12.8zm44.8-12.8h-51.2c-3.5 0-6.4 2.9-6.4 6.4v25.6c0 3.5 2.9 6.4 6.4 6.4H352c3.5 0 6.4-2.9 6.4-6.4v-25.6c0-3.5-2.9-6.4-6.4-6.4zM320 147.8c-3.5 0-6.4-2.9-6.4-6.4 0-3.5 2.9-6.4 6.4-6.4s6.4 2.9 6.4 6.4c0 3.5-2.9 6.4-6.4 6.4zm18-12.8c-3.5-10-14.5-15.2-24.4-11.7-7.7 2.7-12.8 10-12.8 18.1 0 10.6 8.5 19.2 19.1 19.2 8.1 0 15.4-5.1 18.1-12.8h14V135h-14zM294.4 51.8h12.8v12.8h-12.8zM320 51.8h38.4v12.8H320zM294.4 71h12.8v12.8h-12.8zM320 71h38.4v12.8H320zM294.4 90.2h12.8V103h-12.8zM320 90.2h38.4V103H320z"/></svg>