<svg xmlns="http://www.w3.org/2000/svg" xmlns:xlink="http://www.w3.org/1999/xlink" width="400" height="505.3" fill="#fff" viewBox="0 0 400 505.3"><path d="M195.5 168.6c-4.7 0-8.4 3.8-8.4 8.4v16.8c0 4.7 3.8 8.4 8.4 8.4 4.6 0 8.4-3.7 8.4-8.4V177c0-4.6-3.7-8.4-8.4-8.4zM229.2 168.6c-4.7 0-8.4 3.8-8.4 8.4v16.8c0 4.7 3.8 8.4 8.4 8.4 4.6 0 8.4-3.7 8.4-8.4V177c.1-4.6-3.7-8.4-8.4-8.4zM263 168.6c-4.6 0-8.4 3.8-8.4 8.4v16.8c0 4.7 3.8 8.4 8.4 8.4s8.4-3.7 8.4-8.4V177c0-4.6-3.8-8.4-8.4-8.4zM296.7 168.6c-4.6 0-8.4 3.8-8.4 8.4v16.8c0 4.7 3.8 8.4 8.4 8.4 4.7 0 8.4-3.7 8.4-8.4V177c0-4.6-3.7-8.4-8.4-8.4z"/><defs><path id="a" d="M0-.1h400v505.4H0z"/></defs><clipPath id="b"><use xlink:href="#a" overflow="visible"/></clipPath><path clip-path="url(#b)" d="M293.6 126.4H77.4c-9.3 0-16.8-7.6-16.8-16.9 0-9.3 7.6-16.8 16.8-16.8h122.8c28.4 0 55.8 8.3 79.4 24l14.2 9.7h-.2zm9.5-14.3l-14.1-9.4c-26.4-17.6-57.1-26.9-88.8-26.9H77.4c-18.6 0-33.7 15.2-33.7 33.7 0 18.6 15.2 33.8 33.7 33.8h216.2c7.6 0 14.1-4.9 16.3-12.1 2.2-7.3-.6-14.9-6.8-19.1z"/><path clip-path="url(#b)" d="M322.5 111.9c21.5 26 33.3 58.8 33.2 92.5 0 8.2-6.8 14.9-15.1 14.9H33.5c-8.4 0-15.1-6.8-15.1-15.1V126c0-37 30.1-67 67-67h125.2c12.6 0 25.2 1.6 37.3 4.9 29.5 7.9 58.8 11.9 87.2 11.9h3.7v8.4h-3.2c-6.6 0-12.6 3.7-15.4 9.8-2.7 6-1.8 12.8 2.3 17.9zM69 236h50.6v16.9H69V236zM94.3 33.6h8.4V42h-8.4v-8.4zm50.6 0h8.4V42h-8.4v-8.4zm-.1 402.7c1 14.8-4.1 27.8-15.4 39.4-2.2 2.1-4.6 3.8-7.1 5.4 5.5-14.7 6-26.7 5.7-36.7-.7-21-6.3-45.4-13.1-67.2 13.8 15.7 28.4 37.2 29.9 59.1zm-101-.4c1.5-21.6 15.9-42.8 29.7-58.5-6.7 21.3-12.1 45.3-12.9 66.1-.3 9.5.2 22 6 37.6-2.5-1.6-4.9-3.3-7.1-5.3-11.6-12-16.7-25-15.7-39.9zm60.4 44.8c-3 5.3-6.5 8.4-9.8 8.4-3.3 0-6.9-3-9.6-7.8-7.1-15.5-7.7-28-7.3-37.2.8-23.8 8.4-52.5 16.7-75.4 8.4 23.4 16.1 52.4 16.9 76.2.3 9.6-.3 21.3-6.9 35.8zm243.1-379.6c4.6 0 8.4-3.8 8.4-8.4v-8.4c23.2 0 42.2-18.9 42.2-42.2S379-.1 355.8-.1c-4.7 0-8.4 3.8-8.4 8.4 0 4.6 3.8 8.4 8.4 8.4 14 0 25.3 11.3 25.3 25.3s-11.3 25.3-25.3 25.3c0-4.6-3.8-8.4-8.4-8.4h-12.2c-26.9 0-54.7-3.8-82.8-11.4-13.6-3.7-27.6-5.5-41.7-5.5h-40.4V25.2c0-4.6-3.8-8.4-8.4-8.4h-25.3c-4.6 0-8.4 3.7-8.4 8.4v16.9h-8.4V25.2c0-4.6-3.7-8.4-8.4-8.4H85.8c-4.6 0-8.4 3.7-8.4 8.4v17.3C34.9 46.5 1.5 82.4 1.5 126v78.1c0 17.6 14.4 32 32 32h18.6v25.3c0 4.6 3.8 8.4 8.4 8.4h25.3v71.9c-12.6 10.5-55.8 49.5-58.9 93-1.4 19.7 5.5 37.5 20.6 52.9l.3.3c12 11.2 27.5 17 43.2 17.8 1.1.2 2.1.2 3.3.2 1.2 0 2.4-.1 3.5-.3 15.7-.8 31.2-6.8 43.2-18 14.9-15.2 21.8-32.9 20.5-52.5-3-43.7-46.5-83.2-58.9-93.5v-71.8H128c4.7 0 8.4-3.8 8.4-8.4V236h204.2c17.6 0 32-14.2 32-31.7 0-37.6-13.1-74.3-37-103.2h11.7z"/></svg>