<svg xmlns="http://www.w3.org/2000/svg" width="100" height="101" viewBox="0 0 100 101"><linearGradient id="a" gradientUnits="userSpaceOnUse" x1="48" y1="76" x2="81" y2="76"><stop offset="0" stop-color="#f5ca3f"/><stop offset="1" stop-color="#eec02d"/></linearGradient><path fill="url(#a)" d="M48 82l33-19-4 26z"/><path fill="#BD9924" d="M52 87l33-19-4 26z"/><linearGradient id="b" gradientUnits="userSpaceOnUse" x1="12" y1="71.5" x2="45" y2="71.5"><stop offset="0" stop-color="#f5ca3f"/><stop offset="1" stop-color="#eec02d"/></linearGradient><path fill="url(#b)" d="M22 55l23 29-23 4-10-25z"/><path fill="#F5773E" d="M6 56l11.5 38.1c.4 2.2 2.4 3.9 4.5 3.9h56c2.1 0 4.1-1.7 4.5-3.9L94 56H6zm25.4 27h-4.7c-.9 0-1.7-.6-1.8-1.3l-3.4-16.9c-.2-1 .5-1.8 1.5-1.8h5.4c1 0 1.9.8 2.1 1.8l2.3 16.9c0 .7-.6 1.3-1.4 1.3zm14 0h-4.7c-.9 0-1.6-.6-1.7-1.3l-1.5-16.9c-.1-1 .7-1.8 1.7-1.8h5.4c1 0 1.8.8 1.9 1.8l.4 16.9c0 .7-.7 1.3-1.5 1.3zM61 81.7c0 .7-.8 1.3-1.6 1.3h-4.7c-.9 0-1.5-.6-1.5-1.3l.4-16.9c0-1 .9-1.8 1.9-1.8h5.4c1 0 1.7.8 1.7 1.8L61 81.7zm17.6-16.9l-3.4 16.9c-.1.7-1 1.3-1.8 1.3h-4.7c-.9 0-1.5-.6-1.4-1.3l2.3-16.9c.1-1 1.1-1.8 2.1-1.8h5.4c1 0 1.7.8 1.5 1.8z"/><path fill="#F5773E" d="M98 51c0 3.3-2.7 6-6 6H8c-3.3 0-6-2.7-6-6V41c0-3.3 2.7-6 6-6h84c3.3 0 6 2.7 6 6v10z"/><path fill="#DF413D" d="M48.4 12.5c.1 3.2-2.3 5.9-5.5 6-3.2.1-5.9-2.3-6-5.5-.1-3.2 2.3-5.9 5.5-6 3.2-.1 5.9 2.3 6 5.5z"/><path opacity=".4" fill="#7A7A7A" d="M29.2 35l-14.3 7.2c-1.5.7-2.1 2.6-1.3 4 .5.9 1.4 1.5 2.4 1.6.6.1 1.1 0 1.7-.3L42.6 35H29.2zM82.8 35L81 44.3c-.3 1.6.7 3.2 2.4 3.5 1 .2 2.1-.2 2.7-.9.4-.4.7-.9.8-1.5l2-10.4h-6.1z"/><path fill="#DBDBDB" d="M44.9 10.5c-1.3-1.1-3.1-.9-4.2.3L13.7 42c-1.1 1.3-.9 3.1.3 4.2.6.5 1.3.7 2 .7.8 0 1.7-.4 2.3-1l26.9-31.2c1.1-1.2 1-3.1-.3-4.2z"/><path fill="#DF413D" d="M64.3 3c3 1 4.7 4.3 3.6 7.3-1 3-4.3 4.7-7.3 3.6-3-1-4.7-4.3-3.6-7.3C58 3.7 61.3 2 64.3 3z"/><path fill="#DBDBDB" d="M85.6 42.5L65.2 6.8c-.8-1.4-2.7-1.9-4.1-1.1-1.4.8-1.9 2.7-1.1 4.1l20.4 35.7C81 46.5 82 47 83 47c.5 0 1-.1 1.5-.4 1.4-.8 1.9-2.7 1.1-4.1z"/><path opacity=".4" fill="#7A7A7A" d="M93.1 59l.6-2H6.3l.6 2z"/></svg>