<svg xmlns="http://www.w3.org/2000/svg" fill="#fff" width="371" height="321" viewBox="0 0 371 321"><path d="M358 308.4H12.4c-.2 0-.4-.2-.4-.4v-51.6h346.4V308c0 .2-.2.4-.4.4zM12.4 13.2H358c.2 0 .4.2.4.4v58H12v-58c0-.2.2-.4.4-.4zM12 83.6h346.4v160.8H12V83.6zM358 1.2H12.4C5.6 1.2 0 6.8 0 13.6V308c0 6.8 5.6 12.4 12.4 12.4H358c6.8 0 12.4-5.6 12.4-12.4V13.6c0-6.8-5.6-12.4-12.4-12.4z"/><path d="M159.6 38.8c3.7 0 6.8 3.1 6.8 6.8s-3 6.8-6.8 6.8-6.8-3.1-6.8-6.8 3.1-6.8 6.8-6.8zm0 25.6c10.4 0 18.8-8.4 18.8-18.8 0-8.3-5.4-15.3-12.8-17.8v-1.4c0-3.3-2.7-6-6-6s-6 2.7-6 6v1.4c-7.4 2.5-12.8 9.5-12.8 17.8 0 10.4 8.4 18.8 18.8 18.8zM210.8 38.8c3.8 0 6.8 3.1 6.8 6.8s-3.1 6.8-6.8 6.8-6.8-3.1-6.8-6.8 3.1-6.8 6.8-6.8zm0 25.6c10.4 0 18.8-8.4 18.8-18.8 0-8.3-5.4-15.3-12.8-17.8v-1.4c0-3.3-2.7-6-6-6s-6 2.7-6 6v1.4c-7.4 2.5-12.8 9.5-12.8 17.8 0 10.4 8.4 18.8 18.8 18.8zM262 38.8c3.8 0 6.8 3.1 6.8 6.8s-3.1 6.8-6.8 6.8-6.8-3.1-6.8-6.8 3-6.8 6.8-6.8zm0 25.6c10.4 0 18.8-8.4 18.8-18.8 0-8.3-5.4-15.3-12.8-17.8v-1.4c0-3.3-2.7-6-6-6s-6 2.7-6 6v1.4c-7.4 2.5-12.8 9.5-12.8 17.8 0 10.4 8.4 18.8 18.8 18.8zM313.2 38.8c3.8 0 6.8 3.1 6.8 6.8s-3.1 6.8-6.8 6.8-6.8-3.1-6.8-6.8 3-6.8 6.8-6.8zm0 25.6c10.4 0 18.8-8.4 18.8-18.8 0-8.3-5.4-15.3-12.8-17.8v-1.4c0-3.3-2.7-6-6-6s-6 2.7-6 6v1.4c-7.4 2.5-12.8 9.5-12.8 17.8 0 10.4 8.4 18.8 18.8 18.8zM57.2 38.8c3.8 0 6.8 3.1 6.8 6.8s-3.1 6.8-6.8 6.8-6.8-3.1-6.8-6.8 3-6.8 6.8-6.8zm0 25.6C67.6 64.4 76 56 76 45.6c0-8.3-5.4-15.3-12.8-17.8v-1.4c0-3.3-2.7-6-6-6s-6 2.7-6 6v1.4c-7.4 2.5-12.8 9.5-12.8 17.8 0 10.4 8.4 18.8 18.8 18.8zM108.4 38.8c3.8 0 6.8 3.1 6.8 6.8s-3.1 6.8-6.8 6.8c-3.7 0-6.8-3.1-6.8-6.8s3.1-6.8 6.8-6.8zm0 25.6c10.4 0 18.8-8.4 18.8-18.8 0-8.3-5.4-15.3-12.8-17.8v-1.4c0-3.3-2.7-6-6-6s-6 2.7-6 6v1.4c-7.4 2.5-12.8 9.5-12.8 17.8 0 10.4 8.4 18.8 18.8 18.8zM50.4 134.8H320v84H50.4v-84zm275.6-12H44.4c-3.3 0-6 2.7-6 6v96c0 3.3 2.7 6 6 6H326c3.3 0 6-2.7 6-6v-96c0-3.3-2.7-6-6-6zM44.4 109.2H326c3.3 0 6-2.7 6-6s-2.7-6-6-6H44.4c-3.3 0-6 2.7-6 6s2.7 6 6 6zM326 270H44.4c-3.3 0-6 2.7-6 6s2.7 6 6 6H326c3.3 0 6-2.7 6-6s-2.7-6-6-6z"/></svg>