<svg xmlns="http://www.w3.org/2000/svg" fill="#1578e0" xmlns:xlink="http://www.w3.org/1999/xlink" width="393" height="491" viewBox="0 0 393 491"><defs><path id="a" d="M.1 0H393v490.9H.1z"/></defs><clipPath id="b"><use xlink:href="#a" overflow="visible"/></clipPath><path clip-path="url(#b)" d="M196.8 261.2c72.4 0 98.5-72.5 105.3-132.1C310.6 55.6 275.8.4 196.8.4S83 55.6 91.5 129.1c6.8 59.5 32.8 132.1 105.3 132.1z"/><path clip-path="url(#b)" d="M392.8 433.9c-.8-23.1-3.5-46.4-7.5-69.1-4.9-27.6-11.1-68-35.2-86-13.9-10.4-32-13.8-47.9-20.1-7.8-3-14.7-6.1-21.2-9.5-22 24.1-50.7 36.8-84.1 36.8-33.4 0-62.1-12.6-84.1-36.8-6.5 3.4-13.5 6.5-21.2 9.5-15.9 6.3-34 9.7-47.9 20.1-24.1 18-30.3 58.4-35.2 86-4 22.8-6.7 46-7.5 69.1-.8 17.9 8 20.4 23 25.9 18.8 6.8 38.1 11.8 57.6 15.9 37.7 8 76.5 14.1 115.1 14.3 38.7-.3 77.5-6.4 115.1-14.3 19.5-4.1 38.9-9.1 57.6-15.9 15.2-5.5 24-8 23.4-25.9z"/></svg>