<svg xmlns="http://www.w3.org/2000/svg" xmlns:xlink="http://www.w3.org/1999/xlink" width="322" height="411" viewBox="0 0 322 411"><path d="M137.5 320.4c-16 14.8-38.1 18.1-57.6 8.6-7.1-3.4-13.1-8.1-17.7-13.8l-26.7 59c-1.2 2.7.1 4.7.8 5.4.6.7 2.4 2.4 5.3 1.6l19.4-5.4c2.2-.6 4.4-.9 6.7-.9 9.3 0 18.1 5.3 22.3 14l8.8 18.1c1.3 2.7 3.7 2.9 4.7 2.9s3.4-.3 4.6-3l42.4-93.8c-4.8 1.4-9.2 3.8-13 7.3z"/><defs><path id="a" d="M.1 0H322v411H.1z"/></defs><clipPath id="b"><use xlink:href="#a" overflow="visible"/></clipPath><path clip-path="url(#b)" d="M286.1 374.2l-26.7-59c-4.7 5.6-10.7 10.3-17.7 13.8-19.6 9.4-41.7 6.1-57.6-8.6-3.8-3.5-8.2-5.9-12.8-7.2l42.4 93.8c1.2 2.7 3.6 3 4.6 3 1 0 3.4-.2 4.7-2.9l8.8-18.1c4.2-8.7 13-14 22.3-14 2.2 0 4.4.3 6.7.9l19.4 5.4c2.8.8 4.6-.9 5.3-1.6.5-.8 1.8-2.8.6-5.5z"/><path clip-path="url(#b)" d="M160.8 269.1c-58.1 0-105.3-47.2-105.3-105.3 0-58.1 47.2-105.3 105.3-105.3 58.1 0 105.3 47.2 105.3 105.3 0 58.1-47.2 105.3-105.3 105.3zm146.3-102.5c-22.2-15.2-29-45.3-15.6-68.6 8-14 3.9-27.8-2.7-36.1s-19.1-15.4-34.6-10.7c-25.7 7.9-53.5-5.5-63.4-30.5C184.9 5.7 171.5.3 160.9.3s-24 5.3-29.9 20.4c-9.9 25-37.7 38.4-63.4 30.5-15.4-4.7-28 2.4-34.6 10.7C26.4 70.2 22.2 84 30.3 98c13.4 23.3 6.5 53.4-15.6 68.6C1.2 175.8-1 190 1.4 200.3c2.4 10.3 10.6 22.2 26.5 24.6 26.5 4.1 45.8 28.2 43.8 55-1.2 16.1 8.6 26.7 18.1 31.3 9.5 4.6 23.9 5.6 35.8-5.4 9.9-9.1 22.5-13.7 35.2-13.7 12.7 0 25.3 4.6 35.2 13.7 11.9 11 26.3 9.9 35.8 5.4 9.5-4.6 19.3-15.2 18.1-31.3-2-26.8 17.3-50.9 43.8-55 16-2.4 24.2-14.3 26.5-24.6 2.4-10.3.2-24.5-13.1-33.7z"/><path d="M204.7 155.5l-53.3 38.9c-1.7 1.2-3.7 1.9-5.8 1.9-.5 0-1.1 0-1.6-.1-2.6-.4-4.9-1.9-6.4-4l-15.9-22.7c-3.1-4.4-2-10.6 2.4-13.7 4.4-3.1 10.6-2 13.7 2.4l10.2 14.5 45.2-33c4.4-3.2 10.5-2.2 13.7 2.1 3.1 4.4 2.2 10.5-2.2 13.7zm-43.9-77.3c-47.2 0-85.7 38.4-85.7 85.7 0 47.2 38.4 85.7 85.7 85.7 47.2 0 85.7-38.4 85.7-85.7 0-47.3-38.5-85.7-85.7-85.7z"/></svg>