<svg version="1.1" xmlns="http://www.w3.org/2000/svg" x="0" y="0" width="316" height="408" fill="#a8d2ff" viewBox="0 0 316 408" xml:space="preserve"><path d="M302.3 289H197.5v104.9H13.9V13.7h288.4V289zm-91.7 95.6v-82.5h82.6l-82.6 82.5zM.9.6V407h205.9l108.7-108.7V.6H.9z"/><path d="M212.8 148.1c-4.5-17.6-17.2-31.9-33.8-38.6 4.9-5.1 7.9-12.1 7.9-19.7 0-15.8-12.9-28.7-28.7-28.7S129.4 74 129.4 89.9c0 7.6 3 14.5 7.9 19.7-16.6 6.6-29.4 21-33.8 38.6-6.9-10.3-10.9-22.7-10.9-36.1 0-36.2 29.4-65.5 65.5-65.5S223.7 76 223.7 112c0 13.3-4 25.7-10.9 36.1zm-70.2-58.2c0-8.6 7-15.6 15.6-15.6s15.6 7 15.6 15.6-7 15.6-15.6 15.6c-8.7 0-15.6-7.1-15.6-15.6zm15.6 87.7c-16.6 0-31.8-6.2-43.3-16.5.5-23.5 19.7-42.5 43.3-42.5 23.6 0 42.9 19 43.4 42.5-11.7 10.2-26.8 16.5-43.4 16.5zm0-144.2c-43.4 0-78.6 35.3-78.6 78.6 0 43.4 35.3 78.6 78.6 78.6 43.4 0 78.6-35.3 78.6-78.6s-35.3-78.6-78.6-78.6zM40.2 223.5h236v13.1h-236zM40.2 282.4h118v13.1h-118zM92.6 341.5h13.1v13.1H92.6zM118.8 341.5h13.1v13.1h-13.1zM66.4 341.5h13.1v13.1H66.4z"/></svg>