<svg xmlns="http://www.w3.org/2000/svg" width="409" height="410" fill="#fff" viewBox="0 0 409 410"><path d="M340.4 340.6c-36.3 36.3-84.7 56.4-136 56.4-51.4 0-99.7-20-136-56.4C32 304.3 12 256 12 204.6c0-51.4 20-99.7 56.4-136 36.3-36.3 84.7-56.4 136-56.4 51.4 0 99.7 20 136 56.4 36.3 36.3 56.4 84.7 56.4 136 0 51.4-20 99.7-56.4 136zm8.5-280.5C310.3 21.5 259 .2 204.4.2 149.8.2 98.5 21.5 59.9 60.1 21.3 98.7 0 150 0 204.6c0 54.6 21.3 105.9 59.9 144.5 38.6 38.6 89.9 59.9 144.5 59.9 54.6 0 105.9-21.3 144.5-59.9 38.6-38.6 59.9-89.9 59.9-144.5 0-54.6-21.3-105.9-59.9-144.5z"/><path d="M204.4 210.6c1.6 0 3.1-.6 4.2-1.8 1.1-1.1 1.8-2.7 1.8-4.2 0-1.6-.6-3.1-1.8-4.2-1.1-1.1-2.7-1.8-4.2-1.8-1.6 0-3.1.6-4.2 1.8-1.1 1.1-1.8 2.7-1.8 4.2 0 1.6.6 3.1 1.8 4.2 1.1 1.2 2.6 1.8 4.2 1.8z"/><path d="M322.3 322.5c-2.5 2.5-5.8 3.9-9.3 3.9-3.5 0-6.8-1.4-9.3-3.9l-71.2-71.1 85.9 48.5 3.9 3.9c2.5 2.5 3.9 5.8 3.9 9.3 0 3.6-1.4 7-3.9 9.4zm-181.5-35.6l33.5-59.2c1 1.3 2.1 2.6 3.3 3.8 3.3 3.3 7 5.8 11 7.7l-47.8 47.7zm-45 39.5c-3.5 0-6.8-1.4-9.3-3.9-2.5-2.5-3.9-5.8-3.9-9.3 0-3.5 1.4-6.8 3.9-9.3l71.2-71.1-48.5 85.9-3.9 3.9c-2.7 2.4-6 3.8-9.5 3.8zM122.1 141l59.2 33.5c-1.3 1-2.6 2.1-3.8 3.3-3.3 3.3-5.8 7-7.7 11L122.1 141zM86.5 86.7c2.5-2.5 5.8-3.9 9.3-3.9 3.5 0 6.8 1.4 9.3 3.9l71.2 71.2-85.9-48.5-3.9-3.9c-2.5-2.5-3.9-5.8-3.9-9.3 0-3.7 1.4-7.1 3.9-9.5zM268 122.3l-33.5 59.2c-1-1.3-2.1-2.6-3.3-3.8-3.3-3.3-7-5.8-11-7.7l47.8-47.7zm45-39.5c3.5 0 6.8 1.4 9.3 3.9 2.5 2.5 3.9 5.8 3.9 9.3 0 3.5-1.4 6.8-3.9 9.3l-71.1 71.2 48.5-85.9 3.9-3.9c2.6-2.5 5.9-3.9 9.4-3.9zM186 186.2c5.1-5.1 11.7-7.6 18.4-7.6 6.7 0 13.3 2.5 18.4 7.6 10.1 10.1 10.1 26.6 0 36.8-10.1 10.1-26.6 10.1-36.8 0-10.1-10.2-10.1-26.6 0-36.8zm100.7 82l-59.2-33.5c1.3-1 2.6-2.1 3.8-3.3 3.3-3.3 5.8-7 7.7-11l47.7 47.8zm-44.4-61.3c.1-1.5.1-3 0-4.5l88.5-88.5c4.8-4.8 7.4-11.1 7.4-17.8 0-6.7-2.6-13.1-7.4-17.8-4.8-4.8-11.1-7.4-17.8-7.4-6.7 0-13.1 2.6-17.8 7.4l-88.5 88.5c-1.5-.1-3-.1-4.5 0l-88.5-88.5c-4.8-4.8-11.1-7.4-17.8-7.4-6.7 0-13.1 2.6-17.8 7.4-4.8 4.8-7.4 11.1-7.4 17.8 0 6.7 2.6 13.1 7.4 17.8l88.5 88.5c-.1 1.5-.1 3 0 4.5L78 295.4c-4.8 4.8-7.4 11.1-7.4 17.8 0 6.7 2.6 13.1 7.4 17.8 4.8 4.8 11.1 7.4 17.8 7.4 6.7 0 13.1-2.6 17.8-7.4l88.5-88.5c.8 0 1.5.1 2.3.1.8 0 1.5 0 2.3-.1l88.5 88.5c4.8 4.8 11.1 7.4 17.8 7.4 6.7 0 13.1-2.6 17.8-7.4 4.8-4.8 7.4-11.1 7.4-17.8 0-6.7-2.6-13.1-7.4-17.8l-88.5-88.5z"/></svg>