<svg xmlns="http://www.w3.org/2000/svg" xmlns:xlink="http://www.w3.org/1999/xlink" width="384" height="384" fill="#fff" viewBox="0 0 384 384"><defs><path id="a" d="M0 0h384v383.9H0z"/></defs><clipPath id="b"><use xlink:href="#a" overflow="visible"/></clipPath><path clip-path="url(#b)" d="M371.2 326.4c0 10.6-8.6 19.2-19.2 19.2h-25.6v-12.8H352c3.5 0 6.4-2.9 6.4-6.4V256c0-3.5-2.9-6.4-6.4-6.4h-25.6v-12.8H352c10.6 0 19.2 8.6 19.2 19.2v70.4zm-44.8-64h19.2V320h-19.2v-57.6zm-6.4-51.2H198.4c-3.5 0-6.4-2.9-6.4-6.4 0-3.5 2.9-6.4 6.4-6.4H320c3.5 0 6.4 2.9 6.4 6.4 0 3.5-2.9 6.4-6.4 6.4zm-6.4 19.2v134.4c0 3.5-2.9 6.4-6.4 6.4h-96c-3.5 0-6.4-2.9-6.4-6.4V224h108.8v6.4zM352 224h-25.6v-1.2c7.4-2.7 12.8-9.7 12.8-18 0-10.6-8.6-19.2-19.2-19.2H198.4c-10.6 0-19.2 8.6-19.2 19.2 0 8.3 5.4 15.4 12.8 18v142c0 10.6 8.6 19.2 19.2 19.2h96c10.6 0 19.2-8.6 19.2-19.2v-6.4H352c17.6 0 32-14.4 32-32V256c0-17.6-14.4-32-32-32z"/><path d="M217.6 262.4h12.8v70.4h-12.8zM217.6 236.8h12.8v12.8h-12.8zM306.4 102.4c-3-5.2-5.6-9.7-5.6-19.2H288c0 12.9 3.9 19.6 7.2 25.6 3 5.2 5.6 9.7 5.6 19.2s-2.6 14-5.6 19.2c-3.4 5.9-7.2 12.7-7.2 25.6h12.8c0-9.5 2.6-14 5.6-19.2 3.4-5.9 7.2-12.7 7.2-25.6 0-12.9-3.9-19.6-7.2-25.6zM268 102.4c-3-5.2-5.6-9.7-5.6-19.2h-12.8c0 12.9 3.9 19.6 7.2 25.6 3 5.2 5.6 9.7 5.6 19.2s-2.6 14-5.6 19.2c-3.4 5.9-7.2 12.7-7.2 25.6h12.8c0-9.5 2.6-14 5.6-19.2 3.4-5.9 7.2-12.7 7.2-25.6 0-12.9-3.9-19.6-7.2-25.6zM229.6 102.4c-3-5.2-5.6-9.7-5.6-19.2h-12.8c0 12.9 3.9 19.6 7.2 25.6 3 5.2 5.6 9.7 5.6 19.2s-2.6 14-5.6 19.2c-3.4 5.9-7.2 12.7-7.2 25.6H224c0-9.5 2.6-14 5.6-19.2 3.4-5.9 7.2-12.7 7.2-25.6 0-12.9-3.9-19.6-7.2-25.6z"/><g><defs><path id="c" d="M0 0h384v383.9H0z"/></defs><clipPath id="d"><use xlink:href="#c" overflow="visible"/></clipPath><path clip-path="url(#d)" d="M83.2 64c-7.1 0-12.8-5.7-12.8-12.8 0-7.1 5.7-12.8 12.8-12.8 7.1 0 12.8 5.7 12.8 12.8C96 58.3 90.3 64 83.2 64zm0-38.4c-14.1 0-25.6 11.5-25.6 25.6 0 14.1 11.5 25.6 25.6 25.6 14.1 0 25.6-11.5 25.6-25.6 0-14.1-11.5-25.6-25.6-25.6z"/><path clip-path="url(#d)" d="M153.6 204.8V224H51.2c-3.5 0-6.4 2.9-6.4 6.4v102.4c0 3.5 2.9 6.4 6.4 6.4h102.4V352c0 10.6-8.6 19.2-19.2 19.2H32c-10.6 0-19.2-8.6-19.2-19.2V204.8c10.6 0 19.2-8.6 19.2-19.2s-8.6-19.2-19.2-19.2v-28l22.1-11c2.2-1.1 3.5-3.3 3.5-5.7v-19.2H128v19.2c0 2.4 1.4 4.6 3.5 5.7l22.1 11v28c-10.6 0-19.2 8.6-19.2 19.2s8.6 19.2 19.2 19.2zm-96 32h96v89.6h-96v-89.6zM45.7 45.3c2.7-18.5 18.8-32.5 37.5-32.5s34.8 14 37.5 32.5l6.3 44.3H39.4l6.3-44.3zm107.9 133.9h6.4c3.5 0 6.4-2.9 6.4-6.4v-38.4c0-2.4-1.4-4.6-3.5-5.7l-22.1-11v-15.2h6.4V89.6H140l-6.6-46.1C129.8 18.7 108.3 0 83.2 0S36.6 18.7 33 43.5l-6.6 46.1h-7.2v12.8h6.4v15.2l-22.1 11C1.4 129.8 0 132 0 134.4v38.4c0 3.5 2.9 6.4 6.4 6.4h6.4c3.5 0 6.4 2.9 6.4 6.4 0 3.5-2.9 6.4-6.4 6.4H6.4c-3.5 0-6.4 2.9-6.4 6.4V352c0 17.6 14.4 32 32 32h102.4c17.6 0 32-14.4 32-32V198.4c0-3.5-2.9-6.4-6.4-6.4h-6.4c-3.5 0-6.4-2.9-6.4-6.4 0-3.5 2.9-6.4 6.4-6.4z"/></g></svg>