<svg xmlns="http://www.w3.org/2000/svg" width="34" height="39" viewBox="0 0 34 39"><path d="M15.9 18.3c0 .5.4.9.9.9s.9-.4.9-.9c0-1 .4-2 1-2.7 1.4-1.7 2.5-3.5 3.2-5.5.1-.3.1-.6-.1-.8-.2-.2-.5-.3-.8-.3h-8.5c-.3 0-.5.1-.7.4-.2.2-.2.5-.1.8.7 1.9 1.8 3.8 3.2 5.5.7.7 1 1.6 1 2.6zM17.7 21.8c0-.5-.4-.9-.9-.9s-.9.4-.9.9c0 1.2-.7 2.5-2.1 3.4-2.9 2.1-5 4.4-6.4 6.8-.2.3-.1.6 0 .8.1.3.4.4.7.4h17.1c.3 0 .6-.2.7-.4.2-.3.2-.6 0-.8-1.4-2.4-3.5-4.7-6.4-6.8-1.1-1-1.8-2.2-1.8-3.4z"/><path d="M5.8 34.6c.6-6 4.6-10.6 7.5-14.1l.2-.2c.5-.6.5-1.6 0-2.2l-.2-.2c-2.9-3.5-6.8-8.1-7.5-14.1h22c-.6 6-4.5 10.6-7.5 14.1l-.2.2c-.5.6-.5 1.6 0 2.2l.2.2c2.9 3.5 6.8 8.1 7.5 14.1h-22zm26 0h-.5c-.6-6.7-4.5-11.8-7.5-15.4 3-3.6 6.9-8.7 7.5-15.4h.5c.9 0 1.7-.8 1.7-1.7 0-.9-.8-1.7-1.7-1.7h-30C.9.4.1 1.2.1 2.1c0 .9.8 1.7 1.7 1.7h.5c.6 6.7 4.5 11.8 7.5 15.4-3 3.6-6.9 8.7-7.5 15.4h-.5c-.9 0-1.7.8-1.7 1.7S.9 38 1.8 38h29.9c.9 0 1.7-.8 1.7-1.7s-.7-1.7-1.6-1.7z"/></svg>