<svg xmlns="http://www.w3.org/2000/svg" xmlns:xlink="http://www.w3.org/1999/xlink" width="410" height="411" fill="#fff" viewBox="0 0 410 411"><path d="M184.5 68.7c3.8 0 6.8-3.1 6.8-6.8 0-3.8-3.1-6.8-6.8-6.8h-.1c-3.8 0-6.8 3.1-6.8 6.8.1 3.7 3.2 6.8 6.9 6.8zM198.2 109.6c3.8 0 6.8-3.1 6.8-6.8 0-3.8-3.1-6.8-6.8-6.8h-.1c-3.8 0-6.8 3.1-6.8 6.8 0 3.8 3.1 6.8 6.9 6.8zM239.1 96c3.8 0 6.8-3.1 6.8-6.8 0-3.8-3.1-6.8-6.8-6.8h-.1c-3.8 0-6.8 3.1-6.8 6.8.1 3.7 3.2 6.8 6.9 6.8zM252.8 123.3c-3.8 0-6.9 3.1-6.9 6.8 0 3.8 3.1 6.8 6.9 6.8 3.8 0 6.8-3.1 6.8-6.8 0-3.8-3-6.8-6.8-6.8z"/><defs><path id="a" d="M.1 0H410v411H.1z"/></defs><clipPath id="b"><use xlink:href="#a" overflow="visible"/></clipPath><path clip-path="url(#b)" d="M252.8 55c3.8 0 6.8-3.1 6.8-6.8 0-3.8-3.1-6.8-6.8-6.8h-.1c-3.8 0-6.8 3.1-6.8 6.8 0 3.8 3.1 6.8 6.9 6.8zM389.1 218.9h-6.8v-13.7c0-33.1-9.9-55-30.3-67.1-2.1-1.5-10.5-7.1-29.1-13-3.6-1.1-7.4.9-8.6 4.5-1.1 3.6.9 7.4 4.5 8.6 18.2 5.7 25.1 10.9 25.1 11 .3.2.5.4.8.6 16.3 9.5 23.9 27.2 23.9 55.5v20.5c0 3.8 3.1 6.8 6.8 6.8h13.7c3.8 0 6.8 3.1 6.8 6.8v41c0 3.8-3.1 6.8-6.8 6.8h-6.8V253c0-3.8-3.1-6.8-6.8-6.8-3.8 0-6.8 3.1-6.8 6.8v95.6c0 11.3-9.2 20.5-20.5 20.5-3.8 0-6.8 3.1-6.8 6.8v20.5H41v-13.7h279.9c3.8 0 6.8-3.1 6.8-6.8 0-3.8-3.1-6.8-6.8-6.8H34.1c-11.3 0-20.5-9.2-20.5-20.5V205.2c0-28.3 7.6-45.9 24-55.6.2-.1.5-.3.7-.5.1-.1 7-5.3 25.1-11 3.6-1.1 5.6-5 4.5-8.6s-5-5.6-8.6-4.5c-18.6 5.9-27 11.4-29.1 13C9.9 150.3 0 172.3 0 205.2v143.4C0 365 11.7 378.8 27.3 382v21.2c0 3.8 3.1 6.8 6.8 6.8h314c3.8 0 6.8-3.1 6.8-6.8V382c15.6-3.2 27.3-17 27.3-33.4v-47.8h6.8c11.3 0 20.5-9.2 20.5-20.5v-41c.1-11.3-9.1-20.4-20.4-20.4z"/><path d="M109.2 14.1H273c15.1 0 27.3 12.2 27.3 27.3 0 8.5-4 16.4-10.9 21.7-1.7 1.3-2.7 3.3-2.7 5.4v82.1H95.6V68.5c0-2.1-1-4.2-2.7-5.4C86 57.8 82 49.9 82 41.4c-.1-15.1 12.2-27.3 27.2-27.3zM75.1 150.6c-3.8 0-6.8 3.1-6.8 6.8 0 3.8 3.1 6.8 6.8 6.8h232.1c3.8 0 6.8-3.1 6.8-6.8 0-3.8-3.1-6.8-6.8-6.8h-6.8V71.7c8.7-7.8 13.7-18.7 13.7-30.4 0-22.6-18.4-41-41-41H109.2c-22.6 0-41 18.4-41 41 0 11.7 4.9 22.6 13.7 30.4v78.9h-6.8z"/><path d="M157.2 136.9c3.8 0 6.8-3.1 6.8-6.8 0-3.8-3.1-6.8-6.8-6.8h-.1c-3.8 0-6.8 3.1-6.8 6.8.1 3.8 3.1 6.8 6.9 6.8zM286.7 239.3v54.6c0 3.8-3.1 6.8-6.8 6.8H102.4c-3.8 0-6.8-3.1-6.8-6.8v-54.6c0-3.8 3.1-6.8 6.8-6.8h177.5c3.8 0 6.8 3.1 6.8 6.8zm-184.3-20.4c-11.3 0-20.5 9.2-20.5 20.5V294c0 11.3 9.2 20.5 20.5 20.5h177.5c11.3 0 20.5-9.2 20.5-20.5v-54.6c0-11.3-9.2-20.5-20.5-20.5H102.4zM129.9 96c3.8 0 6.8-3.1 6.8-6.8 0-3.8-3.1-6.8-6.8-6.8h-.1c-3.8 0-6.8 3.1-6.8 6.8.1 3.7 3.1 6.8 6.9 6.8zM143.6 41.4c3.8 0 6.8-3.1 6.8-6.8 0-3.8-3.1-6.8-6.8-6.8h-.1c-3.8 0-6.8 3.1-6.8 6.8 0 3.7 3.1 6.8 6.9 6.8z"/></svg>