<svg xmlns="http://www.w3.org/2000/svg" xmlns:xlink="http://www.w3.org/1999/xlink" width="512" height="512" viewBox="0 0 512 512"><defs><path id="a" d="M.1 0H512v512H.1z"/></defs><clipPath id="b"><use xlink:href="#a" overflow="visible"/></clipPath><path clip-path="url(#b)" fill="#000B10" d="M458.7 469.3H53.3C23.9 469.3 0 445.4 0 416V181.3C0 151.9 23.9 128 53.3 128h405.3c29.4 0 53.3 23.9 53.3 53.3V416c.1 29.4-23.8 53.3-53.2 53.3m-405.4-320c-17.6 0-32 14.4-32 32V416c0 17.6 14.4 32 32 32h405.3c17.6 0 32-14.4 32-32V181.3c0-17.6-14.4-32-32-32H53.3z"/><path fill="#000B10" d="M288 426.7H117.3c-41.2 0-74.7-33.5-74.7-74.7V245.3c0-41.2 33.5-74.7 74.7-74.7H288c41.2 0 74.7 33.5 74.7 74.7V352c0 41.2-33.5 74.7-74.7 74.7M117.3 192C87.9 192 64 215.9 64 245.3V352c0 29.4 23.9 53.3 53.3 53.3H288c29.4 0 53.3-23.9 53.3-53.3V245.3c0-29.4-23.9-53.3-53.3-53.3H117.3zM437.3 213.3h-42.7c-5.9 0-10.7-4.8-10.7-10.7s4.8-10.7 10.7-10.7h42.7c5.9 0 10.7 4.8 10.7 10.7s-4.8 10.7-10.7 10.7M437.3 256h-42.7c-5.9 0-10.7-4.8-10.7-10.7s4.8-10.7 10.7-10.7h42.7c5.9 0 10.7 4.8 10.7 10.7s-4.8 10.7-10.7 10.7M437.3 298.7h-42.7c-5.9 0-10.7-4.8-10.7-10.7s4.8-10.7 10.7-10.7h42.7c5.9 0 10.7 4.8 10.7 10.7s-4.8 10.7-10.7 10.7M437.3 426.7h-42.7c-5.9 0-10.7-4.8-10.7-10.7v-85.3c0-5.9 4.8-10.7 10.7-10.7h42.7c5.9 0 10.7 4.8 10.7 10.7V416c0 5.9-4.8 10.7-10.7 10.7m-32-21.4h21.3v-64h-21.3v64zM74.7 512c-5.9 0-10.7-4.8-10.7-10.7v-42.7c0-5.9 4.8-10.7 10.7-10.7s10.7 4.8 10.7 10.7v42.7c-.1 5.9-4.8 10.7-10.7 10.7"/><g><defs><path id="c" d="M.1 0H512v512H.1z"/></defs><clipPath id="d"><use xlink:href="#c" overflow="visible"/></clipPath><path clip-path="url(#d)" fill="#000B10" d="M437.3 512c-5.9 0-10.7-4.8-10.7-10.7v-42.7c0-5.9 4.8-10.7 10.7-10.7s10.7 4.8 10.7 10.7v42.7c0 5.9-4.8 10.7-10.7 10.7M224 149.3c-2.7 0-5.5-1-7.6-3.1l-128-128c-4.2-4.2-4.2-10.9 0-15.1 4.2-4.2 10.9-4.2 15.1 0L224 123.6 344.4 3.1c4.2-4.2 10.9-4.2 15.1 0 4.2 4.2 4.2 10.9 0 15.1l-128 128c-2 2.1-4.8 3.1-7.5 3.1"/></g></svg>