<svg version="1.1" xmlns="http://www.w3.org/2000/svg" xmlns:xlink="http://www.w3.org/1999/xlink" x="0" y="0" width="150" height="194.6" fill="#9b9b9b" viewBox="0 0 150 194.6" xml:space="preserve"><defs><path id="a" d="M0 0h150v194.6H0z"/></defs><clipPath id="b"><use xlink:href="#a" overflow="visible"/></clipPath><path clip-path="url(#b)" d="M142.8 175.3c0 4.4-24.1 13-68.2 13s-68.2-8.6-68.2-13v-10.5c0-8.3 4.5-16 11.9-20l29-15.8c4.8-2.6 7.9-7.7 7.9-13.2v-13l-.8-.9c-.1-.1-8-9.7-11.1-22.9l-.3-1.3-1.1-.7c-1.9-1.2-3-3.2-3-5.4v-13c0-1.8.8-3.5 2.2-4.8l1.1-1V32.1c0-.1-1.1-9.1 5.2-16.3C52.8 9.7 62 6.6 74.7 6.6c12.7 0 21.8 3.1 27.2 9.2 6.3 7.2 5.3 16.3 5.3 16.4v20.6l1.1 1c1.4 1.2 2.2 3 2.2 4.8v13c0 2.8-1.9 5.3-4.6 6.2l-1.6.5-.5 1.6c-2.2 6.8-5.3 13-9.2 18.5-1 1.4-1.9 2.6-2.7 3.5l-.8.9V116c0 5.8 3.2 10.9 8.3 13.5l31 15.5c7.8 3.9 12.6 11.7 12.6 20.4v9.9zm-9.7-36.1l-31-15.5c-2.9-1.5-4.7-4.4-4.7-7.7v-11c.7-.9 1.5-2 2.3-3.1 4-5.7 7.2-12 9.6-18.8 4.6-2.1 7.6-6.6 7.6-11.7v-13c0-3.1-1.2-6.1-3.3-8.5V32.6c.2-1.8.9-12.4-6.8-21.2C100.2 3.8 89.3 0 74.6 0 60 0 49.2 3.8 42.5 11.4c-7.7 8.8-7 19.4-6.8 21.2v17.3c-2.1 2.4-3.3 5.4-3.3 8.5v13c0 3.9 1.8 7.6 4.9 10.1 3 11.8 9.2 20.7 11.4 23.5v10.7c0 3.1-1.7 6-4.5 7.5l-29 15.8C5.8 144.2 0 154.1 0 164.8v10.5c0 15.4 48.8 19.5 74.7 19.5 25.8 0 74.7-4.1 74.7-19.5v-9.9c-.1-11.1-6.3-21.2-16.3-26.2z"/></svg>