<svg xmlns="http://www.w3.org/2000/svg" width="384" height="391.8" fill="#fff" viewBox="0 0 384 391.8"><path d="M172.3 343.1H82.7c-3.5 0-6.4 2.8-6.4 6.4 0 3.5 2.9 6.4 6.4 6.4h89.6c3.5 0 6.4-2.8 6.4-6.4 0-3.5-2.9-6.4-6.4-6.4zM172.3 317.5H82.7c-3.5 0-6.4 2.8-6.4 6.4 0 3.6 2.9 6.4 6.4 6.4h89.6c3.5 0 6.4-2.8 6.4-6.4 0-3.5-2.9-6.4-6.4-6.4zM127.5 279.1c-28.2 0-51.2-25.8-51.2-57.6s23-57.6 51.2-57.6c28.2 0 51.2 25.8 51.2 57.6s-23 57.6-51.2 57.6zm0-128c-35.3 0-64 31.6-64 70.4 0 38.8 28.7 70.4 64 70.4s64-31.6 64-70.4c0-38.8-28.7-70.4-64-70.4z"/><path d="M127.5 215.1c-7.1 0-12.8-5.8-12.8-12.8s5.8-12.8 12.8-12.8 12.8 5.7 12.8 12.8-5.7 12.8-12.8 12.8zm0-38.4c-14.1 0-25.6 11.5-25.6 25.6 0 14.1 11.5 25.6 25.6 25.6s25.6-11.5 25.6-25.6c0-14.1-11.5-25.6-25.6-25.6z"/><path d="M268.3 368.7h89.6v6.4h-89.6v-6.4zm25.6-25.6h38.4v12.8h-38.4v-12.8zm12.8-108.8h12.8v96h-12.8v-96zm-76.8 6l64-64v18.1l-64 64v-18.1zm-12.8 70.8h-25.6v51.2h-128v-51.2H37.9v-89.6c0-2.8.2-5.5.4-8.2.1-1.5.3-2.9.6-4.3.2-1.1.3-2.2.5-3.3.3-1.9.8-3.8 1.2-5.8.1-.5.3-1 .4-1.5.6-2.2 1.3-4.3 2-6.4 9-25.6 29.3-45.9 54.8-54.9 2.2-.8 4.4-1.4 6.6-2l1.2-.3c2.1-.5 4.1-1 6.2-1.3.8-.1 1.6-.2 2.3-.3 1.8-.3 3.6-.6 5.4-.7 1.4-.1 2.8-.2 4.2-.2 2.4-.1 4.9-.1 7.3 0 1.4.1 2.8.1 4.2.2 1.8.2 3.6.4 5.4.7.8.1 1.6.2 2.3.3 2.1.4 4.1.8 6.1 1.3.4.1.8.2 1.3.3 2.2.6 4.4 1.2 6.6 2 34.8 12.3 59.9 45.4 59.9 84.5v89.5zm-12.8 12.8h12.8v51.2h-12.8v-51.2zm-166.4 0h12.8v51.2H37.9v-51.2zm-25.6-83.2c0-13.4 5.2-25.9 14.1-35.3-.2.9-.2 1.8-.3 2.8-.2 1.3-.4 2.7-.5 4.1-.3 3.1-.5 6.1-.5 9.2v53c-8.2-9.1-12.8-21.1-12.8-33.8zm89.6-118.2v-3.3c0-14.1 11.5-25.6 25.6-25.6s25.6 11.5 25.6 25.6v3.3c-.5-.1-1-.2-1.6-.3-1.6-.4-3.1-.8-4.8-1.1-2.5-.5-5.1-.8-7.6-1.2-.9-.1-1.8-.2-2.7-.2-3-.3-6-.5-9-.5s-6 .2-9 .5c-.9.1-1.8.2-2.7.2-2.5.3-5.1.7-7.6 1.2-1.6.3-3.2.7-4.8 1.1-.4 0-.9.1-1.4.3zm204.8-77c0-10.6 5.8-20.3 15.2-25.4 9.9-5.4 21.8-4.4 32.6 2.7 6.1 4 9.8 11.2 9.8 18.8v19.9h-12.8v-16c0-8.8-7.2-16-16-16s-16 7.2-16 16v150.4h-12.8V45.5zm57.6 47.8c0 19.8-7.7 38.3-21.7 52.3L332.3 156v-18.9c12.4-15.4 19.2-34.6 19.2-54.3v-8.4h12.8v18.9zm-25.6-31.8v21.2c0 10.3-2.2 20.5-6.4 29.9V45.5c0-1.8 1.4-3.2 3.2-3.2 1.8 0 3.2 1.4 3.2 3.2v16zm-32 147.2h12.8v12.8h-12.8v-12.8zm70.4 166.4h-6.4v-19.2h-25.6v-25.6h-12.8V174.1l19.4-19.4c16.4-16.4 25.4-38.2 25.4-61.4V41.7c0-12.1-5.8-23.1-15.6-29.5-14.8-9.8-31.5-11-45.7-3.3-13.5 7.3-21.9 21.3-21.9 36.6v112.7l-64 64v-.7c0-42.9-26.5-79.6-64-94.9v-7.5c0-21.2-17.2-38.4-38.4-38.4s-38.4 17.2-38.4 38.4v7.5c-26.3 10.7-47.1 32-57.2 58.6-20 11.4-32.3 32.3-32.3 55.4 0 20.2 9.6 39 25.6 51.1v96.2h38.4v-12.8h128v12.8H230V276.5l64-64v117.8h-12.8v25.6h-25.6v19.2h-6.4c-3.5 0-6.4 2.9-6.4 6.4 0 3.5 2.9 6.4 6.4 6.4h128c3.5 0 6.4-2.9 6.4-6.4-.1-3.5-3-6.4-6.5-6.4z"/></svg>