<svg xmlns="http://www.w3.org/2000/svg" width="79" height="80" viewBox="0 0 79 80"><path d="M58.9 44.1c1.8 1.8 3.8 3.5 5.4 5.4.7.9 1.4 1.8 1.9 2.8.7 1.4.1 3-1.2 3.1h-8c-2.1.2-3.7-.7-5.1-2.1-1.1-1.1-2.1-2.3-3.2-3.5-.4-.5-.9-.9-1.4-1.3-1.1-.7-2-.5-2.7.6-.6 1.2-.8 2.4-.8 3.7-.1 1.9-.7 2.4-2.6 2.5-4 .2-7.9-.4-11.5-2.5-3.2-1.8-5.6-4.3-7.7-7.2-4.1-5.6-7.3-11.8-10.2-18.1-.6-1.4-.2-2.2 1.4-2.2 2.6-.1 5.2 0 7.8 0 1.1 0 1.8.6 2.2 1.6 1.4 3.5 3.1 6.8 5.3 9.8.6.8 1.2 1.6 2 2.2.9.6 1.6.4 2.1-.6.3-.7.4-1.4.5-2.1.2-2.4.2-4.8-.1-7.2-.2-1.5-1.1-2.5-2.6-2.8-.8-.1-.7-.4-.3-.9.6-.8 1.2-1.2 2.5-1.2h9.1c1.4.3 1.7.9 1.9 2.4v10.1c0 .6.3 2.2 1.3 2.6.8.3 1.3-.4 1.8-.9 2.2-2.3 3.7-5 5.1-7.8.6-1.2 1.1-2.5 1.7-3.8.4-.9 1-1.4 2-1.4H65c1.5.3 1.9.9 1.4 2.3-.7 2.3-2.1 4.1-3.5 6l-4.5 6c-1.2 2-1.1 2.9.5 4.5zM39.1.8C17.5.8 0 18.3 0 39.9S17.5 79 39.1 79s39.1-17.5 39.1-39.1S60.7.8 39.1.8z"/></svg>