<svg xmlns="http://www.w3.org/2000/svg" width="333" height="385" fill="#fff" viewBox="0 0 333 385"><path d="M286.3 132c4 0 7.2 3.3 7.2 7.2 0 4-3.2 7.2-7.2 7.2s-7.2-3.2-7.2-7.2 3.2-7.2 7.2-7.2zm0 26.4c10.6 0 19.2-8.6 19.2-19.2s-8.6-19.2-19.2-19.2-19.2 8.6-19.2 19.2 8.6 19.2 19.2 19.2z"/><circle cx="93" cy="245.2" r="6"/><path d="M166.5 151.8c51.8 0 94 42.2 94 94s-42.2 94-94 94-94-42.2-94-94 42.2-94 94-94zm0 200c58.5 0 106-47.6 106-106 0-58.5-47.5-106-106-106s-106 47.5-106 106c0 58.4 47.5 106 106 106z"/><path d="M320.6 93.4h-308V22.8c-.1-5.7 4.2-9.9 9.9-9.9h287c6 0 11 4.6 11 9.9v70.6zm-.1 267.8c0 6.8-5.6 10.9-11 10.9h-287c-5.9 0-10-4.5-10-10.9V105.4h308v255.8zM309.5.9h-287C10.2.9.5 10.5.5 22.8v338.3c0 13 9.4 22.9 22 22.9h287c12.9 0 23-10.1 23-22.9V22.8c0-12.1-10.3-21.9-23-21.9z"/><path d="M282.5 66.6h-46c-6.5 0-11-4.1-11-9.9 0-6.6 4.3-10.9 11-10.9h46c6.7 0 11 4.2 11 10.9.1 5.8-4.5 9.9-11 9.9zm0-32.8h-46c-13.4 0-23 9.6-23 22.9 0 12.5 9.9 21.9 23 21.9h46c13.1 0 23-9.4 23-21.9.1-13.3-9.6-22.9-23-22.9zM161 179c3.3-.2 5.8-3.1 5.6-6.4-.2-3.3-3.1-5.8-6.4-5.6-33.5 2.2-61.8 25.1-70.4 57.2-.9 3.2 1 6.5 4.2 7.4.5.2 1 .2 1.5.2 2.6 0 5-1.8 5.8-4.5 7.4-27.1 31.3-46.4 59.7-48.3z"/></svg>