<svg xmlns="http://www.w3.org/2000/svg" fill="#fff" width="276" height="411" viewBox="0 0 276 411"><path d="M242.8 351.3h-210c-9.9 0-18-8.1-18-18V32.7c0-9.9 8.1-18 18-18h209.9c9.9 0 18 8.1 18 18v300.5c0 10-8 18.1-17.9 18.1zm0-350.9h-210C15 .4.5 14.9.5 32.7v300.5c0 17.8 14.5 32.3 32.3 32.3h77v37.3c0 4 3.2 7.2 7.2 7.2s7.2-3.2 7.2-7.2v-37.3h27.2v37.3c0 4 3.2 7.2 7.2 7.2s7.2-3.2 7.2-7.2v-37.3h77c17.8 0 32.3-14.5 32.3-32.3V32.7c0-17.8-14.5-32.3-32.3-32.3z"/><path d="M137.8 320.1c-18.2 0-33-14.8-33-33s14.8-33 33-33 33 14.8 33 33-14.8 33-33 33zm0-80.2c-26.1 0-47.3 21.2-47.3 47.3s21.2 47.3 47.3 47.3c26.1 0 47.3-21.2 47.3-47.3s-21.2-47.3-47.3-47.3z"/><path d="M137.8 266.7c-4 0-7.2 3.2-7.2 7.2v13.3c0 4 3.2 7.2 7.2 7.2s7.2-3.2 7.2-7.2v-13.3c0-4-3.2-7.2-7.2-7.2zM179.3 127.2c-6.4-13.3-16.3-20.3-16.7-20.6a7.23 7.23 0 0 0-8.2 0c-2.5 1.7-3.6 4.8-2.9 7.7.1.3.2.7.2 1-9-24.4-26.6-35.2-27.6-35.8-2.5-1.5-5.6-1.3-7.9.4a7.31 7.31 0 0 0-2.8 7.4l2.4 10.3c2.4 10.6-1.2 21.5-9.6 28.5-14.1 11.8-19.2 31.2-12.7 48.4l3.7 9.6c1.4 3.7 5.6 5.6 9.2 4.1 3.7-1.4 5.6-5.6 4.1-9.2l-3.7-9.6c-4.4-11.5-1-24.4 8.4-32.3 9.5-7.9 14.9-19.1 15.5-31 5.9 8.5 11.5 21.1 11.7 38.3 0 3 1.9 5.6 4.7 6.6 2.8 1 5.9.2 7.9-2 .4-.5 6.7-7.7 9.8-18.3 5.8 10.1 9.6 26.2-1.9 48.1-1.8 3.5-.5 7.8 3 9.7 1.1.6 2.2.8 3.3.8 2.6 0 5.1-1.4 6.3-3.8 13.8-26.1 9.7-46.1 3.8-58.3z"/><path d="M67.1 67.9h141.4v141.4H67.1V67.9zm148.6-14.3H59.9c-4 0-7.2 3.2-7.2 7.2v155.7c0 4 3.2 7.2 7.2 7.2h155.7c4 0 7.2-3.2 7.2-7.2V60.7c0-3.9-3.2-7.1-7.1-7.1z"/></svg>